{
copyright = "Copyright (c) 2015, Cadson Demak (info@cadsondemak.com)";
customParameters = (
{
name = vendorID;
value = CDK;
},
{
name = description;
value = "Copyright (c) 2015, Cadson Demak (info@cadsondemak.com)";
},
{
name = license;

glyphs = (
{
glyphname = A;
lastChange = "2015-10-29 02:55:26 +0000";
layers = (
{
layerId = "EF7A456C-05AE-460A-9046-2BAC18FBC939";
name = Bold;
paths = (
{
closed = 1;
nodes = (
"759 0 LINE",
"627 699 LINE",
"403 699 LINE",
"-25 0 LINE",
"223 0 LINE",
"293 122 LINE",
"501 122 LINE",
"521 0 LINE"
);
},
{
closed = 1;
nodes = (
"382 296 LINE",
"469 457 LINE",
"486 296 LINE"
);
}
);
width = 814;
}
);
leftKerningGroup = A;
note = A;
rightKerningGroup = A;
unicode = 0041;
},
{
glyphname = Aacute;
lastChange = "2015-10-29 02:55:25 +0000";
layers = (
{
layerId = "EF7A456C-05AE-460A-9046-2BAC18FBC939";
name = Bold;
paths = (
{
closed = 1;
nodes = (
"521 0 LINE",
"501 122 LINE",
"293 122 LINE",
"223 0 LINE",
"-25 0 LINE",
"403 699 LINE",
"627 699 LINE",
"759 0 LINE"
);
},
{
closed = 1;
nodes = (
"486 296 LINE",
"469 457 LINE",
"382 296 LINE"
);
},
{
closed = 1;
nodes = (
"605 742 LINE",
"738 923 LINE",
"521 923 LINE",
"415 742 LINE"
);
}
);
width = 814;
}
);
leftKerningGroup = A;
note = Aacute;
rightKerningGroup = A;
unicode = 00C1;
},
{
glyphname = Abreve;
lastChange = "2015-10-29 02:55:25 +0000";
layers = (
{
layerId = "EF7A456C-05AE-460A-9046-2BAC18FBC939";
name = Bold;
paths = (
{
closed = 1;
nodes = (
"759 0 LINE",
"627 699 LINE",
"403 699 LINE",
"-25 0 LINE",
"223 0 LINE",
"293 122 LINE",
"501 122 LINE",
"521 0 LINE"
);
},
{
closed = 1;
nodes = (
"382 296 LINE",
"469 457 LINE",
"486 296 LINE"
);
},
{
closed = 1;
nodes = (
"637 742 OFFCURVE",
"725 816 OFFCURVE",
"750 937 CURVE",
"579 937 LINE",
"571 898 OFFCURVE",
"554 879 OFFCURVE",
"529 879 CURVE SMOOTH",
"504 879 OFFCURVE",
"495 898 OFFCURVE",
"503 937 CURVE",
"341 937 LINE",
"316 816 OFFCURVE",
"372 742 OFFCURVE",
"504 742 CURVE SMOOTH"
);
}
);
width = 814;
}
);
leftKerningGroup = A;
note = Abreve;
rightKerningGroup = A;
unicode = 0102;
},
{
glyphname = Abreveacute;
lastChange = "2015-10-29 02:55:25 +0000";
layers = (
{
layerId = "EF7A456C-05AE-460A-9046-2BAC18FBC939";
name = Bold;
paths = (
{
closed = 1;
nodes = (
"521 0 LINE",
"501 122 LINE",
"293 122 LINE",
"223 0 LINE",
"-25 0 LINE",
"403 699 LINE",
"627 699 LINE",
"759 0 LINE"
);
},
{
closed = 1;
nodes = (
"486 296 LINE",
"469 457 LINE",
"382 296 LINE"
);
},
{
closed = 1;
nodes = (
"416 742 OFFCURVE",
"349 804 OFFCURVE",
"370 904 CURVE",
"504 904 LINE",
"497 872 OFFCURVE",
"509 851 OFFCURVE",
"544 851 CURVE SMOOTH",
"579 851 OFFCURVE",
"599 872 OFFCURVE",
"606 904 CURVE",
"749 904 LINE",
"728 804 OFFCURVE",
"636 742 OFFCURVE",
"526 742 CURVE SMOOTH"
);
},
{
closed = 1;
nodes = (
"642 921 LINE",
"750 1063 LINE",
"565 1063 LINE",
"481 921 LINE"
);
}
);
width = 814;
}
);
leftKerningGroup = A;
note = Abreveacute;
rightKerningGroup = A;
unicode = 1EAE;
},
{
glyphname = Abrevedotbelow;
lastChange = "2015-10-29 02:55:25 +0000";
layers = (
{
layerId = "EF7A456C-05AE-460A-9046-2BAC18FBC939";
name = Bold;
paths = (
{
closed = 1;
nodes = (
"759 0 LINE",
"627 699 LINE",
"403 699 LINE",
"-25 0 LINE",
"223 0 LINE",
"293 122 LINE",
"501 122 LINE",
"521 0 LINE"
);
},
{
closed = 1;
nodes = (
"382 296 LINE",
"469 457 LINE",
"486 296 LINE"
);
},
{
closed = 1;
nodes = (
"243 -182 OFFCURVE",
"276 -220 OFFCURVE",
"323 -220 CURVE SMOOTH",
"370 -220 OFFCURVE",
"417 -182 OFFCURVE",
"427 -133 CURVE SMOOTH",
"438 -84 OFFCURVE",
"407 -45 OFFCURVE",
"360 -45 CURVE SMOOTH",
"313 -45 OFFCURVE",
"264 -84 OFFCURVE",
"253 -133 CURVE SMOOTH"
);
},
{
closed = 1;
nodes = (
"638 742 OFFCURVE",
"726 816 OFFCURVE",
"751 937 CURVE",
"580 937 LINE",
"572 898 OFFCURVE",
"555 879 OFFCURVE",
"530 879 CURVE SMOOTH",
"505 879 OFFCURVE",
"496 898 OFFCURVE",
"504 937 CURVE",
"342 937 LINE",
"317 816 OFFCURVE",
"373 742 OFFCURVE",
"505 742 CURVE SMOOTH"
);
}
);
width = 814;
}
);
leftKerningGroup = A;
note = Abrevedotbelow;
rightKerningGroup = A;
unicode = 1EB6;
},
{
glyphname = Abrevegrave;
lastChange = "2015-10-29 02:55:24 +0000";
layers = (
{
layerId = "EF7A456C-05AE-460A-9046-2BAC18FBC939";
name = Bold;
paths = (
{
closed = 1;
nodes = (
"521 0 LINE",
"501 122 LINE",
"293 122 LINE",
"223 0 LINE",
"-25 0 LINE",
"403 699 LINE",
"627 699 LINE",
"759 0 LINE"
);
},
{
closed = 1;
nodes = (
"486 296 LINE",
"469 457 LINE",
"382 296 LINE"
);
},
{
closed = 1;
nodes = (
"415 742 OFFCURVE",
"348 804 OFFCURVE",
"369 904 CURVE",
"503 904 LINE",
"496 872 OFFCURVE",
"508 851 OFFCURVE",
"543 851 CURVE SMOOTH",
"578 851 OFFCURVE",
"598 872 OFFCURVE",
"605 904 CURVE",
"748 904 LINE",
"727 804 OFFCURVE",
"635 742 OFFCURVE",
"525 742 CURVE SMOOTH"
);
},
{
closed = 1;
nodes = (
"646 921 LINE",
"622 1063 LINE",
"436 1063 LINE",
"485 921 LINE"
);
}
);
width = 814;
}
);
leftKerningGroup = A;
note = Abrevegrave;
rightKerningGroup = A;
unicode = 1EB0;
},
{
glyphname = Abrevehookabove;
lastChange = "2015-10-29 02:55:25 +0000";
layers = (
{
layerId = "EF7A456C-05AE-460A-9046-2BAC18FBC939";
name = Bold;
paths = (
{
closed = 1;
nodes = (
"521 0 LINE",
"501 122 LINE",
"293 122 LINE",
"223 0 LINE",
"-25 0 LINE",
"403 699 LINE",
"627 699 LINE",
"759 0 LINE"
);
},
{
closed = 1;
nodes = (
"486 296 LINE",
"469 457 LINE",
"382 296 LINE"
);
},
{
closed = 1;
nodes = (
"416 742 OFFCURVE",
"349 804 OFFCURVE",
"370 904 CURVE",
"504 904 LINE",
"497 872 OFFCURVE",
"509 851 OFFCURVE",
"544 851 CURVE SMOOTH",
"579 851 OFFCURVE",
"599 872 OFFCURVE",
"606 904 CURVE",
"749 904 LINE",
"728 804 OFFCURVE",
"636 742 OFFCURVE",
"526 742 CURVE SMOOTH"
);
},
{
closed = 1;
nodes = (
"721 1054 OFFCURVE",
"689 1085 OFFCURVE",
"609 1085 CURVE SMOOTH",
"579 1085 OFFCURVE",
"532 1079 OFFCURVE",
"507 1072 CURVE",
"492 1003 LINE",
"501 1007 OFFCURVE",
"515 1009 OFFCURVE",
"525 1009 CURVE SMOOTH",
"551 1009 OFFCURVE",
"562 1001 OFFCURVE",
"559 989 CURVE",
"556 973 OFFCURVE",
"536 968 OFFCURVE",
"509 968 CURVE",
"499 921 LINE",
"636 921 LINE",
"640 942 LINE",
"677 954 OFFCURVE",
"704 975 OFFCURVE",
"711 1008 CURVE SMOOTH"
);
}
);
width = 814;
}
);
leftKerningGroup = A;
note = Abrevehookabove;
rightKerningGroup = A;
unicode = 1EB2;
},
{
glyphname = Abrevetilde;
lastChange = "2015-10-29 02:55:26 +0000";
layers = (
{
layerId = "EF7A456C-05AE-460A-9046-2BAC18FBC939";
name = Bold;
paths = (
{
closed = 1;
nodes = (
"759 0 LINE",
"627 699 LINE",
"403 699 LINE",
"-25 0 LINE",
"223 0 LINE",
"293 122 LINE",
"501 122 LINE",
"521 0 LINE"
);
},
{
closed = 1;
nodes = (
"382 296 LINE",
"469 457 LINE",
"486 296 LINE"
);
},
{
closed = 1;
nodes = (
"635 742 OFFCURVE",
"727 804 OFFCURVE",
"748 904 CURVE",
"605 904 LINE",
"598 872 OFFCURVE",
"578 851 OFFCURVE",
"543 851 CURVE SMOOTH",
"508 851 OFFCURVE",
"496 872 OFFCURVE",
"503 904 CURVE",
"369 904 LINE",
"348 804 OFFCURVE",
"415 742 OFFCURVE",
"525 742 CURVE SMOOTH"
);
},
{
closed = 1;
nodes = (
"614 1025 OFFCURVE",
"565 1065 OFFCURVE",
"510 1065 CURVE SMOOTH",
"473 1065 OFFCURVE",
"441 1056 OFFCURVE",
"416 1033 CURVE",
"392 920 LINE",
"422 947 OFFCURVE",
"455 959 OFFCURVE",
"488 959 CURVE SMOOTH",
"540 959 OFFCURVE",
"585 919 OFFCURVE",
"644 919 CURVE SMOOTH",
"680 919 OFFCURVE",
"712 928 OFFCURVE",
"738 951 CURVE",
"762 1064 LINE",
"731 1037 OFFCURVE",
"699 1025 OFFCURVE",
"667 1025 CURVE SMOOTH"
);
}
);
width = 814;
}
);
leftKerningGroup = A;
note = Abrevetilde;
rightKerningGroup = A;
unicode = 1EB4;
},
{
glyphname = Acaron;
lastChange = "2015-10-29 02:55:24 +0000";
layers = (
{
layerId = "EF7A456C-05AE-460A-9046-2BAC18FBC939";
name = Bold;
paths = (
{
closed = 1;
nodes = (
"521 0 LINE",
"501 122 LINE",
"293 122 LINE",
"223 0 LINE",
"-25 0 LINE",
"403 699 LINE",
"627 699 LINE",
"759 0 LINE"
);
},
{
closed = 1;
nodes = (
"486 296 LINE",
"469 457 LINE",
"382 296 LINE"
);
},
{
closed = 1;
nodes = (
"605 742 LINE",
"810 933 LINE",
"599 933 LINE",
"523 853 LINE",
"481 933 LINE",
"279 933 LINE",
"403 742 LINE"
);
}
);
width = 814;
}
);
leftKerningGroup = A;
note = Acaron;
rightKerningGroup = A;
unicode = 01CD;
},
{
glyphname = Acircumflex;
lastChange = "2015-10-29 02:55:25 +0000";
layers = (
{
layerId = "EF7A456C-05AE-460A-9046-2BAC18FBC939";
name = Bold;
paths = (
{
closed = 1;
nodes = (
"521 0 LINE",
"501 122 LINE",
"293 122 LINE",
"223 0 LINE",
"-25 0 LINE",
"403 699 LINE",
"627 699 LINE",
"759 0 LINE"
);
},
{
closed = 1;
nodes = (
"486 296 LINE",
"469 457 LINE",
"382 296 LINE"
);
},
{
closed = 1;
nodes = (
"443 933 LINE",
"239 742 LINE",
"449 742 LINE",
"525 822 LINE",
"567 742 LINE",
"770 742 LINE",
"645 933 LINE"
);
}
);
width = 814;
}
);
leftKerningGroup = A;
note = Acircumflex;
rightKerningGroup = A;
unicode = 00C2;
},
{
glyphname = Acircumflexacute;
lastChange = "2015-10-29 02:55:26 +0000";
layers = (
{
layerId = "EF7A456C-05AE-460A-9046-2BAC18FBC939";
name = Bold;
paths = (
{
closed = 1;
nodes = (
"521 0 LINE",
"501 122 LINE",
"293 122 LINE",
"223 0 LINE",
"-25 0 LINE",
"403 699 LINE",
"627 699 LINE",
"759 0 LINE"
);
},
{
closed = 1;
nodes = (
"486 296 LINE",
"469 457 LINE",
"382 296 LINE"
);
},
{
closed = 1;
nodes = (
"477 903 LINE",
"278 742 LINE",
"470 742 LINE",
"524 792 LINE",
"558 742 LINE",
"749 742 LINE",
"619 903 LINE"
);
},
{
closed = 1;
nodes = (
"862 875 LINE",
"978 1024 LINE",
"771 1024 LINE",
"682 875 LINE"
);
}
);
width = 814;
}
);
leftKerningGroup = A;
note = Acircumflexacute;
rightKerningGroup = A;
unicode = 1EA4;
},
{
glyphname = Acircumflexdotbelow;
lastChange = "2015-10-29 02:55:24 +0000";
layers = (
{
layerId = "EF7A456C-05AE-460A-9046-2BAC18FBC939";
name = Bold;
paths = (
{
closed = 1;
nodes = (
"521 0 LINE",
"501 122 LINE",
"293 122 LINE",
"223 0 LINE",
"-25 0 LINE",
"403 699 LINE",
"627 699 LINE",
"759 0 LINE"
);
},
{
closed = 1;
nodes = (
"486 296 LINE",
"469 457 LINE",
"382 296 LINE"
);
},
{
closed = 1;
nodes = (
"243 -182 OFFCURVE",
"276 -220 OFFCURVE",
"323 -220 CURVE SMOOTH",
"370 -220 OFFCURVE",
"417 -182 OFFCURVE",
"427 -133 CURVE SMOOTH",
"438 -84 OFFCURVE",
"407 -45 OFFCURVE",
"360 -45 CURVE SMOOTH",
"313 -45 OFFCURVE",
"264 -84 OFFCURVE",
"253 -133 CURVE SMOOTH"
);
},
{
closed = 1;
nodes = (
"443 933 LINE",
"239 742 LINE",
"449 742 LINE",
"525 822 LINE",
"567 742 LINE",
"770 742 LINE",
"645 933 LINE"
);
}
);
width = 814;
}
);
leftKerningGroup = A;
note = Acircumflexdotbelow;
rightKerningGroup = A;
unicode = 1EAC;
},
{
glyphname = Acircumflexgrave;
lastChange = "2015-10-29 02:55:24 +0000";
layers = (
{
layerId = "EF7A456C-05AE-460A-9046-2BAC18FBC939";
name = Bold;
paths = (
{
closed = 1;
nodes = (
"521 0 LINE",
"501 122 LINE",
"293 122 LINE",
"223 0 LINE",
"-25 0 LINE",
"403 699 LINE",
"627 699 LINE",
"759 0 LINE"
);
},
{
closed = 1;
nodes = (
"486 296 LINE",
"469 457 LINE",
"382 296 LINE"
);
},
{
closed = 1;
nodes = (
"494 903 LINE",
"295 742 LINE",
"487 742 LINE",
"541 792 LINE",
"575 742 LINE",
"766 742 LINE",
"635 903 LINE"
);
},
{
closed = 1;
nodes = (
"418 875 LINE",
"393 1024 LINE",
"186 1024 LINE",
"238 875 LINE"
);
}
);
width = 814;
}
);
leftKerningGroup = A;
note = Acircumflexgrave;
rightKerningGroup = A;
unicode = 1EA6;
},
{
glyphname = Acircumflexhookabove;
lastChange = "2015-10-29 02:55:25 +0000";
layers = (
{
layerId = "EF7A456C-05AE-460A-9046-2BAC18FBC939";
name = Bold;
paths = (
{
closed = 1;
nodes = (
"521 0 LINE",
"501 122 LINE",
"293 122 LINE",
"223 0 LINE",
"-25 0 LINE",
"403 699 LINE",
"627 699 LINE",
"759 0 LINE"
);
},
{
closed = 1;
nodes = (
"486 296 LINE",
"469 457 LINE",
"382 296 LINE"
);
},
{
closed = 1;
nodes = (
"485 903 LINE",
"286 742 LINE",
"478 742 LINE",
"532 792 LINE",
"566 742 LINE",
"757 742 LINE",
"627 903 LINE"
);
},
{
closed = 1;
nodes = (
"899 1001 OFFCURVE",
"866 1032 OFFCURVE",
"785 1032 CURVE SMOOTH",
"755 1032 OFFCURVE",
"709 1026 OFFCURVE",
"684 1019 CURVE",
"669 950 LINE",
"678 954 OFFCURVE",
"692 956 OFFCURVE",
"702 956 CURVE SMOOTH",
"728 956 OFFCURVE",
"739 948 OFFCURVE",
"736 936 CURVE",
"733 920 OFFCURVE",
"713 915 OFFCURVE",
"686 915 CURVE",
"675 863 LINE",
"812 863 LINE",
"817 889 LINE",
"855 901 OFFCURVE",
"882 922 OFFCURVE",
"889 955 CURVE SMOOTH"
);
}
);
width = 814;
}
);
leftKerningGroup = A;
note = Acircumflexhookabove;
rightKerningGroup = A;
unicode = 1EA8;
},
{
glyphname = Acircumflextilde;
lastChange = "2015-10-29 02:55:25 +0000";
layers = (
{
layerId = "EF7A456C-05AE-460A-9046-2BAC18FBC939";
name = Bold;
paths = (
{
closed = 1;
nodes = (
"759 0 LINE",
"627 699 LINE",
"403 699 LINE",
"-25 0 LINE",
"223 0 LINE",
"293 122 LINE",
"501 122 LINE",
"521 0 LINE"
);
},
{
closed = 1;
nodes = (
"382 296 LINE",
"469 457 LINE",
"486 296 LINE"
);
},
{
closed = 1;
nodes = (
"489 903 LINE",
"290 742 LINE",
"482 742 LINE",
"536 792 LINE",
"570 742 LINE",
"761 742 LINE",
"631 903 LINE"
);
},
{
closed = 1;
nodes = (
"626 1020 OFFCURVE",
"577 1060 OFFCURVE",
"522 1060 CURVE SMOOTH",
"485 1060 OFFCURVE",
"453 1051 OFFCURVE",
"428 1028 CURVE",
"404 915 LINE",
"434 942 OFFCURVE",
"467 954 OFFCURVE",
"500 954 CURVE SMOOTH",
"552 954 OFFCURVE",
"597 914 OFFCURVE",
"655 914 CURVE SMOOTH",
"692 914 OFFCURVE",
"724 923 OFFCURVE",
"750 946 CURVE",
"774 1059 LINE",
"743 1032 OFFCURVE",
"711 1020 OFFCURVE",
"678 1020 CURVE SMOOTH"
);
}
);
width = 814;
}
);
leftKerningGroup = A;
note = Acircumflextilde;
rightKerningGroup = A;
unicode = 1EAA;
},
{
glyphname = Adieresis;
lastChange = "2015-10-29 02:55:24 +0000";
layers = (
{
layerId = "EF7A456C-05AE-460A-9046-2BAC18FBC939";
name = Bold;
paths = (
{
closed = 1;
nodes = (
"521 0 LINE",
"501 122 LINE",
"293 122 LINE",
"223 0 LINE",
"-25 0 LINE",
"403 699 LINE",
"627 699 LINE",
"759 0 LINE"
);
},
{
closed = 1;
nodes = (
"486 296 LINE",
"469 457 LINE",
"382 296 LINE"
);
},
{
closed = 1;
nodes = (
"309 780 OFFCURVE",
"342 742 OFFCURVE",
"388 742 CURVE SMOOTH",
"436 742 OFFCURVE",
"483 780 OFFCURVE",
"493 829 CURVE SMOOTH",
"504 878 OFFCURVE",
"473 917 OFFCURVE",
"425 917 CURVE SMOOTH",
"379 917 OFFCURVE",
"330 878 OFFCURVE",
"319 829 CURVE SMOOTH"
);
},
{
closed = 1;
nodes = (
"543 780 OFFCURVE",
"575 742 OFFCURVE",
"623 742 CURVE SMOOTH",
"670 742 OFFCURVE",
"717 780 OFFCURVE",
"727 829 CURVE SMOOTH",
"738 878 OFFCURVE",
"707 917 OFFCURVE",
"660 917 CURVE SMOOTH",
"612 917 OFFCURVE",
"564 878 OFFCURVE",
"553 829 CURVE SMOOTH"
);
}
);
width = 814;
}
);
leftKerningGroup = A;
note = Adieresis;
rightKerningGroup = A;
unicode = 00C4;
},
{
glyphname = Adotbelow;
lastChange = "2015-10-29 02:55:27 +0000";
layers = (
{
layerId = "EF7A456C-05AE-460A-9046-2BAC18FBC939";
name = Bold;
paths = (
{
closed = 1;
nodes = (
"759 0 LINE",
"627 699 LINE",
"403 699 LINE",
"-25 0 LINE",
"223 0 LINE",
"293 122 LINE",
"501 122 LINE",
"521 0 LINE"
);
},
{
closed = 1;
nodes = (
"382 296 LINE",
"469 457 LINE",
"486 296 LINE"
);
},
{
closed = 1;
nodes = (
"242 -182 OFFCURVE",
"275 -220 OFFCURVE",
"322 -220 CURVE SMOOTH",
"369 -220 OFFCURVE",
"416 -182 OFFCURVE",
"426 -133 CURVE SMOOTH",
"437 -84 OFFCURVE",
"406 -45 OFFCURVE",
"359 -45 CURVE SMOOTH",
"312 -45 OFFCURVE",
"263 -84 OFFCURVE",
"252 -133 CURVE SMOOTH"
);
}
);
width = 814;
}
);
leftKerningGroup = A;
note = Adotbelow;
rightKerningGroup = A;
unicode = 1EA0;
},
{
glyphname = Agrave;
lastChange = "2015-10-29 02:55:26 +0000";
layers = (
{
layerId = "EF7A456C-05AE-460A-9046-2BAC18FBC939";
name = Bold;
paths = (
{
closed = 1;
nodes = (
"521 0 LINE",
"501 122 LINE",
"293 122 LINE",
"223 0 LINE",
"-25 0 LINE",
"403 699 LINE",
"627 699 LINE",
"759 0 LINE"
);
},
{
closed = 1;
nodes = (
"486 296 LINE",
"469 457 LINE",
"382 296 LINE"
);
},
{
closed = 1;
nodes = (
"598 742 LINE",
"568 923 LINE",
"351 923 LINE",
"408 742 LINE"
);
}
);
width = 814;
}
);
leftKerningGroup = A;
note = Agrave;
rightKerningGroup = A;
unicode = 00C0;
},
{
glyphname = Ahookabove;
lastChange = "2015-10-29 02:55:27 +0000";
layers = (
{
layerId = "EF7A456C-05AE-460A-9046-2BAC18FBC939";
name = Bold;
paths = (
{
closed = 1;
nodes = (
"521 0 LINE",
"501 122 LINE",
"293 122 LINE",
"223 0 LINE",
"-25 0 LINE",
"403 699 LINE",
"627 699 LINE",
"759 0 LINE"
);
},
{
closed = 1;
nodes = (
"486 296 LINE",
"469 457 LINE",
"382 296 LINE"
);
},
{
closed = 1;
nodes = (
"732 940 OFFCURVE",
"683 981 OFFCURVE",
"564 981 CURVE SMOOTH",
"520 981 OFFCURVE",
"455 972 OFFCURVE",
"419 962 CURVE",
"401 877 LINE",
"414 881 OFFCURVE",
"439 886 OFFCURVE",
"459 886 CURVE SMOOTH",
"500 886 OFFCURVE",
"516 876 OFFCURVE",
"512 854 CURVE",
"506 827 OFFCURVE",
"484 816 OFFCURVE",
"428 816 CURVE",
"412 742 LINE",
"599 742 LINE",
"607 782 LINE",
"664 798 OFFCURVE",
"707 825 OFFCURVE",
"719 877 CURVE SMOOTH"
);
}
);
width = 814;
}
);
leftKerningGroup = A;
note = Ahookabove;
rightKerningGroup = A;
unicode = 1EA2;
},
{
glyphname = Amacron;
lastChange = "2015-10-29 02:55:27 +0000";
layers = (
{
layerId = "EF7A456C-05AE-460A-9046-2BAC18FBC939";
name = Bold;
paths = (
{
closed = 1;
nodes = (
"521 0 LINE",
"501 122 LINE",
"293 122 LINE",
"223 0 LINE",
"-25 0 LINE",
"403 699 LINE",
"627 699 LINE",
"759 0 LINE"
);
},
{
closed = 1;
nodes = (
"486 296 LINE",
"469 457 LINE",
"382 296 LINE"
);
},
{
closed = 1;
nodes = (
"687 742 LINE",
"718 885 LINE",
"352 885 LINE",
"321 742 LINE"
);
}
);
width = 814;
}
);
leftKerningGroup = A;
note = Amacron;
rightKerningGroup = A;
unicode = 0100;
},
{
glyphname = Aogonek;
lastChange = "2015-10-29 02:55:27 +0000";
layers = (
{
layerId = "EF7A456C-05AE-460A-9046-2BAC18FBC939";
name = Bold;
paths = (
{
closed = 1;
nodes = (
"626 -219 OFFCURVE",
"678 -212 OFFCURVE",
"712 -202 CURVE",
"737 -82 LINE",
"719 -90 OFFCURVE",
"701 -95 OFFCURVE",
"685 -95 CURVE SMOOTH",
"668 -95 OFFCURVE",
"661 -86 OFFCURVE",
"664 -72 CURVE SMOOTH",
"670 -45 OFFCURVE",
"696 -26 OFFCURVE",
"759 0 CURVE",
"627 699 LINE",
"403 699 LINE",
"-25 0 LINE",
"223 0 LINE",
"293 122 LINE",
"501 122 LINE",
"521 0 LINE",
"496 -21 OFFCURVE",
"465 -70 OFFCURVE",
"460 -121 CURVE SMOOTH",
"454 -186 OFFCURVE",
"499 -219 OFFCURVE",
"581 -219 CURVE SMOOTH"
);
},
{
closed = 1;
nodes = (
"382 296 LINE",
"469 457 LINE",
"486 296 LINE"
);
}
);
width = 814;
}
);
leftKerningGroup = A;
note = Aogonek;
rightKerningGroup = A;
unicode = 0104;
},
{
glyphname = Aring;
lastChange = "2015-10-29 02:55:24 +0000";
layers = (
{
layerId = "EF7A456C-05AE-460A-9046-2BAC18FBC939";
name = Bold;
paths = (
{
closed = 1;
nodes = (
"365 734 OFFCURVE",
"371 700 OFFCURVE",
"387 673 CURVE",
"-25 0 LINE",
"223 0 LINE",
"293 122 LINE",
"501 122 LINE",
"521 0 LINE",
"759 0 LINE",
"632 672 LINE",
"659 699 OFFCURVE",
"679 733 OFFCURVE",
"688 772 CURVE SMOOTH",
"707 859 OFFCURVE",
"650 926 OFFCURVE",
"563 926 CURVE SMOOTH",
"471 926 OFFCURVE",
"392 859 OFFCURVE",
"373 772 CURVE SMOOTH"
);
},
{
closed = 1;
nodes = (
"382 296 LINE",
"469 457 LINE",
"486 296 LINE"
);
},
{
closed = 1;
nodes = (
"494 795 OFFCURVE",
"516 813 OFFCURVE",
"539 813 CURVE SMOOTH",
"567 813 OFFCURVE",
"576 795 OFFCURVE",
"571 772 CURVE SMOOTH",
"566 749 OFFCURVE",
"544 731 OFFCURVE",
"521 731 CURVE SMOOTH",
"494 731 OFFCURVE",
"484 749 OFFCURVE",
"489 772 CURVE SMOOTH"
);
}
);
width = 814;
}
);
leftKerningGroup = A;
note = Aring;
rightKerningGroup = A;
unicode = 00C5;
},
{
glyphname = Aringacute;
lastChange = "2015-10-29 02:55:27 +0000";
layers = (
{
layerId = "EF7A456C-05AE-460A-9046-2BAC18FBC939";
name = Bold;
paths = (
{
closed = 1;
nodes = (
"392 859 OFFCURVE",
"471 926 OFFCURVE",
"563 926 CURVE SMOOTH",
"650 926 OFFCURVE",
"707 859 OFFCURVE",
"688 772 CURVE SMOOTH",
"679 733 OFFCURVE",
"659 699 OFFCURVE",
"632 672 CURVE",
"759 0 LINE",
"521 0 LINE",
"501 122 LINE",
"293 122 LINE",
"223 0 LINE",
"-25 0 LINE",
"387 673 LINE",
"371 700 OFFCURVE",
"365 734 OFFCURVE",
"373 772 CURVE SMOOTH"
);
},
{
closed = 1;
nodes = (
"486 296 LINE",
"469 457 LINE",
"382 296 LINE"
);
},
{
closed = 1;
nodes = (
"484 749 OFFCURVE",
"494 731 OFFCURVE",
"521 731 CURVE SMOOTH",
"544 731 OFFCURVE",
"566 749 OFFCURVE",
"571 772 CURVE SMOOTH",
"576 795 OFFCURVE",
"567 813 OFFCURVE",
"539 813 CURVE SMOOTH",
"516 813 OFFCURVE",
"494 795 OFFCURVE",
"489 772 CURVE SMOOTH"
);
},
{
closed = 1;
nodes = (
"649 946 LINE",
"782 1091 LINE",
"565 1091 LINE",
"459 946 LINE"
);
}
);
width = 814;
}
);
leftKerningGroup = A;
note = Aringacute;
rightKerningGroup = A;
unicode = 01FA;
},
{
glyphname = Atilde;
lastChange = "2015-10-29 02:55:25 +0000";
layers = (
{
layerId = "EF7A456C-05AE-460A-9046-2BAC18FBC939";
name = Bold;
paths = (
{
closed = 1;
nodes = (
"759 0 LINE",
"627 699 LINE",
"403 699 LINE",
"-25 0 LINE",
"223 0 LINE",
"293 122 LINE",
"501 122 LINE",
"521 0 LINE"
);
},
{
closed = 1;
nodes = (
"382 296 LINE",
"469 457 LINE",
"486 296 LINE"
);
},
{
closed = 1;
nodes = (
"572 886 OFFCURVE",
"512 936 OFFCURVE",
"444 936 CURVE SMOOTH",
"398 936 OFFCURVE",
"357 925 OFFCURVE",
"325 896 CURVE",
"293 743 LINE",
"331 777 OFFCURVE",
"371 792 OFFCURVE",
"413 792 CURVE SMOOTH",
"477 792 OFFCURVE",
"533 742 OFFCURVE",
"606 742 CURVE SMOOTH",
"652 742 OFFCURVE",
"692 753 OFFCURVE",
"724 782 CURVE",
"756 935 LINE",
"718 901 OFFCURVE",
"679 886 OFFCURVE",
"637 886 CURVE SMOOTH"
);
}
);
width = 814;
}
);
leftKerningGroup = A;
note = Atilde;
rightKerningGroup = A;
unicode = 00C3;
},
{
glyphname = AE;
lastChange = "2015-10-29 02:55:25 +0000";
layers = (
{
layerId = "EF7A456C-05AE-460A-9046-2BAC18FBC939";
name = Bold;
paths = (
{
closed = 1;
nodes = (
"700 500 LINE",
"971 500 LINE",
"1013 699 LINE",
"403 699 LINE",
"-25 0 LINE",
"218 0 LINE",
"285 122 LINE",
"397 122 LINE",
"372 0 LINE",
"865 0 LINE",
"907 199 LINE",
"636 199 LINE",
"649 260 LINE",
"838 260 LINE",
"876 439 LINE",
"687 439 LINE"
);
},
{
closed = 1;
nodes = (
"478 500 LINE",
"435 300 LINE",
"379 300 LINE"
);
}
);
width = 910;
}
);
leftKerningGroup = A;
note = AE;
rightKerningGroup = E;
unicode = 00C6;
},
{
glyphname = AEacute;
lastChange = "2015-10-29 02:55:27 +0000";
layers = (
{
layerId = "EF7A456C-05AE-460A-9046-2BAC18FBC939";
name = Bold;
paths = (
{
closed = 1;
nodes = (
"687 439 LINE",
"876 439 LINE",
"838 260 LINE",
"649 260 LINE",
"636 199 LINE",
"907 199 LINE",
"865 0 LINE",
"372 0 LINE",
"397 122 LINE",
"285 122 LINE",
"218 0 LINE",
"-25 0 LINE",
"403 699 LINE",
"1013 699 LINE",
"971 500 LINE",
"700 500 LINE"
);
},
{
closed = 1;
nodes = (
"379 300 LINE",
"435 300 LINE",
"478 500 LINE"
);
},
{
closed = 1;
nodes = (
"730 742 LINE",
"863 923 LINE",
"646 923 LINE",
"540 742 LINE"
);
}
);
width = 920;
}
);
leftKerningGroup = A;
note = AEacute;
rightKerningGroup = E;
unicode = 01FC;
},
{
glyphname = B;
lastChange = "2015-10-29 02:55:26 +0000";
layers = (
{
layerId = "EF7A456C-05AE-460A-9046-2BAC18FBC939";
name = Bold;
paths = (
{
closed = 1;
nodes = (
"734 624 OFFCURVE",
"655 699 OFFCURVE",
"519 699 CURVE SMOOTH",
"143 699 LINE",
"-5 0 LINE",
"387 0 LINE SMOOTH",
"517 0 OFFCURVE",
"642 81 OFFCURVE",
"671 218 CURVE SMOOTH",
"687 292 OFFCURVE",
"671 336 OFFCURVE",
"614 367 CURVE",
"666 399 OFFCURVE",
"700 451 OFFCURVE",
"710 502 CURVE SMOOTH"
);
},
{
closed = 1;
nodes = (
"375 279 LINE SMOOTH",
"424 279 OFFCURVE",
"439 259 OFFCURVE",
"430 219 CURVE SMOOTH",
"421 178 OFFCURVE",
"399 160 OFFCURVE",
"350 160 CURVE SMOOTH",
"259 160 LINE",
"284 279 LINE"
);
},
{
closed = 1;
nodes = (
"417 539 LINE SMOOTH",
"457 539 OFFCURVE",
"474 525 OFFCURVE",
"466 488 CURVE SMOOTH",
"458 449 OFFCURVE",
"435 434 OFFCURVE",
"395 434 CURVE SMOOTH",
"317 434 LINE",
"339 539 LINE"
);
}
);
width = 680;
}
);
note = B;
unicode = 0042;
},
{
glyphname = C;
lastChange = "2015-10-29 02:55:24 +0000";
layers = (
{
layerId = "EF7A456C-05AE-460A-9046-2BAC18FBC939";
name = Bold;
paths = (
{
closed = 1;
nodes = (
"306 203 OFFCURVE",
"269 251 OFFCURVE",
"290 349 CURVE SMOOTH",
"310 446 OFFCURVE",
"387 495 OFFCURVE",
"488 495 CURVE SMOOTH",
"582 495 OFFCURVE",
"649 478 OFFCURVE",
"699 435 CURVE",
"747 659 LINE",
"687 698 OFFCURVE",
"614 714 OFFCURVE",
"513 714 CURVE SMOOTH",
"262 714 OFFCURVE",
"97 577 OFFCURVE",
"49 349 CURVE SMOOTH",
"0 122 OFFCURVE",
"141 -15 OFFCURVE",
"358 -15 CURVE SMOOTH",
"459 -15 OFFCURVE",
"547 4 OFFCURVE",
"624 43 CURVE",
"671 266 LINE",
"596 223 OFFCURVE",
"520 203 OFFCURVE",
"426 203 CURVE SMOOTH"
);
}
);
width = 670;
}
);
leftKerningGroup = C;
note = C;
rightKerningGroup = C;
unicode = 0043;
},
{
glyphname = Cacute;
lastChange = "2015-10-29 02:55:25 +0000";
layers = (
{
layerId = "EF7A456C-05AE-460A-9046-2BAC18FBC939";
name = Bold;
paths = (
{
closed = 1;
nodes = (
"306 203 OFFCURVE",
"269 251 OFFCURVE",
"290 349 CURVE SMOOTH",
"310 446 OFFCURVE",
"387 495 OFFCURVE",
"488 495 CURVE SMOOTH",
"582 495 OFFCURVE",
"649 478 OFFCURVE",
"699 435 CURVE",
"747 659 LINE",
"687 698 OFFCURVE",
"614 714 OFFCURVE",
"513 714 CURVE SMOOTH",
"262 714 OFFCURVE",
"97 577 OFFCURVE",
"49 349 CURVE SMOOTH",
"0 122 OFFCURVE",
"141 -15 OFFCURVE",
"358 -15 CURVE SMOOTH",
"459 -15 OFFCURVE",
"547 4 OFFCURVE",
"624 43 CURVE",
"671 266 LINE",
"596 223 OFFCURVE",
"520 203 OFFCURVE",
"426 203 CURVE SMOOTH"
);
},
{
closed = 1;
nodes = (
"592 742 LINE",
"725 923 LINE",
"508 923 LINE",
"402 742 LINE"
);
}
);
width = 670;
}
);
leftKerningGroup = C;
note = Cacute;
rightKerningGroup = C;
unicode = 0106;
},
{
glyphname = Ccaron;
lastChange = "2015-10-29 02:55:27 +0000";
layers = (
{
layerId = "EF7A456C-05AE-460A-9046-2BAC18FBC939";
name = Bold;
paths = (
{
closed = 1;
nodes = (
"306 203 OFFCURVE",
"269 251 OFFCURVE",
"290 349 CURVE SMOOTH",
"310 446 OFFCURVE",
"387 495 OFFCURVE",
"488 495 CURVE SMOOTH",
"582 495 OFFCURVE",
"649 478 OFFCURVE",
"699 435 CURVE",
"747 659 LINE",
"687 698 OFFCURVE",
"614 714 OFFCURVE",
"513 714 CURVE SMOOTH",
"262 714 OFFCURVE",
"97 577 OFFCURVE",
"49 349 CURVE SMOOTH",
"0 122 OFFCURVE",
"141 -15 OFFCURVE",
"358 -15 CURVE SMOOTH",
"459 -15 OFFCURVE",
"547 4 OFFCURVE",
"624 43 CURVE",
"671 266 LINE",
"596 223 OFFCURVE",
"520 203 OFFCURVE",
"426 203 CURVE SMOOTH"
);
},
{
closed = 1;
nodes = (
"600 742 LINE",
"805 933 LINE",
"594 933 LINE",
"518 853 LINE",
"476 933 LINE",
"274 933 LINE",
"398 742 LINE"
);
}
);
width = 670;
}
);
leftKerningGroup = C;
note = Ccaron;
rightKerningGroup = C;
unicode = 010C;
},
{
glyphname = Ccedilla;
lastChange = "2015-10-29 02:55:26 +0000";
layers = (
{
layerId = "EF7A456C-05AE-460A-9046-2BAC18FBC939";
name = Bold;
paths = (
{
closed = 1;
nodes = (
"495 -88 OFFCURVE",
"465 -57 OFFCURVE",
"409 -49 CURVE",
"433 -11 LINE",
"503 -4 OFFCURVE",
"566 14 OFFCURVE",
"624 43 CURVE",
"671 266 LINE",
"596 223 OFFCURVE",
"520 203 OFFCURVE",
"426 203 CURVE SMOOTH",
"306 203 OFFCURVE",
"269 251 OFFCURVE",
"290 349 CURVE SMOOTH",
"310 446 OFFCURVE",
"387 495 OFFCURVE",
"488 495 CURVE SMOOTH",
"582 495 OFFCURVE",
"649 478 OFFCURVE",
"699 435 CURVE",
"747 659 LINE",
"687 698 OFFCURVE",
"614 714 OFFCURVE",
"513 714 CURVE SMOOTH",
"262 714 OFFCURVE",
"97 577 OFFCURVE",
"49 349 CURVE SMOOTH",
"6 151 OFFCURVE",
"107 22 OFFCURVE",
"277 -8 CURVE",
"242 -76 LINE",
"309 -76 OFFCURVE",
"324 -97 OFFCURVE",
"318 -126 CURVE SMOOTH",
"313 -147 OFFCURVE",
"295 -165 OFFCURVE",
"257 -165 CURVE SMOOTH",
"234 -165 OFFCURVE",
"214 -158 OFFCURVE",
"200 -149 CURVE",
"180 -232 LINE",
"202 -241 OFFCURVE",
"241 -248 OFFCURVE",
"295 -248 CURVE SMOOTH",
"417 -248 OFFCURVE",
"472 -195 OFFCURVE",
"484 -137 CURVE SMOOTH"
);
}
);
width = 670;
}
);
leftKerningGroup = C;
note = Ccedilla;
rightKerningGroup = C;
unicode = 00C7;
},
{
glyphname = Ccircumflex;
lastChange = "2015-10-29 02:55:26 +0000";
layers = (
{
layerId = "EF7A456C-05AE-460A-9046-2BAC18FBC939";
name = Bold;
paths = (
{
closed = 1;
nodes = (
"306 203 OFFCURVE",
"269 251 OFFCURVE",
"290 349 CURVE SMOOTH",
"310 446 OFFCURVE",
"387 495 OFFCURVE",
"488 495 CURVE SMOOTH",
"582 495 OFFCURVE",
"649 478 OFFCURVE",
"699 435 CURVE",
"747 659 LINE",
"687 698 OFFCURVE",
"614 714 OFFCURVE",
"513 714 CURVE SMOOTH",
"262 714 OFFCURVE",
"97 577 OFFCURVE",
"49 349 CURVE SMOOTH",
"0 122 OFFCURVE",
"141 -15 OFFCURVE",
"358 -15 CURVE SMOOTH",
"459 -15 OFFCURVE",
"547 4 OFFCURVE",
"624 43 CURVE",
"671 266 LINE",
"596 223 OFFCURVE",
"520 203 OFFCURVE",
"426 203 CURVE SMOOTH"
);
},
{
closed = 1;
nodes = (
"415 933 LINE",
"211 742 LINE",
"421 742 LINE",
"497 822 LINE",
"539 742 LINE",
"742 742 LINE",
"617 933 LINE"
);
}
);
width = 670;
}
);
leftKerningGroup = C;
note = Ccircumflex;
rightKerningGroup = C;
unicode = 0108;
},
{
glyphname = Cdotaccent;
lastChange = "2015-10-29 02:55:27 +0000";
layers = (
{
layerId = "EF7A456C-05AE-460A-9046-2BAC18FBC939";
name = Bold;
paths = (
{
closed = 1;
nodes = (
"306 203 OFFCURVE",
"269 251 OFFCURVE",
"290 349 CURVE SMOOTH",
"310 446 OFFCURVE",
"387 495 OFFCURVE",
"488 495 CURVE SMOOTH",
"582 495 OFFCURVE",
"649 478 OFFCURVE",
"699 435 CURVE",
"747 659 LINE",
"687 698 OFFCURVE",
"614 714 OFFCURVE",
"513 714 CURVE SMOOTH",
"262 714 OFFCURVE",
"97 577 OFFCURVE",
"49 349 CURVE SMOOTH",
"0 122 OFFCURVE",
"141 -15 OFFCURVE",
"358 -15 CURVE SMOOTH",
"459 -15 OFFCURVE",
"547 4 OFFCURVE",
"624 43 CURVE",
"671 266 LINE",
"596 223 OFFCURVE",
"520 203 OFFCURVE",
"426 203 CURVE SMOOTH"
);
},
{
closed = 1;
nodes = (
"437 780 OFFCURVE",
"470 742 OFFCURVE",
"517 742 CURVE SMOOTH",
"565 742 OFFCURVE",
"612 780 OFFCURVE",
"622 829 CURVE SMOOTH",
"633 878 OFFCURVE",
"602 917 OFFCURVE",
"554 917 CURVE SMOOTH",
"507 917 OFFCURVE",
"458 878 OFFCURVE",
"447 829 CURVE SMOOTH"
);
}
);
width = 670;
}
);
leftKerningGroup = C;
note = Cdotaccent;
rightKerningGroup = C;
unicode = 010A;
},
{
glyphname = D;
lastChange = "2015-10-29 02:55:26 +0000";
layers = (
{
layerId = "EF7A456C-05AE-460A-9046-2BAC18FBC939";
name = Bold;
paths = (
{
closed = 1;
nodes = (
"766 557 OFFCURVE",
"630 699 OFFCURVE",
"403 699 CURVE SMOOTH",
"143 699 LINE",
"-5 0 LINE",
"263 0 LINE SMOOTH",
"516 0 OFFCURVE",
"677 115 OFFCURVE",
"725 353 CURVE SMOOTH"
);
},
{
closed = 1;
nodes = (
"464 261 OFFCURVE",
"416 220 OFFCURVE",
"325 220 CURVE SMOOTH",
"278 220 LINE",
"333 479 LINE",
"380 479 LINE SMOOTH",
"480 479 OFFCURVE",
"501 434 OFFCURVE",
"484 353 CURVE SMOOTH"
);
}
);
width = 705;
}
);
note = D;
rightKerningGroup = D;
unicode = 0044;
},
{
glyphname = Eth;
lastChange = "2015-10-29 02:55:23 +0000";
layers = (
{
layerId = "EF7A456C-05AE-460A-9046-2BAC18FBC939";
name = Bold;
paths = (
{
closed = 1;
nodes = (
"41 266 LINE",
"82 266 LINE",
"26 0 LINE",
"294 0 LINE SMOOTH",
"547 0 OFFCURVE",
"708 115 OFFCURVE",
"756 353 CURVE SMOOTH",
"797 557 OFFCURVE",
"661 699 OFFCURVE",
"434 699 CURVE SMOOTH",
"174 699 LINE",
"118 433 LINE",
"77 433 LINE"
);
},
{
closed = 1;
nodes = (
"495 261 OFFCURVE",
"447 220 OFFCURVE",
"356 220 CURVE SMOOTH",
"309 220 LINE",
"319 266 LINE",
"424 266 LINE",
"460 433 LINE",
"354 433 LINE",
"364 479 LINE",
"411 479 LINE SMOOTH",
"511 479 OFFCURVE",
"532 434 OFFCURVE",
"515 353 CURVE SMOOTH"
);
}
);
width = 736;
}
);
note = Eth;
rightKerningGroup = D;
unicode = 00D0;
},
{
glyphname = Dcaron;
lastChange = "2015-10-29 02:55:24 +0000";
layers = (
{
layerId = "EF7A456C-05AE-460A-9046-2BAC18FBC939";
name = Bold;
paths = (
{
closed = 1;
nodes = (
"677 115 OFFCURVE",
"516 0 OFFCURVE",
"263 0 CURVE SMOOTH",
"-5 0 LINE",
"143 699 LINE",
"403 699 LINE SMOOTH",
"630 699 OFFCURVE",
"766 557 OFFCURVE",
"725 353 CURVE SMOOTH"
);
},
{
closed = 1;
nodes = (
"501 434 OFFCURVE",
"480 479 OFFCURVE",
"380 479 CURVE SMOOTH",
"333 479 LINE",
"278 220 LINE",
"325 220 LINE SMOOTH",
"416 220 OFFCURVE",
"464 261 OFFCURVE",
"484 353 CURVE SMOOTH"
);
},
{
closed = 1;
nodes = (
"517 742 LINE",
"722 933 LINE",
"511 933 LINE",
"435 853 LINE",
"393 933 LINE",
"191 933 LINE",
"315 742 LINE"
);
}
);
width = 705;
}
);
note = Dcaron;
rightKerningGroup = D;
unicode = 010E;
},
{
glyphname = Dcroat;
lastChange = "2015-10-29 02:55:27 +0000";
layers = (
{
layerId = "EF7A456C-05AE-460A-9046-2BAC18FBC939";
name = Bold;
paths = (
{
closed = 1;
nodes = (
"41 266 LINE",
"82 266 LINE",
"26 0 LINE",
"294 0 LINE SMOOTH",
"547 0 OFFCURVE",
"708 115 OFFCURVE",
"756 353 CURVE SMOOTH",
"797 557 OFFCURVE",
"661 699 OFFCURVE",
"434 699 CURVE SMOOTH",
"174 699 LINE",
"118 433 LINE",
"77 433 LINE"
);
},
{
closed = 1;
nodes = (
"495 261 OFFCURVE",
"447 220 OFFCURVE",
"356 220 CURVE SMOOTH",
"309 220 LINE",
"319 266 LINE",
"424 266 LINE",
"460 433 LINE",
"354 433 LINE",
"364 479 LINE",
"411 479 LINE SMOOTH",
"511 479 OFFCURVE",
"532 434 OFFCURVE",
"515 353 CURVE SMOOTH"
);
}
);
width = 736;
}
);
note = Dcroat;
rightKerningGroup = D;
unicode = 0110;
},
{
glyphname = Ddotbelow;
lastChange = "2015-10-29 02:55:26 +0000";
layers = (
{
layerId = "EF7A456C-05AE-460A-9046-2BAC18FBC939";
name = Bold;
paths = (
{
closed = 1;
nodes = (
"766 557 OFFCURVE",
"630 699 OFFCURVE",
"403 699 CURVE SMOOTH",
"143 699 LINE",
"-5 0 LINE",
"263 0 LINE SMOOTH",
"516 0 OFFCURVE",
"677 115 OFFCURVE",
"725 353 CURVE SMOOTH"
);
},
{
closed = 1;
nodes = (
"464 261 OFFCURVE",
"416 220 OFFCURVE",
"325 220 CURVE SMOOTH",
"278 220 LINE",
"333 479 LINE",
"380 479 LINE SMOOTH",
"480 479 OFFCURVE",
"501 434 OFFCURVE",
"484 353 CURVE SMOOTH"
);
},
{
closed = 1;
nodes = (
"154 -182 OFFCURVE",
"187 -220 OFFCURVE",
"234 -220 CURVE SMOOTH",
"281 -220 OFFCURVE",
"328 -182 OFFCURVE",
"338 -133 CURVE SMOOTH",
"349 -84 OFFCURVE",
"318 -45 OFFCURVE",
"271 -45 CURVE SMOOTH",
"224 -45 OFFCURVE",
"175 -84 OFFCURVE",
"164 -133 CURVE SMOOTH"
);
}
);
width = 705;
}
);
note = Ddotbelow;
rightKerningGroup = D;
unicode = 1E0C;
},
{
glyphname = Dlinebelow;
lastChange = "2015-10-29 02:55:23 +0000";
layers = (
{
layerId = "EF7A456C-05AE-460A-9046-2BAC18FBC939";
name = Bold;
paths = (
{
closed = 1;
nodes = (
"766 557 OFFCURVE",
"630 699 OFFCURVE",
"403 699 CURVE SMOOTH",
"143 699 LINE",
"-5 0 LINE",
"263 0 LINE SMOOTH",
"516 0 OFFCURVE",
"677 115 OFFCURVE",
"725 353 CURVE SMOOTH"
);
},
{
closed = 1;
nodes = (
"464 261 OFFCURVE",
"416 220 OFFCURVE",
"325 220 CURVE SMOOTH",
"278 220 LINE",
"333 479 LINE",
"380 479 LINE SMOOTH",
"480 479 OFFCURVE",
"501 434 OFFCURVE",
"484 353 CURVE SMOOTH"
);
},
{
closed = 1;
nodes = (
"415 -192 LINE",
"445 -49 LINE",
"79 -49 LINE",
"49 -192 LINE"
);
}
);
width = 705;
}
);
note = Dlinebelow;
rightKerningGroup = D;
unicode = 1E0E;
},
{
glyphname = E;
lastChange = "2015-10-29 02:55:27 +0000";
layers = (
{
layerId = "EF7A456C-05AE-460A-9046-2BAC18FBC939";
name = Bold;
paths = (
{
closed = 1;
nodes = (
"338 500 LINE",
"619 500 LINE",
"661 699 LINE",
"143 699 LINE",
"-5 0 LINE",
"513 0 LINE",
"555 199 LINE",
"274 199 LINE",
"287 260 LINE",
"486 260 LINE",
"524 439 LINE",
"325 439 LINE"
);
}
);
width = 558;
}
);
leftKerningGroup = E;
note = E;
rightKerningGroup = E;
unicode = 0045;
},
{
glyphname = Eacute;
lastChange = "2015-10-29 02:55:23 +0000";
layers = (
{
layerId = "EF7A456C-05AE-460A-9046-2BAC18FBC939";
name = Bold;
paths = (
{
closed = 1;
nodes = (
"338 500 LINE",
"619 500 LINE",
"661 699 LINE",
"143 699 LINE",
"-5 0 LINE",
"513 0 LINE",
"555 199 LINE",
"274 199 LINE",
"287 260 LINE",
"486 260 LINE",
"524 439 LINE",
"325 439 LINE"
);
},
{
closed = 1;
nodes = (
"477 742 LINE",
"610 923 LINE",
"393 923 LINE",
"287 742 LINE"
);
}
);
width = 558;
}
);
leftKerningGroup = E;
note = Eacute;
rightKerningGroup = E;
unicode = 00C9;
},
{
glyphname = Ebreve;
lastChange = "2015-10-29 02:55:24 +0000";
layers = (
{
layerId = "EF7A456C-05AE-460A-9046-2BAC18FBC939";
name = Bold;
paths = (
{
closed = 1;
nodes = (
"338 500 LINE",
"619 500 LINE",
"661 699 LINE",
"143 699 LINE",
"-5 0 LINE",
"513 0 LINE",
"555 199 LINE",
"274 199 LINE",
"287 260 LINE",
"486 260 LINE",
"524 439 LINE",
"325 439 LINE"
);
},
{
closed = 1;
nodes = (
"517 742 OFFCURVE",
"605 816 OFFCURVE",
"630 937 CURVE",
"459 937 LINE",
"451 898 OFFCURVE",
"434 879 OFFCURVE",
"409 879 CURVE SMOOTH",
"384 879 OFFCURVE",
"375 898 OFFCURVE",
"383 937 CURVE",
"221 937 LINE",
"196 816 OFFCURVE",
"252 742 OFFCURVE",
"384 742 CURVE SMOOTH"
);
}
);
width = 568;
}
);
leftKerningGroup = E;
note = Ebreve;
rightKerningGroup = E;
unicode = 0114;
},
{
glyphname = Ecaron;
lastChange = "2015-10-29 02:55:23 +0000";
layers = (
{
layerId = "EF7A456C-05AE-460A-9046-2BAC18FBC939";
name = Bold;
paths = (
{
closed = 1;
nodes = (
"343 500 LINE",
"624 500 LINE",
"666 699 LINE",
"148 699 LINE",
"0 0 LINE",
"518 0 LINE",
"560 199 LINE",
"279 199 LINE",
"292 260 LINE",
"491 260 LINE",
"529 439 LINE",
"330 439 LINE"
);
},
{
closed = 1;
nodes = (
"499 742 LINE",
"704 933 LINE",
"493 933 LINE",
"417 853 LINE",
"375 933 LINE",
"173 933 LINE",
"297 742 LINE"
);
}
);
width = 573;
}
);
leftKerningGroup = E;
note = Ecaron;
rightKerningGroup = E;
unicode = 011A;
},
{
glyphname = Ecircumflex;
lastChange = "2015-10-29 02:55:26 +0000";
layers = (
{
layerId = "EF7A456C-05AE-460A-9046-2BAC18FBC939";
name = Bold;
paths = (
{
closed = 1;
nodes = (
"347 500 LINE",
"628 500 LINE",
"670 699 LINE",
"152 699 LINE",
"4 0 LINE",
"522 0 LINE",
"564 199 LINE",
"283 199 LINE",
"296 260 LINE",
"495 260 LINE",
"533 439 LINE",
"334 439 LINE"
);
},
{
closed = 1;
nodes = (
"335 923 LINE",
"131 732 LINE",
"341 732 LINE",
"417 812 LINE",
"459 732 LINE",
"662 732 LINE",
"537 923 LINE"
);
}
);
width = 567;
}
);
leftKerningGroup = E;
note = Ecircumflex;
rightKerningGroup = E;
unicode = 00CA;
},
{
glyphname = Ecircumflexacute;
lastChange = "2015-10-29 02:55:27 +0000";
layers = (
{
layerId = "EF7A456C-05AE-460A-9046-2BAC18FBC939";
name = Bold;
paths = (
{
closed = 1;
nodes = (
"338 500 LINE",
"619 500 LINE",
"661 699 LINE",
"143 699 LINE",
"-5 0 LINE",
"513 0 LINE",
"555 199 LINE",
"274 199 LINE",
"287 260 LINE",
"486 260 LINE",
"524 439 LINE",
"325 439 LINE"
);
},
{
closed = 1;
nodes = (
"378 903 LINE",
"179 742 LINE",
"371 742 LINE",
"425 792 LINE",
"459 742 LINE",
"650 742 LINE",
"520 903 LINE"
);
},
{
closed = 1;
nodes = (
"763 875 LINE",
"879 1024 LINE",
"672 1024 LINE",
"583 875 LINE"
);
}
);
width = 558;
}
);
leftKerningGroup = E;
note = Ecircumflexacute;
rightKerningGroup = E;
unicode = 1EBE;
},
{
glyphname = Ecircumflexdotbelow;
lastChange = "2015-10-29 02:55:26 +0000";
layers = (
{
layerId = "EF7A456C-05AE-460A-9046-2BAC18FBC939";
name = Bold;
paths = (
{
closed = 1;
nodes = (
"341 500 LINE",
"622 500 LINE",
"664 699 LINE",
"146 699 LINE",
"-2 0 LINE",
"516 0 LINE",
"558 199 LINE",
"277 199 LINE",
"290 260 LINE",
"489 260 LINE",
"527 439 LINE",
"328 439 LINE"
);
},
{
closed = 1;
nodes = (
"136 -182 OFFCURVE",
"169 -220 OFFCURVE",
"216 -220 CURVE SMOOTH",
"263 -220 OFFCURVE",
"310 -182 OFFCURVE",
"320 -133 CURVE SMOOTH",
"331 -84 OFFCURVE",
"300 -45 OFFCURVE",
"253 -45 CURVE SMOOTH",
"206 -45 OFFCURVE",
"157 -84 OFFCURVE",
"146 -133 CURVE SMOOTH"
);
},
{
closed = 1;
nodes = (
"337 933 LINE",
"133 742 LINE",
"343 742 LINE",
"419 822 LINE",
"461 742 LINE",
"664 742 LINE",
"539 933 LINE"
);
}
);
width = 573;
}
);
leftKerningGroup = E;
note = Ecircumflexdotbelow;
rightKerningGroup = E;
unicode = 1EC6;
},
{
glyphname = Ecircumflexgrave;
lastChange = "2015-10-29 02:55:24 +0000";
layers = (
{
layerId = "EF7A456C-05AE-460A-9046-2BAC18FBC939";
name = Bold;
paths = (
{
closed = 1;
nodes = (
"338 500 LINE",
"619 500 LINE",
"661 699 LINE",
"143 699 LINE",
"-5 0 LINE",
"513 0 LINE",
"555 199 LINE",
"274 199 LINE",
"287 260 LINE",
"486 260 LINE",
"524 439 LINE",
"325 439 LINE"
);
},
{
closed = 1;
nodes = (
"378 903 LINE",
"179 742 LINE",
"371 742 LINE",
"425 792 LINE",
"459 742 LINE",
"650 742 LINE",
"519 903 LINE"
);
},
{
closed = 1;
nodes = (
"302 875 LINE",
"277 1024 LINE",
"70 1024 LINE",
"122 875 LINE"
);
}
);
width = 558;
}
);
leftKerningGroup = E;
note = Ecircumflexgrave;
rightKerningGroup = E;
unicode = 1EC0;
},
{
glyphname = Ecircumflexhookabove;
lastChange = "2015-10-29 02:55:26 +0000";
layers = (
{
layerId = "EF7A456C-05AE-460A-9046-2BAC18FBC939";
name = Bold;
paths = (
{
closed = 1;
nodes = (
"338 500 LINE",
"619 500 LINE",
"661 699 LINE",
"143 699 LINE",
"-5 0 LINE",
"513 0 LINE",
"555 199 LINE",
"274 199 LINE",
"287 260 LINE",
"486 260 LINE",
"524 439 LINE",
"325 439 LINE"
);
},
{
closed = 1;
nodes = (
"362 903 LINE",
"163 742 LINE",
"355 742 LINE",
"409 792 LINE",
"443 742 LINE",
"634 742 LINE",
"504 903 LINE"
);
},
{
closed = 1;
nodes = (
"776 1001 OFFCURVE",
"743 1032 OFFCURVE",
"662 1032 CURVE SMOOTH",
"632 1032 OFFCURVE",
"586 1026 OFFCURVE",
"561 1019 CURVE",
"546 950 LINE",
"555 954 OFFCURVE",
"569 956 OFFCURVE",
"579 956 CURVE SMOOTH",
"605 956 OFFCURVE",
"616 948 OFFCURVE",
"613 936 CURVE",
"610 920 OFFCURVE",
"590 915 OFFCURVE",
"563 915 CURVE",
"552 863 LINE",
"689 863 LINE",
"694 889 LINE",
"732 901 OFFCURVE",
"759 922 OFFCURVE",
"766 955 CURVE SMOOTH"
);
}
);
width = 558;
}
);
leftKerningGroup = E;
note = Ecircumflexhookabove;
rightKerningGroup = E;
unicode = 1EC2;
},
{
glyphname = Ecircumflextilde;
lastChange = "2015-10-29 02:55:24 +0000";
layers = (
{
layerId = "EF7A456C-05AE-460A-9046-2BAC18FBC939";
name = Bold;
paths = (
{
closed = 1;
nodes = (
"338 500 LINE",
"619 500 LINE",
"661 699 LINE",
"143 699 LINE",
"-5 0 LINE",
"513 0 LINE",
"555 199 LINE",
"274 199 LINE",
"287 260 LINE",
"486 260 LINE",
"524 439 LINE",
"325 439 LINE"
);
},
{
closed = 1;
nodes = (
"369 903 LINE",
"170 742 LINE",
"362 742 LINE",
"416 792 LINE",
"450 742 LINE",
"641 742 LINE",
"511 903 LINE"
);
},
{
closed = 1;
nodes = (
"506 1020 OFFCURVE",
"457 1060 OFFCURVE",
"402 1060 CURVE SMOOTH",
"365 1060 OFFCURVE",
"333 1051 OFFCURVE",
"308 1028 CURVE",
"284 915 LINE",
"314 942 OFFCURVE",
"347 954 OFFCURVE",
"380 954 CURVE SMOOTH",
"432 954 OFFCURVE",
"477 914 OFFCURVE",
"535 914 CURVE SMOOTH",
"572 914 OFFCURVE",
"604 923 OFFCURVE",
"630 946 CURVE",
"654 1059 LINE",
"623 1032 OFFCURVE",
"591 1020 OFFCURVE",
"558 1020 CURVE SMOOTH"
);
}
);
width = 558;
}
);
leftKerningGroup = E;
note = Ecircumflextilde;
rightKerningGroup = E;
unicode = 1EC4;
},
{
glyphname = Edieresis;
lastChange = "2015-10-29 02:55:25 +0000";
layers = (
{
layerId = "EF7A456C-05AE-460A-9046-2BAC18FBC939";
name = Bold;
paths = (
{
closed = 1;
nodes = (
"338 500 LINE",
"619 500 LINE",
"661 699 LINE",
"143 699 LINE",
"-5 0 LINE",
"513 0 LINE",
"555 199 LINE",
"274 199 LINE",
"287 260 LINE",
"486 260 LINE",
"524 439 LINE",
"325 439 LINE"
);
},
{
closed = 1;
nodes = (
"207 780 OFFCURVE",
"240 742 OFFCURVE",
"286 742 CURVE SMOOTH",
"334 742 OFFCURVE",
"381 780 OFFCURVE",
"391 829 CURVE SMOOTH",
"402 878 OFFCURVE",
"371 917 OFFCURVE",
"323 917 CURVE SMOOTH",
"277 917 OFFCURVE",
"228 878 OFFCURVE",
"217 829 CURVE SMOOTH"
);
},
{
closed = 1;
nodes = (
"441 780 OFFCURVE",
"473 742 OFFCURVE",
"521 742 CURVE SMOOTH",
"568 742 OFFCURVE",
"615 780 OFFCURVE",
"625 829 CURVE SMOOTH",
"636 878 OFFCURVE",
"605 917 OFFCURVE",
"558 917 CURVE SMOOTH",
"510 917 OFFCURVE",
"462 878 OFFCURVE",
"451 829 CURVE SMOOTH"
);
}
);
width = 568;
}
);
leftKerningGroup = E;
note = Edieresis;
rightKerningGroup = E;
unicode = 00CB;
},
{
glyphname = Edotaccent;
lastChange = "2015-10-29 02:55:27 +0000";
layers = (
{
layerId = "EF7A456C-05AE-460A-9046-2BAC18FBC939";
name = Bold;
paths = (
{
closed = 1;
nodes = (
"338 500 LINE",
"619 500 LINE",
"661 699 LINE",
"143 699 LINE",
"-5 0 LINE",
"513 0 LINE",
"555 199 LINE",
"274 199 LINE",
"287 260 LINE",
"486 260 LINE",
"524 439 LINE",
"325 439 LINE"
);
},
{
closed = 1;
nodes = (
"304 780 OFFCURVE",
"337 742 OFFCURVE",
"384 742 CURVE SMOOTH",
"432 742 OFFCURVE",
"479 780 OFFCURVE",
"489 829 CURVE SMOOTH",
"500 878 OFFCURVE",
"469 917 OFFCURVE",
"421 917 CURVE SMOOTH",
"374 917 OFFCURVE",
"325 878 OFFCURVE",
"314 829 CURVE SMOOTH"
);
}
);
width = 568;
}
);
leftKerningGroup = E;
note = Edotaccent;
rightKerningGroup = E;
unicode = 0116;
},
{
glyphname = Edotbelow;
lastChange = "2015-10-29 02:55:27 +0000";
layers = (
{
layerId = "EF7A456C-05AE-460A-9046-2BAC18FBC939";
name = Bold;
paths = (
{
closed = 1;
nodes = (
"338 500 LINE",
"619 500 LINE",
"661 699 LINE",
"143 699 LINE",
"-5 0 LINE",
"513 0 LINE",
"555 199 LINE",
"274 199 LINE",
"287 260 LINE",
"486 260 LINE",
"524 439 LINE",
"325 439 LINE"
);
},
{
closed = 1;
nodes = (
"113 -182 OFFCURVE",
"146 -220 OFFCURVE",
"193 -220 CURVE SMOOTH",
"240 -220 OFFCURVE",
"287 -182 OFFCURVE",
"297 -133 CURVE SMOOTH",
"308 -84 OFFCURVE",
"277 -45 OFFCURVE",
"230 -45 CURVE SMOOTH",
"183 -45 OFFCURVE",
"134 -84 OFFCURVE",
"123 -133 CURVE SMOOTH"
);
}
);
width = 568;
}
);
leftKerningGroup = E;
note = Edotbelow;
rightKerningGroup = E;
unicode = 1EB8;
},
{
glyphname = Egrave;
lastChange = "2015-10-29 02:55:27 +0000";
layers = (
{
layerId = "EF7A456C-05AE-460A-9046-2BAC18FBC939";
name = Bold;
paths = (
{
closed = 1;
nodes = (
"338 500 LINE",
"619 500 LINE",
"661 699 LINE",
"143 699 LINE",
"-5 0 LINE",
"513 0 LINE",
"555 199 LINE",
"274 199 LINE",
"287 260 LINE",
"486 260 LINE",
"524 439 LINE",
"325 439 LINE"
);
},
{
closed = 1;
nodes = (
"498 742 LINE",
"468 923 LINE",
"251 923 LINE",
"308 742 LINE"
);
}
);
width = 568;
}
);
leftKerningGroup = E;
note = Egrave;
rightKerningGroup = E;
unicode = 00C8;
},
{
glyphname = Ehookabove;
lastChange = "2015-10-29 02:55:26 +0000";
layers = (
{
layerId = "EF7A456C-05AE-460A-9046-2BAC18FBC939";
name = Bold;
paths = (
{
closed = 1;
nodes = (
"338 500 LINE",
"619 500 LINE",
"661 699 LINE",
"143 699 LINE",
"-5 0 LINE",
"513 0 LINE",
"555 199 LINE",
"274 199 LINE",
"287 260 LINE",
"486 260 LINE",
"524 439 LINE",
"325 439 LINE"
);
},
{
closed = 1;
nodes = (
"600 940 OFFCURVE",
"551 981 OFFCURVE",
"432 981 CURVE SMOOTH",
"388 981 OFFCURVE",
"323 972 OFFCURVE",
"287 962 CURVE",
"269 877 LINE",
"282 881 OFFCURVE",
"307 886 OFFCURVE",
"327 886 CURVE SMOOTH",
"368 886 OFFCURVE",
"384 876 OFFCURVE",
"380 854 CURVE",
"374 827 OFFCURVE",
"352 816 OFFCURVE",
"296 816 CURVE",
"280 742 LINE",
"467 742 LINE",
"475 782 LINE",
"532 798 OFFCURVE",
"575 825 OFFCURVE",
"587 877 CURVE SMOOTH"
);
}
);
width = 568;
}
);
leftKerningGroup = E;
note = Ehookabove;
rightKerningGroup = E;
unicode = 1EBA;
},
{
glyphname = Emacron;
lastChange = "2015-10-29 02:55:25 +0000";
layers = (
{
layerId = "EF7A456C-05AE-460A-9046-2BAC18FBC939";
name = Bold;
paths = (
{
closed = 1;
nodes = (
"338 500 LINE",
"619 500 LINE",
"661 699 LINE",
"143 699 LINE",
"-5 0 LINE",
"513 0 LINE",
"555 199 LINE",
"274 199 LINE",
"287 260 LINE",
"486 260 LINE",
"524 439 LINE",
"325 439 LINE"
);
},
{
closed = 1;
nodes = (
"578 742 LINE",
"609 885 LINE",
"243 885 LINE",
"212 742 LINE"
);
}
);
width = 568;
}
);
leftKerningGroup = E;
note = Emacron;
rightKerningGroup = E;
unicode = 0112;
},
{
glyphname = Eogonek;
lastChange = "2015-10-29 02:55:27 +0000";
layers = (
{
layerId = "EF7A456C-05AE-460A-9046-2BAC18FBC939";
name = Bold;
paths = (
{
closed = 1;
nodes = (
"380 -219 OFFCURVE",
"432 -212 OFFCURVE",
"466 -202 CURVE",
"491 -82 LINE",
"473 -90 OFFCURVE",
"455 -95 OFFCURVE",
"439 -95 CURVE SMOOTH",
"422 -95 OFFCURVE",
"415 -86 OFFCURVE",
"418 -72 CURVE SMOOTH",
"424 -45 OFFCURVE",
"450 -26 OFFCURVE",
"513 0 CURVE",
"555 199 LINE",
"274 199 LINE",
"287 260 LINE",
"486 260 LINE",
"524 439 LINE",
"325 439 LINE",
"338 500 LINE",
"619 500 LINE",
"661 699 LINE",
"143 699 LINE",
"-5 0 LINE",
"308 0 LINE",
"261 -24 OFFCURVE",
"226 -63 OFFCURVE",
"215 -116 CURVE SMOOTH",
"199 -189 OFFCURVE",
"253 -219 OFFCURVE",
"335 -219 CURVE SMOOTH"
);
}
);
width = 568;
}
);
leftKerningGroup = E;
note = Eogonek;
rightKerningGroup = E;
unicode = 0118;
},
{
glyphname = Etilde;
lastChange = "2015-10-29 02:55:27 +0000";
layers = (
{
layerId = "EF7A456C-05AE-460A-9046-2BAC18FBC939";
name = Bold;
paths = (
{
closed = 1;
nodes = (
"338 500 LINE",
"619 500 LINE",
"661 699 LINE",
"143 699 LINE",
"-5 0 LINE",
"513 0 LINE",
"555 199 LINE",
"274 199 LINE",
"287 260 LINE",
"486 260 LINE",
"524 439 LINE",
"325 439 LINE"
);
},
{
closed = 1;
nodes = (
"471 886 OFFCURVE",
"411 936 OFFCURVE",
"343 936 CURVE SMOOTH",
"297 936 OFFCURVE",
"256 925 OFFCURVE",
"224 896 CURVE",
"192 743 LINE",
"230 777 OFFCURVE",
"270 792 OFFCURVE",
"312 792 CURVE SMOOTH",
"376 792 OFFCURVE",
"432 742 OFFCURVE",
"505 742 CURVE SMOOTH",
"551 742 OFFCURVE",
"591 753 OFFCURVE",
"623 782 CURVE",
"655 935 LINE",
"617 901 OFFCURVE",
"578 886 OFFCURVE",
"536 886 CURVE SMOOTH"
);
}
);
width = 568;
}
);
leftKerningGroup = E;
note = Etilde;
rightKerningGroup = E;
unicode = 1EBC;
},
{
glyphname = F;
lastChange = "2015-10-29 02:55:27 +0000";
layers = (
{
layerId = "EF7A456C-05AE-460A-9046-2BAC18FBC939";
name = Bold;
paths = (
{
closed = 1;
nodes = (
"232 0 LINE",
"287 260 LINE",
"486 260 LINE",
"524 439 LINE",
"325 439 LINE",
"338 500 LINE",
"619 500 LINE",
"661 699 LINE",
"143 699 LINE",
"-5 0 LINE"
);
}
);
width = 548;
}
);
note = F;
unicode = 0046;
},
{
glyphname = G;
lastChange = "2015-10-29 02:55:23 +0000";
layers = (
{
layerId = "EF7A456C-05AE-460A-9046-2BAC18FBC939";
name = Bold;
paths = (
{
closed = 1;
nodes = (
"288 193 OFFCURVE",
"268 251 OFFCURVE",
"289 349 CURVE SMOOTH",
"309 446 OFFCURVE",
"387 497 OFFCURVE",
"488 497 CURVE SMOOTH",
"582 497 OFFCURVE",
"650 480 OFFCURVE",
"699 437 CURVE",
"747 659 LINE",
"687 698 OFFCURVE",
"617 714 OFFCURVE",
"513 714 CURVE SMOOTH",
"275 714 OFFCURVE",
"97 577 OFFCURVE",
"49 349 CURVE SMOOTH",
"0 122 OFFCURVE",
"141 -15 OFFCURVE",
"358 -15 CURVE SMOOTH",
"472 -15 OFFCURVE",
"565 5 OFFCURVE",
"641 44 CURVE",
"717 403 LINE",
"432 403 LINE",
"403 267 LINE",
"480 267 LINE",
"466 201 LINE",
"454 197 OFFCURVE",
"432 193 OFFCURVE",
"413 193 CURVE SMOOTH"
);
}
);
width = 687;
}
);
leftKerningGroup = C;
note = G;
unicode = 0047;
},
{
glyphname = Gbreve;
lastChange = "2015-10-29 02:55:27 +0000";
layers = (
{
layerId = "EF7A456C-05AE-460A-9046-2BAC18FBC939";
name = Bold;
paths = (
{
closed = 1;
nodes = (
"288 193 OFFCURVE",
"268 251 OFFCURVE",
"289 349 CURVE SMOOTH",
"309 446 OFFCURVE",
"387 497 OFFCURVE",
"488 497 CURVE SMOOTH",
"582 497 OFFCURVE",
"650 480 OFFCURVE",
"699 437 CURVE",
"747 659 LINE",
"687 698 OFFCURVE",
"617 714 OFFCURVE",
"513 714 CURVE SMOOTH",
"275 714 OFFCURVE",
"97 577 OFFCURVE",
"49 349 CURVE SMOOTH",
"0 122 OFFCURVE",
"141 -15 OFFCURVE",
"358 -15 CURVE SMOOTH",
"472 -15 OFFCURVE",
"565 5 OFFCURVE",
"641 44 CURVE",
"717 403 LINE",
"432 403 LINE",
"403 267 LINE",
"480 267 LINE",
"466 201 LINE",
"454 197 OFFCURVE",
"432 193 OFFCURVE",
"413 193 CURVE SMOOTH"
);
},
{
closed = 1;
nodes = (
"641 742 OFFCURVE",
"729 816 OFFCURVE",
"754 937 CURVE",
"583 937 LINE",
"575 898 OFFCURVE",
"558 879 OFFCURVE",
"533 879 CURVE SMOOTH",
"508 879 OFFCURVE",
"499 898 OFFCURVE",
"507 937 CURVE",
"345 937 LINE",
"320 816 OFFCURVE",
"376 742 OFFCURVE",
"508 742 CURVE SMOOTH"
);
}
);
width = 687;
}
);
leftKerningGroup = C;
note = Gbreve;
unicode = 011E;
},
{
glyphname = Gcaron;
lastChange = "2015-10-29 02:55:24 +0000";
layers = (
{
layerId = "EF7A456C-05AE-460A-9046-2BAC18FBC939";
name = Bold;
paths = (
{
closed = 1;
nodes = (
"288 193 OFFCURVE",
"268 251 OFFCURVE",
"289 349 CURVE SMOOTH",
"309 446 OFFCURVE",
"387 497 OFFCURVE",
"488 497 CURVE SMOOTH",
"582 497 OFFCURVE",
"650 480 OFFCURVE",
"699 437 CURVE",
"747 659 LINE",
"687 698 OFFCURVE",
"617 714 OFFCURVE",
"513 714 CURVE SMOOTH",
"275 714 OFFCURVE",
"97 577 OFFCURVE",
"49 349 CURVE SMOOTH",
"0 122 OFFCURVE",
"141 -15 OFFCURVE",
"358 -15 CURVE SMOOTH",
"472 -15 OFFCURVE",
"565 5 OFFCURVE",
"641 44 CURVE",
"717 403 LINE",
"432 403 LINE",
"403 267 LINE",
"480 267 LINE",
"466 201 LINE",
"454 197 OFFCURVE",
"432 193 OFFCURVE",
"413 193 CURVE SMOOTH"
);
},
{
closed = 1;
nodes = (
"539 742 LINE",
"744 933 LINE",
"533 933 LINE",
"457 853 LINE",
"415 933 LINE",
"213 933 LINE",
"337 742 LINE"
);
}
);
width = 687;
}
);
leftKerningGroup = C;
note = Gcaron;
unicode = 01E6;
},
{
glyphname = Gcircumflex;
lastChange = "2015-10-29 02:55:24 +0000";
layers = (
{
layerId = "EF7A456C-05AE-460A-9046-2BAC18FBC939";
name = Bold;
paths = (
{
closed = 1;
nodes = (
"288 193 OFFCURVE",
"268 251 OFFCURVE",
"289 349 CURVE SMOOTH",
"309 446 OFFCURVE",
"387 497 OFFCURVE",
"488 497 CURVE SMOOTH",
"582 497 OFFCURVE",
"650 480 OFFCURVE",
"699 437 CURVE",
"747 659 LINE",
"687 698 OFFCURVE",
"617 714 OFFCURVE",
"513 714 CURVE SMOOTH",
"275 714 OFFCURVE",
"97 577 OFFCURVE",
"49 349 CURVE SMOOTH",
"0 122 OFFCURVE",
"141 -15 OFFCURVE",
"358 -15 CURVE SMOOTH",
"472 -15 OFFCURVE",
"565 5 OFFCURVE",
"641 44 CURVE",
"717 403 LINE",
"432 403 LINE",
"403 267 LINE",
"480 267 LINE",
"466 201 LINE",
"454 197 OFFCURVE",
"432 193 OFFCURVE",
"413 193 CURVE SMOOTH"
);
},
{
closed = 1;
nodes = (
"420 933 LINE",
"216 742 LINE",
"426 742 LINE",
"502 822 LINE",
"544 742 LINE",
"747 742 LINE",
"622 933 LINE"
);
}
);
width = 687;
}
);
leftKerningGroup = C;
note = Gcircumflex;
unicode = 011C;
},
{
glyphname = Gcommaaccent;
lastChange = "2015-10-29 02:55:24 +0000";
layers = (
{
layerId = "EF7A456C-05AE-460A-9046-2BAC18FBC939";
name = Bold;
paths = (
{
closed = 1;
nodes = (
"288 193 OFFCURVE",
"268 251 OFFCURVE",
"289 349 CURVE SMOOTH",
"309 446 OFFCURVE",
"387 497 OFFCURVE",
"488 497 CURVE SMOOTH",
"582 497 OFFCURVE",
"650 480 OFFCURVE",
"699 437 CURVE",
"747 659 LINE",
"687 698 OFFCURVE",
"617 714 OFFCURVE",
"513 714 CURVE SMOOTH",
"275 714 OFFCURVE",
"97 577 OFFCURVE",
"49 349 CURVE SMOOTH",
"0 122 OFFCURVE",
"141 -15 OFFCURVE",
"358 -15 CURVE SMOOTH",
"472 -15 OFFCURVE",
"565 5 OFFCURVE",
"641 44 CURVE",
"717 403 LINE",
"432 403 LINE",
"403 267 LINE",
"480 267 LINE",
"466 201 LINE",
"454 197 OFFCURVE",
"432 193 OFFCURVE",
"413 193 CURVE SMOOTH"
);
},
{
closed = 1;
nodes = (
"313 -259 LINE",
"471 -41 LINE",
"259 -41 LINE",
"129 -259 LINE"
);
}
);
width = 687;
}
);
leftKerningGroup = C;
note = Gcommaaccent;
unicode = 0122;
},
{
glyphname = Gdotaccent;
lastChange = "2015-10-29 02:55:27 +0000";
layers = (
{
layerId = "EF7A456C-05AE-460A-9046-2BAC18FBC939";
name = Bold;
paths = (
{
closed = 1;
nodes = (
"288 193 OFFCURVE",
"268 251 OFFCURVE",
"289 349 CURVE SMOOTH",
"309 446 OFFCURVE",
"387 497 OFFCURVE",
"488 497 CURVE SMOOTH",
"582 497 OFFCURVE",
"650 480 OFFCURVE",
"699 437 CURVE",
"747 659 LINE",
"687 698 OFFCURVE",
"617 714 OFFCURVE",
"513 714 CURVE SMOOTH",
"275 714 OFFCURVE",
"97 577 OFFCURVE",
"49 349 CURVE SMOOTH",
"0 122 OFFCURVE",
"141 -15 OFFCURVE",
"358 -15 CURVE SMOOTH",
"472 -15 OFFCURVE",
"565 5 OFFCURVE",
"641 44 CURVE",
"717 403 LINE",
"432 403 LINE",
"403 267 LINE",
"480 267 LINE",
"466 201 LINE",
"454 197 OFFCURVE",
"432 193 OFFCURVE",
"413 193 CURVE SMOOTH"
);
},
{
closed = 1;
nodes = (
"429 780 OFFCURVE",
"462 742 OFFCURVE",
"509 742 CURVE SMOOTH",
"557 742 OFFCURVE",
"604 780 OFFCURVE",
"614 829 CURVE SMOOTH",
"625 878 OFFCURVE",
"594 917 OFFCURVE",
"546 917 CURVE SMOOTH",
"499 917 OFFCURVE",
"450 878 OFFCURVE",
"439 829 CURVE SMOOTH"
);
}
);
width = 687;
}
);
leftKerningGroup = C;
note = Gdotaccent;
unicode = 0120;
},
{
glyphname = Gmacron;
lastChange = "2015-10-29 02:55:26 +0000";
layers = (
{
layerId = "EF7A456C-05AE-460A-9046-2BAC18FBC939";
name = Bold;
paths = (
{
closed = 1;
nodes = (
"288 193 OFFCURVE",
"268 251 OFFCURVE",
"289 349 CURVE SMOOTH",
"309 446 OFFCURVE",
"387 497 OFFCURVE",
"488 497 CURVE SMOOTH",
"582 497 OFFCURVE",
"650 480 OFFCURVE",
"699 437 CURVE",
"747 659 LINE",
"687 698 OFFCURVE",
"617 714 OFFCURVE",
"513 714 CURVE SMOOTH",
"275 714 OFFCURVE",
"97 577 OFFCURVE",
"49 349 CURVE SMOOTH",
"0 122 OFFCURVE",
"141 -15 OFFCURVE",
"358 -15 CURVE SMOOTH",
"472 -15 OFFCURVE",
"565 5 OFFCURVE",
"641 44 CURVE",
"717 403 LINE",
"432 403 LINE",
"403 267 LINE",
"480 267 LINE",
"466 201 LINE",
"454 197 OFFCURVE",
"432 193 OFFCURVE",
"413 193 CURVE SMOOTH"
);
},
{
closed = 1;
nodes = (
"673 742 LINE",
"704 885 LINE",
"338 885 LINE",
"307 742 LINE"
);
}
);
width = 687;
}
);
leftKerningGroup = C;
note = Gmacron;
unicode = 1E20;
},
{
glyphname = H;
lastChange = "2015-10-29 02:55:24 +0000";
layers = (
{
layerId = "EF7A456C-05AE-460A-9046-2BAC18FBC939";
name = Bold;
paths = (
{
closed = 1;
nodes = (
"424 0 LINE",
"661 0 LINE",
"809 699 LINE",
"572 699 LINE",
"522 465 LINE",
"330 465 LINE",
"380 699 LINE",
"143 699 LINE",
"-5 0 LINE",
"232 0 LINE",
"284 245 LINE",
"476 245 LINE"
);
}
);
width = 736;
}
);
note = H;
unicode = 0048;
},
{
glyphname = Hbar;
lastChange = "2015-10-29 02:55:24 +0000";
layers = (
{
layerId = "EF7A456C-05AE-460A-9046-2BAC18FBC939";
name = Bold;
paths = (
{
closed = 1;
nodes = (
"94 514 LINE",
"842 514 LINE",
"870 645 LINE",
"122 645 LINE"
);
},
{
closed = 1;
nodes = (
"455 0 LINE",
"692 0 LINE",
"840 699 LINE",
"603 699 LINE",
"553 465 LINE",
"361 465 LINE",
"411 699 LINE",
"174 699 LINE",
"26 0 LINE",
"263 0 LINE",
"315 245 LINE",
"507 245 LINE"
);
}
);
width = 798;
}
);
note = Hbar;
unicode = 0126;
},
{
glyphname = Hbrevebelow;
lastChange = "2015-10-29 02:55:27 +0000";
layers = (
{
layerId = "EF7A456C-05AE-460A-9046-2BAC18FBC939";
name = Bold;
paths = (
{
closed = 1;
nodes = (
"424 0 LINE",
"661 0 LINE",
"809 699 LINE",
"572 699 LINE",
"522 465 LINE",
"330 465 LINE",
"380 699 LINE",
"143 699 LINE",
"-5 0 LINE",
"232 0 LINE",
"284 245 LINE",
"476 245 LINE"
);
},
{
closed = 1;
nodes = (
"144 -244 OFFCURVE",
"87 -170 OFFCURVE",
"113 -49 CURVE",
"276 -49 LINE",
"268 -88 OFFCURVE",
"277 -107 OFFCURVE",
"302 -107 CURVE SMOOTH",
"326 -107 OFFCURVE",
"343 -88 OFFCURVE",
"351 -49 CURVE",
"522 -49 LINE",
"496 -170 OFFCURVE",
"409 -244 OFFCURVE",
"277 -244 CURVE SMOOTH"
);
}
);
width = 736;
}
);
note = Hbrevebelow;
unicode = 1E2A;
},
{
glyphname = Hcircumflex;
lastChange = "2015-10-29 02:55:25 +0000";
layers = (
{
layerId = "EF7A456C-05AE-460A-9046-2BAC18FBC939";
name = Bold;
paths = (
{
closed = 1;
nodes = (
"424 0 LINE",
"661 0 LINE",
"809 699 LINE",
"572 699 LINE",
"522 465 LINE",
"330 465 LINE",
"380 699 LINE",
"143 699 LINE",
"-5 0 LINE",
"232 0 LINE",
"284 245 LINE",
"476 245 LINE"
);
},
{
closed = 1;
nodes = (
"404 933 LINE",
"200 742 LINE",
"410 742 LINE",
"486 822 LINE",
"528 742 LINE",
"731 742 LINE",
"606 933 LINE"
);
}
);
width = 736;
}
);
note = Hcircumflex;
unicode = 0124;
},
{
glyphname = Hdotbelow;
lastChange = "2015-10-29 02:55:26 +0000";
layers = (
{
layerId = "EF7A456C-05AE-460A-9046-2BAC18FBC939";
name = Bold;
paths = (
{
closed = 1;
nodes = (
"424 0 LINE",
"661 0 LINE",
"809 699 LINE",
"572 699 LINE",
"522 465 LINE",
"330 465 LINE",
"380 699 LINE",
"143 699 LINE",
"-5 0 LINE",
"232 0 LINE",
"284 245 LINE",
"476 245 LINE"
);
},
{
closed = 1;
nodes = (
"203 -182 OFFCURVE",
"236 -220 OFFCURVE",
"283 -220 CURVE SMOOTH",
"330 -220 OFFCURVE",
"377 -182 OFFCURVE",
"387 -133 CURVE SMOOTH",
"398 -84 OFFCURVE",
"367 -45 OFFCURVE",
"320 -45 CURVE SMOOTH",
"273 -45 OFFCURVE",
"224 -84 OFFCURVE",
"213 -133 CURVE SMOOTH"
);
}
);
width = 736;
}
);
note = Hdotbelow;
unicode = 1E24;
},
{
glyphname = I;
lastChange = "2015-10-29 02:55:24 +0000";
layers = (
{
layerId = "EF7A456C-05AE-460A-9046-2BAC18FBC939";
name = Bold;
paths = (
{
closed = 1;
nodes = (
"-5 0 LINE",
"232 0 LINE",
"380 699 LINE",
"143 699 LINE"
);
}
);
width = 307;
}
);
note = I;
unicode = 0049;
},
{
glyphname = IJ;
lastChange = "2015-10-29 02:55:26 +0000";
layers = (
{
layerId = "EF7A456C-05AE-460A-9046-2BAC18FBC939";
name = Bold;
paths = (
{
closed = 1;
nodes = (
"-8 0 LINE",
"229 0 LINE",
"377 699 LINE",
"140 699 LINE"
);
},
{
closed = 1;
nodes = (
"782 699 LINE",
"545 699 LINE",
"452 263 LINE SMOOTH",
"442 215 OFFCURVE",
"414 196 OFFCURVE",
"370 196 CURVE SMOOTH",
"338 196 OFFCURVE",
"313 202 OFFCURVE",
"295 213 CURVE",
"253 13 LINE",
"274 -3 OFFCURVE",
"335 -15 OFFCURVE",
"381 -15 CURVE SMOOTH",
"575 -15 OFFCURVE",
"650 77 OFFCURVE",
"684 236 CURVE SMOOTH"
);
}
);
width = 702;
}
);
note = IJ;
rightKerningGroup = J;
unicode = 0132;
},
{
glyphname = Iacute;
lastChange = "2015-10-29 02:55:26 +0000";
layers = (
{
layerId = "EF7A456C-05AE-460A-9046-2BAC18FBC939";
name = Bold;
paths = (
{
closed = 1;
nodes = (
"-5 0 LINE",
"232 0 LINE",
"380 699 LINE",
"143 699 LINE"
);
},
{
closed = 1;
nodes = (
"348 742 LINE",
"481 923 LINE",
"264 923 LINE",
"158 742 LINE"
);
}
);
width = 307;
}
);
note = Iacute;
unicode = 00CD;
},
{
glyphname = Ibreve;
lastChange = "2015-10-29 02:55:24 +0000";
layers = (
{
layerId = "EF7A456C-05AE-460A-9046-2BAC18FBC939";
name = Bold;
paths = (
{
closed = 1;
nodes = (
"-5 0 LINE",
"232 0 LINE",
"380 699 LINE",
"143 699 LINE"
);
},
{
closed = 1;
nodes = (
"383 742 OFFCURVE",
"471 816 OFFCURVE",
"496 937 CURVE",
"325 937 LINE",
"317 898 OFFCURVE",
"300 879 OFFCURVE",
"275 879 CURVE SMOOTH",
"250 879 OFFCURVE",
"241 898 OFFCURVE",
"249 937 CURVE",
"87 937 LINE",
"62 816 OFFCURVE",
"118 742 OFFCURVE",
"250 742 CURVE SMOOTH"
);
}
);
width = 307;
}
);
note = Ibreve;
unicode = 012C;
},
{
glyphname = Icaron;
lastChange = "2015-10-29 02:55:27 +0000";
layers = (
{
layerId = "EF7A456C-05AE-460A-9046-2BAC18FBC939";
name = Bold;
paths = (
{
closed = 1;
nodes = (
"-5 0 LINE",
"232 0 LINE",
"380 699 LINE",
"143 699 LINE"
);
},
{
closed = 1;
nodes = (
"351 742 LINE",
"556 933 LINE",
"345 933 LINE",
"269 853 LINE",
"227 933 LINE",
"25 933 LINE",
"149 742 LINE"
);
}
);
width = 307;
}
);
note = Icaron;
unicode = 01CF;
},
{
glyphname = Icircumflex;
lastChange = "2015-10-29 02:55:25 +0000";
layers = (
{
layerId = "EF7A456C-05AE-460A-9046-2BAC18FBC939";
name = Bold;
paths = (
{
closed = 1;
nodes = (
"-5 0 LINE",
"232 0 LINE",
"380 699 LINE",
"143 699 LINE"
);
},
{
closed = 1;
nodes = (
"187 923 LINE",
"-17 732 LINE",
"193 732 LINE",
"269 812 LINE",
"311 732 LINE",
"514 732 LINE",
"389 923 LINE"
);
}
);
width = 307;
}
);
note = Icircumflex;
unicode = 00CE;
},
{
glyphname = Idieresis;
lastChange = "2015-10-29 02:55:23 +0000";
layers = (
{
layerId = "EF7A456C-05AE-460A-9046-2BAC18FBC939";
name = Bold;
paths = (
{
closed = 1;
nodes = (
"-5 0 LINE",
"232 0 LINE",
"380 699 LINE",
"143 699 LINE"
);
},
{
closed = 1;
nodes = (
"55 780 OFFCURVE",
"88 742 OFFCURVE",
"134 742 CURVE SMOOTH",
"182 742 OFFCURVE",
"229 780 OFFCURVE",
"239 829 CURVE SMOOTH",
"250 878 OFFCURVE",
"219 917 OFFCURVE",
"171 917 CURVE SMOOTH",
"125 917 OFFCURVE",
"76 878 OFFCURVE",
"65 829 CURVE SMOOTH"
);
},
{
closed = 1;
nodes = (
"289 780 OFFCURVE",
"321 742 OFFCURVE",
"369 742 CURVE SMOOTH",
"416 742 OFFCURVE",
"463 780 OFFCURVE",
"473 829 CURVE SMOOTH",
"484 878 OFFCURVE",
"453 917 OFFCURVE",
"406 917 CURVE SMOOTH",
"358 917 OFFCURVE",
"310 878 OFFCURVE",
"299 829 CURVE SMOOTH"
);
}
);
width = 307;
}
);
note = Idieresis;
unicode = 00CF;
},
{
glyphname = Idotaccent;
lastChange = "2015-10-29 02:55:25 +0000";
layers = (
{
layerId = "EF7A456C-05AE-460A-9046-2BAC18FBC939";
name = Bold;
paths = (
{
closed = 1;
nodes = (
"-5 0 LINE",
"232 0 LINE",
"380 699 LINE",
"143 699 LINE"
);
},
{
closed = 1;
nodes = (
"171 780 OFFCURVE",
"204 742 OFFCURVE",
"251 742 CURVE SMOOTH",
"299 742 OFFCURVE",
"346 780 OFFCURVE",
"356 829 CURVE SMOOTH",
"367 878 OFFCURVE",
"336 917 OFFCURVE",
"288 917 CURVE SMOOTH",
"241 917 OFFCURVE",
"192 878 OFFCURVE",
"181 829 CURVE SMOOTH"
);
}
);
width = 307;
}
);
note = Idotaccent;
unicode = 0130;
},
{
glyphname = Idotbelow;
lastChange = "2015-10-29 02:55:27 +0000";
layers = (
{
layerId = "EF7A456C-05AE-460A-9046-2BAC18FBC939";
name = Bold;
paths = (
{
closed = 1;
nodes = (
"-5 0 LINE",
"232 0 LINE",
"380 699 LINE",
"143 699 LINE"
);
},
{
closed = 1;
nodes = (
"-12 -182 OFFCURVE",
"21 -220 OFFCURVE",
"68 -220 CURVE SMOOTH",
"115 -220 OFFCURVE",
"162 -182 OFFCURVE",
"172 -133 CURVE SMOOTH",
"183 -84 OFFCURVE",
"152 -45 OFFCURVE",
"105 -45 CURVE SMOOTH",
"58 -45 OFFCURVE",
"9 -84 OFFCURVE",
"-2 -133 CURVE SMOOTH"
);
}
);
width = 307;
}
);
note = Idotbelow;
unicode = 1ECA;
},
{
glyphname = Igrave;
lastChange = "2015-10-29 02:55:25 +0000";
layers = (
{
layerId = "EF7A456C-05AE-460A-9046-2BAC18FBC939";
name = Bold;
paths = (
{
closed = 1;
nodes = (
"-5 0 LINE",
"232 0 LINE",
"380 699 LINE",
"143 699 LINE"
);
},
{
closed = 1;
nodes = (
"347 742 LINE",
"317 923 LINE",
"100 923 LINE",
"157 742 LINE"
);
}
);
width = 307;
}
);
note = Igrave;
unicode = 00CC;
},
{
glyphname = Ihookabove;
lastChange = "2015-10-29 02:55:27 +0000";
layers = (
{
layerId = "EF7A456C-05AE-460A-9046-2BAC18FBC939";
name = Bold;
paths = (
{
closed = 1;
nodes = (
"-5 0 LINE",
"232 0 LINE",
"380 699 LINE",
"143 699 LINE"
);
},
{
closed = 1;
nodes = (
"478 940 OFFCURVE",
"429 981 OFFCURVE",
"310 981 CURVE SMOOTH",
"266 981 OFFCURVE",
"201 972 OFFCURVE",
"165 962 CURVE",
"147 877 LINE",
"160 881 OFFCURVE",
"185 886 OFFCURVE",
"205 886 CURVE SMOOTH",
"246 886 OFFCURVE",
"262 876 OFFCURVE",
"258 854 CURVE",
"252 827 OFFCURVE",
"230 816 OFFCURVE",
"174 816 CURVE",
"158 742 LINE",
"345 742 LINE",
"353 782 LINE",
"410 798 OFFCURVE",
"453 825 OFFCURVE",
"465 877 CURVE SMOOTH"
);
}
);
width = 307;
}
);
note = Ihookabove;
unicode = 1EC8;
},
{
glyphname = Imacron;
lastChange = "2015-10-29 02:55:27 +0000";
layers = (
{
layerId = "EF7A456C-05AE-460A-9046-2BAC18FBC939";
name = Bold;
paths = (
{
closed = 1;
nodes = (
"-5 0 LINE",
"232 0 LINE",
"380 699 LINE",
"143 699 LINE"
);
},
{
closed = 1;
nodes = (
"464 742 LINE",
"495 885 LINE",
"108 885 LINE",
"77 742 LINE"
);
}
);
width = 307;
}
);
note = Imacron;
unicode = 012A;
},
{
glyphname = Iogonek;
lastChange = "2015-10-29 02:55:25 +0000";
layers = (
{
layerId = "EF7A456C-05AE-460A-9046-2BAC18FBC939";
name = Bold;
paths = (
{
closed = 1;
nodes = (
"-5 0 LINE",
"14 0 LINE",
"-33 -24 OFFCURVE",
"-68 -63 OFFCURVE",
"-79 -116 CURVE SMOOTH",
"-95 -189 OFFCURVE",
"-41 -219 OFFCURVE",
"41 -219 CURVE SMOOTH",
"86 -219 OFFCURVE",
"138 -212 OFFCURVE",
"172 -202 CURVE",
"197 -82 LINE",
"179 -90 OFFCURVE",
"161 -95 OFFCURVE",
"145 -95 CURVE SMOOTH",
"128 -95 OFFCURVE",
"121 -86 OFFCURVE",
"124 -72 CURVE SMOOTH",
"130 -45 OFFCURVE",
"156 -26 OFFCURVE",
"219 0 CURVE",
"232 0 LINE",
"380 699 LINE",
"143 699 LINE"
);
}
);
width = 307;
}
);
note = Iogonek;
unicode = 012E;
},
{
glyphname = Itilde;
lastChange = "2015-10-29 02:55:24 +0000";
layers = (
{
layerId = "EF7A456C-05AE-460A-9046-2BAC18FBC939";
name = Bold;
paths = (
{
closed = 1;
nodes = (
"-5 0 LINE",
"232 0 LINE",
"380 699 LINE",
"143 699 LINE"
);
},
{
closed = 1;
nodes = (
"318 886 OFFCURVE",
"258 936 OFFCURVE",
"190 936 CURVE SMOOTH",
"144 936 OFFCURVE",
"103 925 OFFCURVE",
"71 896 CURVE",
"39 743 LINE",
"77 777 OFFCURVE",
"117 792 OFFCURVE",
"159 792 CURVE SMOOTH",
"223 792 OFFCURVE",
"279 742 OFFCURVE",
"352 742 CURVE SMOOTH",
"398 742 OFFCURVE",
"438 753 OFFCURVE",
"470 782 CURVE",
"502 935 LINE",
"464 901 OFFCURVE",
"425 886 OFFCURVE",
"383 886 CURVE SMOOTH"
);
}
);
width = 307;
}
);
note = Itilde;
unicode = 0128;
},
{
glyphname = J;
lastChange = "2015-10-29 02:55:26 +0000";
layers = (
{
layerId = "EF7A456C-05AE-460A-9046-2BAC18FBC939";
name = Bold;
paths = (
{
closed = 1;
nodes = (
"487 699 LINE",
"250 699 LINE",
"157 263 LINE SMOOTH",
"147 215 OFFCURVE",
"119 196 OFFCURVE",
"75 196 CURVE SMOOTH",
"43 196 OFFCURVE",
"18 202 OFFCURVE",
"0 213 CURVE",
"-42 13 LINE",
"-21 -3 OFFCURVE",
"40 -15 OFFCURVE",
"86 -15 CURVE SMOOTH",
"280 -15 OFFCURVE",
"355 77 OFFCURVE",
"389 236 CURVE SMOOTH"
);
}
);
width = 409;
}
);
note = J;
rightKerningGroup = J;
unicode = 004A;
},
{
glyphname = Jcircumflex;
lastChange = "2015-10-29 02:55:23 +0000";
layers = (
{
layerId = "EF7A456C-05AE-460A-9046-2BAC18FBC939";
name = Bold;
paths = (
{
closed = 1;
nodes = (
"487 699 LINE",
"250 699 LINE",
"157 263 LINE SMOOTH",
"147 215 OFFCURVE",
"119 196 OFFCURVE",
"75 196 CURVE SMOOTH",
"43 196 OFFCURVE",
"18 202 OFFCURVE",
"0 213 CURVE",
"-42 13 LINE",
"-21 -3 OFFCURVE",
"40 -15 OFFCURVE",
"86 -15 CURVE SMOOTH",
"280 -15 OFFCURVE",
"355 77 OFFCURVE",
"389 236 CURVE SMOOTH"
);
},
{
closed = 1;
nodes = (
"284 923 LINE",
"80 732 LINE",
"290 732 LINE",
"366 812 LINE",
"408 732 LINE",
"611 732 LINE",
"486 923 LINE"
);
}
);
width = 409;
}
);
note = Jcircumflex;
rightKerningGroup = J;
unicode = 0134;
},
{
glyphname = K;
lastChange = "2015-10-29 02:55:25 +0000";
layers = (
{
layerId = "EF7A456C-05AE-460A-9046-2BAC18FBC939";
name = Bold;
paths = (
{
closed = 1;
nodes = (
"290 273 LINE",
"440 0 LINE",
"718 0 LINE",
"514 361 LINE",
"848 699 LINE",
"576 699 LINE",
"326 446 LINE",
"380 699 LINE",
"143 699 LINE",
"-5 0 LINE",
"232 0 LINE"
);
}
);
width = 773;
}
);
leftKerningGroup = K;
note = K;
rightKerningGroup = K;
unicode = 004B;
},
{
glyphname = Kcommaaccent;
lastChange = "2015-10-29 02:55:24 +0000";
layers = (
{
layerId = "EF7A456C-05AE-460A-9046-2BAC18FBC939";
name = Bold;
paths = (
{
closed = 1;
nodes = (
"290 273 LINE",
"440 0 LINE",
"718 0 LINE",
"514 361 LINE",
"848 699 LINE",
"576 699 LINE",
"326 446 LINE",
"380 699 LINE",
"143 699 LINE",
"-5 0 LINE",
"232 0 LINE"
);
},
{
closed = 1;
nodes = (
"273 -259 LINE",
"431 -41 LINE",
"219 -41 LINE",
"89 -259 LINE"
);
}
);
width = 773;
}
);
leftKerningGroup = K;
note = Kcommaaccent;
rightKerningGroup = K;
unicode = 0136;
},
{
glyphname = L;
lastChange = "2015-10-29 02:55:26 +0000";
layers = (
{
layerId = "EF7A456C-05AE-460A-9046-2BAC18FBC939";
name = Bold;
paths = (
{
closed = 1;
nodes = (
"535 199 LINE",
"274 199 LINE",
"380 699 LINE",
"143 699 LINE",
"-5 0 LINE",
"493 0 LINE"
);
}
);
width = 528;
}
);
note = L;
rightKerningGroup = L;
unicode = 004C;
},
{
glyphname = Lacute;
lastChange = "2015-10-29 02:55:23 +0000";
layers = (
{
layerId = "EF7A456C-05AE-460A-9046-2BAC18FBC939";
name = Bold;
paths = (
{
closed = 1;
nodes = (
"535 199 LINE",
"274 199 LINE",
"380 699 LINE",
"143 699 LINE",
"-5 0 LINE",
"493 0 LINE"
);
},
{
closed = 1;
nodes = (
"343 742 LINE",
"476 923 LINE",
"259 923 LINE",
"153 742 LINE"
);
}
);
width = 528;
}
);
note = Lacute;
rightKerningGroup = L;
unicode = 0139;
},
{
glyphname = Lcaron;
lastChange = "2015-10-29 02:55:26 +0000";
layers = (
{
layerId = "EF7A456C-05AE-460A-9046-2BAC18FBC939";
name = Bold;
paths = (
{
closed = 1;
nodes = (
"535 199 LINE",
"274 199 LINE",
"380 699 LINE",
"143 699 LINE",
"-5 0 LINE",
"493 0 LINE"
);
},
{
closed = 1;
nodes = (
"589 504 LINE",
"747 722 LINE",
"535 722 LINE",
"405 504 LINE"
);
}
);
width = 576;
}
);
note = Lcaron;
rightKerningGroup = L;
unicode = 013D;
},
{
glyphname = Lcommaaccent;
lastChange = "2015-10-29 02:55:27 +0000";
layers = (
{
layerId = "EF7A456C-05AE-460A-9046-2BAC18FBC939";
name = Bold;
paths = (
{
closed = 1;
nodes = (
"535 199 LINE",
"274 199 LINE",
"380 699 LINE",
"143 699 LINE",
"-5 0 LINE",
"493 0 LINE"
);
},
{
closed = 1;
nodes = (
"218 -259 LINE",
"376 -41 LINE",
"164 -41 LINE",
"34 -259 LINE"
);
}
);
width = 528;
}
);
note = Lcommaaccent;
rightKerningGroup = L;
unicode = 013B;
},
{
glyphname = Ldot;
lastChange = "2015-10-29 02:55:26 +0000";
layers = (
{
layerId = "EF7A456C-05AE-460A-9046-2BAC18FBC939";
name = Bold;
paths = (
{
closed = 1;
nodes = (
"535 199 LINE",
"274 199 LINE",
"380 699 LINE",
"143 699 LINE",
"-5 0 LINE",
"493 0 LINE"
);
},
{
closed = 1;
nodes = (
"363 354 OFFCURVE",
"396 316 OFFCURVE",
"443 316 CURVE SMOOTH",
"491 316 OFFCURVE",
"538 354 OFFCURVE",
"548 403 CURVE SMOOTH",
"559 452 OFFCURVE",
"528 491 OFFCURVE",
"480 491 CURVE SMOOTH",
"433 491 OFFCURVE",
"384 452 OFFCURVE",
"373 403 CURVE SMOOTH"
);
}
);
width = 528;
}
);
note = Ldot;
rightKerningGroup = L;
unicode = 013F;
},
{
glyphname = Ldotbelow;
lastChange = "2015-10-29 02:55:27 +0000";
layers = (
{
layerId = "EF7A456C-05AE-460A-9046-2BAC18FBC939";
name = Bold;
paths = (
{
closed = 1;
nodes = (
"535 199 LINE",
"274 199 LINE",
"380 699 LINE",
"143 699 LINE",
"-5 0 LINE",
"493 0 LINE"
);
},
{
closed = 1;
nodes = (
"109 -182 OFFCURVE",
"142 -220 OFFCURVE",
"189 -220 CURVE SMOOTH",
"236 -220 OFFCURVE",
"283 -182 OFFCURVE",
"293 -133 CURVE SMOOTH",
"304 -84 OFFCURVE",
"273 -45 OFFCURVE",
"226 -45 CURVE SMOOTH",
"179 -45 OFFCURVE",
"130 -84 OFFCURVE",
"119 -133 CURVE SMOOTH"
);
}
);
width = 528;
}
);
note = Ldotbelow;
rightKerningGroup = L;
unicode = 1E36;
},
{
glyphname = Ldotbelowmacron;
lastChange = "2015-10-29 02:55:24 +0000";
layers = (
{
layerId = "EF7A456C-05AE-460A-9046-2BAC18FBC939";
name = Bold;
paths = (
{
closed = 1;
nodes = (
"556 199 LINE",
"295 199 LINE",
"401 699 LINE",
"164 699 LINE",
"16 0 LINE",
"514 0 LINE"
);
},
{
closed = 1;
nodes = (
"128 -182 OFFCURVE",
"161 -220 OFFCURVE",
"208 -220 CURVE SMOOTH",
"255 -220 OFFCURVE",
"302 -182 OFFCURVE",
"312 -133 CURVE SMOOTH",
"323 -84 OFFCURVE",
"292 -45 OFFCURVE",
"245 -45 CURVE SMOOTH",
"198 -45 OFFCURVE",
"149 -84 OFFCURVE",
"138 -133 CURVE SMOOTH"
);
},
{
closed = 1;
nodes = (
"461 752 LINE",
"492 895 LINE",
"126 895 LINE",
"95 752 LINE"
);
}
);
width = 549;
}
);
note = Ldotbelowmacron;
rightKerningGroup = L;
unicode = 1E38;
},
{
glyphname = Llinebelow;
lastChange = "2015-10-29 02:55:25 +0000";
layers = (
{
layerId = "EF7A456C-05AE-460A-9046-2BAC18FBC939";
name = Bold;
paths = (
{
closed = 1;
nodes = (
"535 199 LINE",
"274 199 LINE",
"380 699 LINE",
"143 699 LINE",
"-5 0 LINE",
"493 0 LINE"
);
},
{
closed = 1;
nodes = (
"385 -192 LINE",
"415 -49 LINE",
"49 -49 LINE",
"19 -192 LINE"
);
}
);
width = 528;
}
);
note = Llinebelow;
rightKerningGroup = L;
unicode = 1E3A;
},
{
glyphname = Lslash;
lastChange = "2015-10-29 02:55:25 +0000";
layers = (
{
layerId = "EF7A456C-05AE-460A-9046-2BAC18FBC939";
name = Bold;
paths = (
{
closed = 1;
nodes = (
"535 199 LINE",
"274 199 LINE",
"303 336 LINE",
"433 389 LINE",
"480 607 LINE",
"349 553 LINE",
"380 699 LINE",
"143 699 LINE",
"89 448 LINE",
"24 421 LINE",
"-22 203 LINE",
"43 230 LINE",
"-5 0 LINE",
"493 0 LINE"
);
}
);
width = 528;
}
);
note = Lslash;
rightKerningGroup = L;
unicode = 0141;
},
{
glyphname = M;
lastChange = "2015-10-29 02:55:26 +0000";
layers = (
{
layerId = "EF7A456C-05AE-460A-9046-2BAC18FBC939";
name = Bold;
paths = (
{
closed = 1;
nodes = (
"548 0 LINE",
"767 0 LINE",
"915 699 LINE",
"701 699 LINE",
"445 329 LINE",
"347 699 LINE",
"143 699 LINE",
"-5 0 LINE",
"214 0 LINE",
"269 259 LINE",
"343 0 LINE",
"419 0 LINE",
"603 259 LINE"
);
}
);
width = 842;
}
);
note = M;
unicode = 004D;
},
{
glyphname = Mdotbelow;
lastChange = "2015-10-29 02:55:26 +0000";
layers = (
{
layerId = "EF7A456C-05AE-460A-9046-2BAC18FBC939";
name = Bold;
paths = (
{
closed = 1;
nodes = (
"548 0 LINE",
"767 0 LINE",
"915 699 LINE",
"701 699 LINE",
"445 329 LINE",
"347 699 LINE",
"143 699 LINE",
"-5 0 LINE",
"214 0 LINE",
"269 259 LINE",
"343 0 LINE",
"419 0 LINE",
"603 259 LINE"
);
},
{
closed = 1;
nodes = (
"256 -182 OFFCURVE",
"289 -220 OFFCURVE",
"336 -220 CURVE SMOOTH",
"383 -220 OFFCURVE",
"430 -182 OFFCURVE",
"440 -133 CURVE SMOOTH",
"451 -84 OFFCURVE",
"420 -45 OFFCURVE",
"373 -45 CURVE SMOOTH",
"326 -45 OFFCURVE",
"277 -84 OFFCURVE",
"266 -133 CURVE SMOOTH"
);
}
);
width = 842;
}
);
note = Mdotbelow;
unicode = 1E42;
},
{
glyphname = N;
lastChange = "2015-10-29 02:55:25 +0000";
layers = (
{
layerId = "EF7A456C-05AE-460A-9046-2BAC18FBC939";
name = Bold;
paths = (
{
closed = 1;
nodes = (
"787 699 LINE",
"560 699 LINE",
"491 374 LINE",
"352 699 LINE",
"143 699 LINE",
"-5 0 LINE",
"222 0 LINE",
"291 326 LINE",
"430 0 LINE",
"639 0 LINE"
);
}
);
width = 714;
}
);
note = N;
unicode = 004E;
},
{
glyphname = Nacute;
lastChange = "2015-10-29 02:55:24 +0000";
layers = (
{
layerId = "EF7A456C-05AE-460A-9046-2BAC18FBC939";
name = Bold;
paths = (
{
closed = 1;
nodes = (
"639 0 LINE",
"430 0 LINE",
"291 326 LINE",
"222 0 LINE",
"-5 0 LINE",
"143 699 LINE",
"352 699 LINE",
"491 374 LINE",
"560 699 LINE",
"787 699 LINE"
);
},
{
closed = 1;
nodes = (
"545 742 LINE",
"678 923 LINE",
"461 923 LINE",
"355 742 LINE"
);
}
);
width = 714;
}
);
note = Nacute;
unicode = 0143;
},
{
glyphname = Ncaron;
lastChange = "2015-10-29 02:55:25 +0000";
layers = (
{
layerId = "EF7A456C-05AE-460A-9046-2BAC18FBC939";
name = Bold;
paths = (
{
closed = 1;
nodes = (
"639 0 LINE",
"430 0 LINE",
"291 326 LINE",
"222 0 LINE",
"-5 0 LINE",
"143 699 LINE",
"352 699 LINE",
"491 374 LINE",
"560 699 LINE",
"787 699 LINE"
);
},
{
closed = 1;
nodes = (
"558 742 LINE",
"763 933 LINE",
"552 933 LINE",
"476 853 LINE",
"434 933 LINE",
"232 933 LINE",
"356 742 LINE"
);
}
);
width = 714;
}
);
note = Ncaron;
unicode = 0147;
},
{
glyphname = Ncommaaccent;
lastChange = "2015-10-29 02:55:26 +0000";
layers = (
{
layerId = "EF7A456C-05AE-460A-9046-2BAC18FBC939";
name = Bold;
paths = (
{
closed = 1;
nodes = (
"787 699 LINE",
"560 699 LINE",
"491 374 LINE",
"352 699 LINE",
"143 699 LINE",
"-5 0 LINE",
"222 0 LINE",
"291 326 LINE",
"430 0 LINE",
"639 0 LINE"
);
},
{
closed = 1;
nodes = (
"274 -259 LINE",
"432 -41 LINE",
"220 -41 LINE",
"90 -259 LINE"
);
}
);
width = 714;
}
);
note = Ncommaaccent;
unicode = 0145;
},
{
glyphname = Ndotaccent;
lastChange = "2015-10-29 02:55:24 +0000";
layers = (
{
layerId = "EF7A456C-05AE-460A-9046-2BAC18FBC939";
name = Bold;
paths = (
{
closed = 1;
nodes = (
"639 0 LINE",
"430 0 LINE",
"291 326 LINE",
"222 0 LINE",
"-5 0 LINE",
"143 699 LINE",
"352 699 LINE",
"491 374 LINE",
"560 699 LINE",
"787 699 LINE"
);
},
{
closed = 1;
nodes = (
"375 780 OFFCURVE",
"408 742 OFFCURVE",
"455 742 CURVE SMOOTH",
"503 742 OFFCURVE",
"550 780 OFFCURVE",
"560 829 CURVE SMOOTH",
"571 878 OFFCURVE",
"540 917 OFFCURVE",
"492 917 CURVE SMOOTH",
"445 917 OFFCURVE",
"396 878 OFFCURVE",
"385 829 CURVE SMOOTH"
);
}
);
width = 714;
}
);
note = Ndotaccent;
unicode = 1E44;
},
{
glyphname = Ndotbelow;
lastChange = "2015-10-29 02:55:25 +0000";
layers = (
{
layerId = "EF7A456C-05AE-460A-9046-2BAC18FBC939";
name = Bold;
paths = (
{
closed = 1;
nodes = (
"787 699 LINE",
"560 699 LINE",
"491 374 LINE",
"352 699 LINE",
"143 699 LINE",
"-5 0 LINE",
"222 0 LINE",
"291 326 LINE",
"430 0 LINE",
"639 0 LINE"
);
},
{
closed = 1;
nodes = (
"192 -182 OFFCURVE",
"225 -220 OFFCURVE",
"272 -220 CURVE SMOOTH",
"319 -220 OFFCURVE",
"366 -182 OFFCURVE",
"376 -133 CURVE SMOOTH",
"387 -84 OFFCURVE",
"356 -45 OFFCURVE",
"309 -45 CURVE SMOOTH",
"262 -45 OFFCURVE",
"213 -84 OFFCURVE",
"202 -133 CURVE SMOOTH"
);
}
);
width = 714;
}
);
note = Ndotbelow;
unicode = 1E46;
},
{
glyphname = Eng;
lastChange = "2015-10-29 02:55:23 +0000";
layers = (
{
layerId = "EF7A456C-05AE-460A-9046-2BAC18FBC939";
name = Bold;
paths = (
{
closed = 1;
nodes = (
"787 699 LINE",
"560 699 LINE",
"491 374 LINE",
"352 699 LINE",
"143 699 LINE",
"-5 0 LINE",
"222 0 LINE",
"291 326 LINE",
"419 26 LINE",
"416 13 LINE SMOOTH",
"407 -30 OFFCURVE",
"376 -48 OFFCURVE",
"341 -48 CURVE SMOOTH",
"309 -48 OFFCURVE",
"289 -42 OFFCURVE",
"270 -31 CURVE",
"232 -210 LINE",
"256 -223 OFFCURVE",
"290 -231 OFFCURVE",
"336 -231 CURVE SMOOTH",
"504 -231 OFFCURVE",
"604 -163 OFFCURVE",
"635 -15 CURVE SMOOTH"
);
}
);
width = 714;
}
);
note = Eng;
unicode = 014A;
},
{
glyphname = Nlinebelow;
lastChange = "2015-10-29 02:55:26 +0000";
layers = (
{
layerId = "EF7A456C-05AE-460A-9046-2BAC18FBC939";
name = Bold;
paths = (
{
closed = 1;
nodes = (
"787 699 LINE",
"560 699 LINE",
"491 374 LINE",
"352 699 LINE",
"143 699 LINE",
"-5 0 LINE",
"222 0 LINE",
"291 326 LINE",
"430 0 LINE",
"639 0 LINE"
);
},
{
closed = 1;
nodes = (
"460 -192 LINE",
"490 -49 LINE",
"124 -49 LINE",
"94 -192 LINE"
);
}
);
width = 714;
}
);
note = Nlinebelow;
unicode = 1E48;
},
{
glyphname = Ntilde;
lastChange = "2015-10-29 02:55:25 +0000";
layers = (
{
layerId = "EF7A456C-05AE-460A-9046-2BAC18FBC939";
name = Bold;
paths = (
{
closed = 1;
nodes = (
"787 699 LINE",
"560 699 LINE",
"491 374 LINE",
"352 699 LINE",
"143 699 LINE",
"-5 0 LINE",
"222 0 LINE",
"291 326 LINE",
"430 0 LINE",
"639 0 LINE"
);
},
{
closed = 1;
nodes = (
"528 886 OFFCURVE",
"468 936 OFFCURVE",
"400 936 CURVE SMOOTH",
"354 936 OFFCURVE",
"313 925 OFFCURVE",
"281 896 CURVE",
"249 743 LINE",
"287 777 OFFCURVE",
"327 792 OFFCURVE",
"369 792 CURVE SMOOTH",
"433 792 OFFCURVE",
"489 742 OFFCURVE",
"562 742 CURVE SMOOTH",
"608 742 OFFCURVE",
"648 753 OFFCURVE",
"680 782 CURVE",
"712 935 LINE",
"674 901 OFFCURVE",
"635 886 OFFCURVE",
"593 886 CURVE SMOOTH"
);
}
);
width = 714;
}
);
note = Ntilde;
unicode = 00D1;
},
{
glyphname = O;
lastChange = "2015-10-29 02:55:25 +0000";
layers = (
{
layerId = "EF7A456C-05AE-460A-9046-2BAC18FBC939";
name = Bold;
paths = (
{
closed = 1;
nodes = (
"295 208 OFFCURVE",
"271 260 OFFCURVE",
"290 349 CURVE SMOOTH",
"308 437 OFFCURVE",
"380 490 OFFCURVE",
"459 490 CURVE SMOOTH",
"557 490 OFFCURVE",
"585 437 OFFCURVE",
"567 349 CURVE SMOOTH",
"548 260 OFFCURVE",
"476 208 OFFCURVE",
"399 208 CURVE SMOOTH"
);
},
{
closed = 1;
nodes = (
"582 -15 OFFCURVE",
"761 131 OFFCURVE",
"808 349 CURVE SMOOTH",
"854 568 OFFCURVE",
"712 714 OFFCURVE",
"506 714 CURVE SMOOTH",
"275 714 OFFCURVE",
"95 568 OFFCURVE",
"49 349 CURVE SMOOTH",
"2 131 OFFCURVE",
"156 -15 OFFCURVE",
"351 -15 CURVE SMOOTH"
);
}
);
width = 789;
}
);
leftKerningGroup = O;
note = O;
rightKerningGroup = O;
unicode = 004F;
},
{
glyphname = Oacute;
lastChange = "2015-10-29 02:55:25 +0000";
layers = (
{
layerId = "EF7A456C-05AE-460A-9046-2BAC18FBC939";
name = Bold;
paths = (
{
closed = 1;
nodes = (
"295 208 OFFCURVE",
"271 260 OFFCURVE",
"290 349 CURVE SMOOTH",
"308 437 OFFCURVE",
"380 490 OFFCURVE",
"459 490 CURVE SMOOTH",
"557 490 OFFCURVE",
"585 437 OFFCURVE",
"567 349 CURVE SMOOTH",
"548 260 OFFCURVE",
"476 208 OFFCURVE",
"399 208 CURVE SMOOTH"
);
},
{
closed = 1;
nodes = (
"582 -15 OFFCURVE",
"761 131 OFFCURVE",
"808 349 CURVE SMOOTH",
"854 568 OFFCURVE",
"712 714 OFFCURVE",
"506 714 CURVE SMOOTH",
"275 714 OFFCURVE",
"95 568 OFFCURVE",
"49 349 CURVE SMOOTH",
"2 131 OFFCURVE",
"156 -15 OFFCURVE",
"351 -15 CURVE SMOOTH"
);
},
{
closed = 1;
nodes = (
"569 742 LINE",
"702 923 LINE",
"485 923 LINE",
"379 742 LINE"
);
}
);
width = 789;
}
);
leftKerningGroup = O;
note = Oacute;
rightKerningGroup = O;
unicode = 00D3;
},
{
glyphname = Obreve;
lastChange = "2015-10-29 02:55:26 +0000";
layers = (
{
layerId = "EF7A456C-05AE-460A-9046-2BAC18FBC939";
name = Bold;
paths = (
{
closed = 1;
nodes = (
"295 208 OFFCURVE",
"271 260 OFFCURVE",
"290 349 CURVE SMOOTH",
"308 437 OFFCURVE",
"380 490 OFFCURVE",
"459 490 CURVE SMOOTH",
"557 490 OFFCURVE",
"585 437 OFFCURVE",
"567 349 CURVE SMOOTH",
"548 260 OFFCURVE",
"476 208 OFFCURVE",
"399 208 CURVE SMOOTH"
);
},
{
closed = 1;
nodes = (
"582 -15 OFFCURVE",
"761 131 OFFCURVE",
"808 349 CURVE SMOOTH",
"854 568 OFFCURVE",
"712 714 OFFCURVE",
"506 714 CURVE SMOOTH",
"275 714 OFFCURVE",
"95 568 OFFCURVE",
"49 349 CURVE SMOOTH",
"2 131 OFFCURVE",
"156 -15 OFFCURVE",
"351 -15 CURVE SMOOTH"
);
},
{
closed = 1;
nodes = (
"624 742 OFFCURVE",
"712 816 OFFCURVE",
"737 937 CURVE",
"566 937 LINE",
"558 898 OFFCURVE",
"541 879 OFFCURVE",
"516 879 CURVE SMOOTH",
"491 879 OFFCURVE",
"482 898 OFFCURVE",
"490 937 CURVE",
"328 937 LINE",
"303 816 OFFCURVE",
"359 742 OFFCURVE",
"491 742 CURVE SMOOTH"
);
}
);
width = 789;
}
);
leftKerningGroup = O;
note = Obreve;
rightKerningGroup = O;
unicode = 014E;
},
{
glyphname = Ocaron;
lastChange = "2015-10-29 02:55:27 +0000";
layers = (
{
layerId = "EF7A456C-05AE-460A-9046-2BAC18FBC939";
name = Bold;
paths = (
{
closed = 1;
nodes = (
"295 208 OFFCURVE",
"271 260 OFFCURVE",
"290 349 CURVE SMOOTH",
"308 437 OFFCURVE",
"380 490 OFFCURVE",
"459 490 CURVE SMOOTH",
"557 490 OFFCURVE",
"585 437 OFFCURVE",
"567 349 CURVE SMOOTH",
"548 260 OFFCURVE",
"476 208 OFFCURVE",
"399 208 CURVE SMOOTH"
);
},
{
closed = 1;
nodes = (
"582 -15 OFFCURVE",
"761 131 OFFCURVE",
"808 349 CURVE SMOOTH",
"854 568 OFFCURVE",
"712 714 OFFCURVE",
"506 714 CURVE SMOOTH",
"275 714 OFFCURVE",
"95 568 OFFCURVE",
"49 349 CURVE SMOOTH",
"2 131 OFFCURVE",
"156 -15 OFFCURVE",
"351 -15 CURVE SMOOTH"
);
},
{
closed = 1;
nodes = (
"592 742 LINE",
"797 933 LINE",
"586 933 LINE",
"510 853 LINE",
"468 933 LINE",
"266 933 LINE",
"390 742 LINE"
);
}
);
width = 789;
}
);
leftKerningGroup = O;
note = Ocaron;
rightKerningGroup = O;
unicode = 01D1;
},
{
glyphname = Ocircumflex;
lastChange = "2015-10-29 02:55:27 +0000";
layers = (
{
layerId = "EF7A456C-05AE-460A-9046-2BAC18FBC939";
name = Bold;
paths = (
{
closed = 1;
nodes = (
"295 208 OFFCURVE",
"271 260 OFFCURVE",
"290 349 CURVE SMOOTH",
"308 437 OFFCURVE",
"380 490 OFFCURVE",
"459 490 CURVE SMOOTH",
"557 490 OFFCURVE",
"585 437 OFFCURVE",
"567 349 CURVE SMOOTH",
"548 260 OFFCURVE",
"476 208 OFFCURVE",
"399 208 CURVE SMOOTH"
);
},
{
closed = 1;
nodes = (
"582 -15 OFFCURVE",
"761 131 OFFCURVE",
"808 349 CURVE SMOOTH",
"854 568 OFFCURVE",
"712 714 OFFCURVE",
"506 714 CURVE SMOOTH",
"275 714 OFFCURVE",
"95 568 OFFCURVE",
"49 349 CURVE SMOOTH",
"2 131 OFFCURVE",
"156 -15 OFFCURVE",
"351 -15 CURVE SMOOTH"
);
},
{
closed = 1;
nodes = (
"433 947 LINE",
"229 756 LINE",
"439 756 LINE",
"515 836 LINE",
"557 756 LINE",
"760 756 LINE",
"635 947 LINE"
);
}
);
width = 789;
}
);
leftKerningGroup = O;
note = Ocircumflex;
rightKerningGroup = O;
unicode = 00D4;
},
{
glyphname = Ocircumflexacute;
lastChange = "2015-10-29 02:55:24 +0000";
layers = (
{
layerId = "EF7A456C-05AE-460A-9046-2BAC18FBC939";
name = Bold;
paths = (
{
closed = 1;
nodes = (
"295 208 OFFCURVE",
"271 260 OFFCURVE",
"290 349 CURVE SMOOTH",
"308 437 OFFCURVE",
"380 490 OFFCURVE",
"459 490 CURVE SMOOTH",
"557 490 OFFCURVE",
"585 437 OFFCURVE",
"567 349 CURVE SMOOTH",
"548 260 OFFCURVE",
"476 208 OFFCURVE",
"399 208 CURVE SMOOTH"
);
},
{
closed = 1;
nodes = (
"582 -15 OFFCURVE",
"761 131 OFFCURVE",
"808 349 CURVE SMOOTH",
"854 568 OFFCURVE",
"712 714 OFFCURVE",
"506 714 CURVE SMOOTH",
"275 714 OFFCURVE",
"95 568 OFFCURVE",
"49 349 CURVE SMOOTH",
"2 131 OFFCURVE",
"156 -15 OFFCURVE",
"351 -15 CURVE SMOOTH"
);
},
{
closed = 1;
nodes = (
"472 903 LINE",
"273 742 LINE",
"465 742 LINE",
"519 792 LINE",
"553 742 LINE",
"744 742 LINE",
"614 903 LINE"
);
},
{
closed = 1;
nodes = (
"857 875 LINE",
"973 1024 LINE",
"766 1024 LINE",
"677 875 LINE"
);
}
);
width = 789;
}
);
leftKerningGroup = O;
note = Ocircumflexacute;
rightKerningGroup = O;
unicode = 1ED0;
},
{
glyphname = Ocircumflexdotbelow;
lastChange = "2015-10-29 02:55:23 +0000";
layers = (
{
layerId = "EF7A456C-05AE-460A-9046-2BAC18FBC939";
name = Bold;
paths = (
{
closed = 1;
nodes = (
"295 208 OFFCURVE",
"271 260 OFFCURVE",
"290 349 CURVE SMOOTH",
"308 437 OFFCURVE",
"380 490 OFFCURVE",
"459 490 CURVE SMOOTH",
"557 490 OFFCURVE",
"585 437 OFFCURVE",
"567 349 CURVE SMOOTH",
"548 260 OFFCURVE",
"476 208 OFFCURVE",
"399 208 CURVE SMOOTH"
);
},
{
closed = 1;
nodes = (
"582 -15 OFFCURVE",
"761 131 OFFCURVE",
"808 349 CURVE SMOOTH",
"854 568 OFFCURVE",
"712 714 OFFCURVE",
"506 714 CURVE SMOOTH",
"275 714 OFFCURVE",
"95 568 OFFCURVE",
"49 349 CURVE SMOOTH",
"2 131 OFFCURVE",
"156 -15 OFFCURVE",
"351 -15 CURVE SMOOTH"
);
},
{
closed = 1;
nodes = (
"229 -182 OFFCURVE",
"262 -220 OFFCURVE",
"309 -220 CURVE SMOOTH",
"356 -220 OFFCURVE",
"403 -182 OFFCURVE",
"413 -133 CURVE SMOOTH",
"424 -84 OFFCURVE",
"393 -45 OFFCURVE",
"346 -45 CURVE SMOOTH",
"299 -45 OFFCURVE",
"250 -84 OFFCURVE",
"239 -133 CURVE SMOOTH"
);
},
{
closed = 1;
nodes = (
"430 933 LINE",
"226 742 LINE",
"436 742 LINE",
"512 822 LINE",
"554 742 LINE",
"757 742 LINE",
"632 933 LINE"
);
}
);
width = 789;
}
);
leftKerningGroup = O;
note = Ocircumflexdotbelow;
rightKerningGroup = O;
unicode = 1ED8;
},
{
glyphname = Ocircumflexgrave;
lastChange = "2015-10-29 02:55:24 +0000";
layers = (
{
layerId = "EF7A456C-05AE-460A-9046-2BAC18FBC939";
name = Bold;
paths = (
{
closed = 1;
nodes = (
"299 208 OFFCURVE",
"275 260 OFFCURVE",
"294 349 CURVE SMOOTH",
"312 437 OFFCURVE",
"384 490 OFFCURVE",
"463 490 CURVE SMOOTH",
"561 490 OFFCURVE",
"589 437 OFFCURVE",
"571 349 CURVE SMOOTH",
"552 260 OFFCURVE",
"480 208 OFFCURVE",
"403 208 CURVE SMOOTH"
);
},
{
closed = 1;
nodes = (
"586 -15 OFFCURVE",
"765 131 OFFCURVE",
"812 349 CURVE SMOOTH",
"858 568 OFFCURVE",
"716 714 OFFCURVE",
"510 714 CURVE SMOOTH",
"279 714 OFFCURVE",
"99 568 OFFCURVE",
"53 349 CURVE SMOOTH",
"6 131 OFFCURVE",
"160 -15 OFFCURVE",
"355 -15 CURVE SMOOTH"
);
},
{
closed = 1;
nodes = (
"479 903 LINE",
"280 742 LINE",
"472 742 LINE",
"526 792 LINE",
"560 742 LINE",
"751 742 LINE",
"620 903 LINE"
);
},
{
closed = 1;
nodes = (
"403 875 LINE",
"378 1024 LINE",
"171 1024 LINE",
"223 875 LINE"
);
}
);
width = 793;
}
);
leftKerningGroup = O;
note = Ocircumflexgrave;
rightKerningGroup = O;
unicode = 1ED2;
},
{
glyphname = Ocircumflexhookabove;
lastChange = "2015-10-29 02:55:27 +0000";
layers = (
{
layerId = "EF7A456C-05AE-460A-9046-2BAC18FBC939";
name = Bold;
paths = (
{
closed = 1;
nodes = (
"295 208 OFFCURVE",
"271 260 OFFCURVE",
"290 349 CURVE SMOOTH",
"308 437 OFFCURVE",
"380 490 OFFCURVE",
"459 490 CURVE SMOOTH",
"557 490 OFFCURVE",
"585 437 OFFCURVE",
"567 349 CURVE SMOOTH",
"548 260 OFFCURVE",
"476 208 OFFCURVE",
"399 208 CURVE SMOOTH"
);
},
{
closed = 1;
nodes = (
"582 -15 OFFCURVE",
"761 131 OFFCURVE",
"808 349 CURVE SMOOTH",
"854 568 OFFCURVE",
"712 714 OFFCURVE",
"506 714 CURVE SMOOTH",
"275 714 OFFCURVE",
"95 568 OFFCURVE",
"49 349 CURVE SMOOTH",
"2 131 OFFCURVE",
"156 -15 OFFCURVE",
"351 -15 CURVE SMOOTH"
);
},
{
closed = 1;
nodes = (
"482 903 LINE",
"283 742 LINE",
"475 742 LINE",
"529 792 LINE",
"563 742 LINE",
"754 742 LINE",
"624 903 LINE"
);
},
{
closed = 1;
nodes = (
"896 1001 OFFCURVE",
"863 1032 OFFCURVE",
"782 1032 CURVE SMOOTH",
"752 1032 OFFCURVE",
"706 1026 OFFCURVE",
"681 1019 CURVE",
"666 950 LINE",
"675 954 OFFCURVE",
"689 956 OFFCURVE",
"699 956 CURVE SMOOTH",
"725 956 OFFCURVE",
"736 948 OFFCURVE",
"733 936 CURVE",
"730 920 OFFCURVE",
"710 915 OFFCURVE",
"683 915 CURVE",
"672 863 LINE",
"809 863 LINE",
"814 889 LINE",
"852 901 OFFCURVE",
"879 922 OFFCURVE",
"886 955 CURVE SMOOTH"
);
}
);
width = 789;
}
);
leftKerningGroup = O;
note = Ocircumflexhookabove;
rightKerningGroup = O;
unicode = 1ED4;
},
{
glyphname = Ocircumflextilde;
lastChange = "2015-10-29 02:55:27 +0000";
layers = (
{
layerId = "EF7A456C-05AE-460A-9046-2BAC18FBC939";
name = Bold;
paths = (
{
closed = 1;
nodes = (
"295 208 OFFCURVE",
"271 260 OFFCURVE",
"290 349 CURVE SMOOTH",
"308 437 OFFCURVE",
"380 490 OFFCURVE",
"459 490 CURVE SMOOTH",
"557 490 OFFCURVE",
"585 437 OFFCURVE",
"567 349 CURVE SMOOTH",
"548 260 OFFCURVE",
"476 208 OFFCURVE",
"399 208 CURVE SMOOTH"
);
},
{
closed = 1;
nodes = (
"582 -15 OFFCURVE",
"761 131 OFFCURVE",
"808 349 CURVE SMOOTH",
"854 568 OFFCURVE",
"712 714 OFFCURVE",
"506 714 CURVE SMOOTH",
"275 714 OFFCURVE",
"95 568 OFFCURVE",
"49 349 CURVE SMOOTH",
"2 131 OFFCURVE",
"156 -15 OFFCURVE",
"351 -15 CURVE SMOOTH"
);
},
{
closed = 1;
nodes = (
"622 742 OFFCURVE",
"714 804 OFFCURVE",
"735 904 CURVE",
"592 904 LINE",
"585 872 OFFCURVE",
"565 851 OFFCURVE",
"530 851 CURVE SMOOTH",
"495 851 OFFCURVE",
"483 872 OFFCURVE",
"490 904 CURVE",
"356 904 LINE",
"335 804 OFFCURVE",
"402 742 OFFCURVE",
"512 742 CURVE SMOOTH"
);
},
{
closed = 1;
nodes = (
"601 1025 OFFCURVE",
"552 1065 OFFCURVE",
"497 1065 CURVE SMOOTH",
"460 1065 OFFCURVE",
"428 1056 OFFCURVE",
"403 1033 CURVE",
"379 920 LINE",
"409 947 OFFCURVE",
"442 959 OFFCURVE",
"475 959 CURVE SMOOTH",
"527 959 OFFCURVE",
"572 919 OFFCURVE",
"631 919 CURVE SMOOTH",
"667 919 OFFCURVE",
"699 928 OFFCURVE",
"725 951 CURVE",
"749 1064 LINE",
"718 1037 OFFCURVE",
"686 1025 OFFCURVE",
"654 1025 CURVE SMOOTH"
);
}
);
width = 789;
}
);
leftKerningGroup = O;
note = Ocircumflextilde;
rightKerningGroup = O;
unicode = 1ED6;
},
{
glyphname = Odieresis;
lastChange = "2015-10-29 02:55:27 +0000";
layers = (
{
layerId = "EF7A456C-05AE-460A-9046-2BAC18FBC939";
name = Bold;
paths = (
{
closed = 1;
nodes = (
"295 208 OFFCURVE",
"271 260 OFFCURVE",
"290 349 CURVE SMOOTH",
"308 437 OFFCURVE",
"380 490 OFFCURVE",
"459 490 CURVE SMOOTH",
"557 490 OFFCURVE",
"585 437 OFFCURVE",
"567 349 CURVE SMOOTH",
"548 260 OFFCURVE",
"476 208 OFFCURVE",
"399 208 CURVE SMOOTH"
);
},
{
closed = 1;
nodes = (
"582 -15 OFFCURVE",
"761 131 OFFCURVE",
"808 349 CURVE SMOOTH",
"854 568 OFFCURVE",
"712 714 OFFCURVE",
"506 714 CURVE SMOOTH",
"275 714 OFFCURVE",
"95 568 OFFCURVE",
"49 349 CURVE SMOOTH",
"2 131 OFFCURVE",
"156 -15 OFFCURVE",
"351 -15 CURVE SMOOTH"
);
},
{
closed = 1;
nodes = (
"298 790 OFFCURVE",
"331 752 OFFCURVE",
"377 752 CURVE SMOOTH",
"425 752 OFFCURVE",
"472 790 OFFCURVE",
"482 839 CURVE SMOOTH",
"493 888 OFFCURVE",
"462 927 OFFCURVE",
"414 927 CURVE SMOOTH",
"368 927 OFFCURVE",
"319 888 OFFCURVE",
"308 839 CURVE SMOOTH"
);
},
{
closed = 1;
nodes = (
"532 790 OFFCURVE",
"564 752 OFFCURVE",
"612 752 CURVE SMOOTH",
"659 752 OFFCURVE",
"706 790 OFFCURVE",
"716 839 CURVE SMOOTH",
"727 888 OFFCURVE",
"696 927 OFFCURVE",
"649 927 CURVE SMOOTH",
"601 927 OFFCURVE",
"553 888 OFFCURVE",
"542 839 CURVE SMOOTH"
);
}
);
width = 789;
}
);
leftKerningGroup = O;
note = Odieresis;
rightKerningGroup = O;
unicode = 00D6;
},
{
glyphname = Odotbelow;
lastChange = "2015-10-29 02:55:24 +0000";
layers = (
{
layerId = "EF7A456C-05AE-460A-9046-2BAC18FBC939";
name = Bold;
paths = (
{
closed = 1;
nodes = (
"295 208 OFFCURVE",
"271 260 OFFCURVE",
"290 349 CURVE SMOOTH",
"308 437 OFFCURVE",
"380 490 OFFCURVE",
"459 490 CURVE SMOOTH",
"557 490 OFFCURVE",
"585 437 OFFCURVE",
"567 349 CURVE SMOOTH",
"548 260 OFFCURVE",
"476 208 OFFCURVE",
"399 208 CURVE SMOOTH"
);
},
{
closed = 1;
nodes = (
"582 -15 OFFCURVE",
"761 131 OFFCURVE",
"808 349 CURVE SMOOTH",
"854 568 OFFCURVE",
"712 714 OFFCURVE",
"506 714 CURVE SMOOTH",
"275 714 OFFCURVE",
"95 568 OFFCURVE",
"49 349 CURVE SMOOTH",
"2 131 OFFCURVE",
"156 -15 OFFCURVE",
"351 -15 CURVE SMOOTH"
);
},
{
closed = 1;
nodes = (
"229 -182 OFFCURVE",
"262 -220 OFFCURVE",
"309 -220 CURVE SMOOTH",
"356 -220 OFFCURVE",
"403 -182 OFFCURVE",
"413 -133 CURVE SMOOTH",
"424 -84 OFFCURVE",
"393 -45 OFFCURVE",
"346 -45 CURVE SMOOTH",
"299 -45 OFFCURVE",
"250 -84 OFFCURVE",
"239 -133 CURVE SMOOTH"
);
}
);
width = 789;
}
);
leftKerningGroup = O;
note = Odotbelow;
rightKerningGroup = O;
unicode = 1ECC;
},
{
glyphname = Ograve;
lastChange = "2015-10-29 02:55:26 +0000";
layers = (
{
layerId = "EF7A456C-05AE-460A-9046-2BAC18FBC939";
name = Bold;
paths = (
{
closed = 1;
nodes = (
"295 208 OFFCURVE",
"271 260 OFFCURVE",
"290 349 CURVE SMOOTH",
"308 437 OFFCURVE",
"380 490 OFFCURVE",
"459 490 CURVE SMOOTH",
"557 490 OFFCURVE",
"585 437 OFFCURVE",
"567 349 CURVE SMOOTH",
"548 260 OFFCURVE",
"476 208 OFFCURVE",
"399 208 CURVE SMOOTH"
);
},
{
closed = 1;
nodes = (
"582 -15 OFFCURVE",
"761 131 OFFCURVE",
"808 349 CURVE SMOOTH",
"854 568 OFFCURVE",
"712 714 OFFCURVE",
"506 714 CURVE SMOOTH",
"275 714 OFFCURVE",
"95 568 OFFCURVE",
"49 349 CURVE SMOOTH",
"2 131 OFFCURVE",
"156 -15 OFFCURVE",
"351 -15 CURVE SMOOTH"
);
},
{
closed = 1;
nodes = (
"591 742 LINE",
"561 923 LINE",
"344 923 LINE",
"401 742 LINE"
);
}
);
width = 789;
}
);
leftKerningGroup = O;
note = Ograve;
rightKerningGroup = O;
unicode = 00D2;
},
{
glyphname = Ohookabove;
lastChange = "2015-10-29 02:55:24 +0000";
layers = (
{
layerId = "EF7A456C-05AE-460A-9046-2BAC18FBC939";
name = Bold;
paths = (
{
closed = 1;
nodes = (
"295 208 OFFCURVE",
"271 260 OFFCURVE",
"290 349 CURVE SMOOTH",
"308 437 OFFCURVE",
"380 490 OFFCURVE",
"459 490 CURVE SMOOTH",
"557 490 OFFCURVE",
"585 437 OFFCURVE",
"567 349 CURVE SMOOTH",
"548 260 OFFCURVE",
"476 208 OFFCURVE",
"399 208 CURVE SMOOTH"
);
},
{
closed = 1;
nodes = (
"582 -15 OFFCURVE",
"761 131 OFFCURVE",
"808 349 CURVE SMOOTH",
"854 568 OFFCURVE",
"712 714 OFFCURVE",
"506 714 CURVE SMOOTH",
"275 714 OFFCURVE",
"95 568 OFFCURVE",
"49 349 CURVE SMOOTH",
"2 131 OFFCURVE",
"156 -15 OFFCURVE",
"351 -15 CURVE SMOOTH"
);
},
{
closed = 1;
nodes = (
"697 940 OFFCURVE",
"648 981 OFFCURVE",
"529 981 CURVE SMOOTH",
"485 981 OFFCURVE",
"420 972 OFFCURVE",
"384 962 CURVE",
"366 877 LINE",
"379 881 OFFCURVE",
"404 886 OFFCURVE",
"424 886 CURVE SMOOTH",
"465 886 OFFCURVE",
"481 876 OFFCURVE",
"477 854 CURVE",
"471 827 OFFCURVE",
"449 816 OFFCURVE",
"393 816 CURVE",
"377 742 LINE",
"564 742 LINE",
"572 782 LINE",
"629 798 OFFCURVE",
"672 825 OFFCURVE",
"684 877 CURVE SMOOTH"
);
}
);
width = 789;
}
);
leftKerningGroup = O;
note = Ohookabove;
rightKerningGroup = O;
unicode = 1ECE;
},
{
glyphname = Ohorn;
lastChange = "2015-10-29 02:55:25 +0000";
layers = (
{
layerId = "EF7A456C-05AE-460A-9046-2BAC18FBC939";
name = Bold;
paths = (
{
closed = 1;
nodes = (
"582 -15 OFFCURVE",
"762 131 OFFCURVE",
"808 349 CURVE SMOOTH",
"819 400 OFFCURVE",
"819 447 OFFCURVE",
"811 489 CURVE",
"933 508 OFFCURVE",
"1009 592 OFFCURVE",
"1032 700 CURVE SMOOTH",
"1042 747 LINE",
"863 747 LINE",
"856 715 LINE SMOOTH",
"845 666 OFFCURVE",
"813 633 OFFCURVE",
"733 633 CURVE",
"678 685 OFFCURVE",
"598 714 OFFCURVE",
"506 714 CURVE SMOOTH",
"275 714 OFFCURVE",
"96 568 OFFCURVE",
"49 349 CURVE SMOOTH",
"3 131 OFFCURVE",
"156 -15 OFFCURVE",
"351 -15 CURVE SMOOTH"
);
},
{
closed = 1;
nodes = (
"295 208 OFFCURVE",
"271 260 OFFCURVE",
"290 349 CURVE SMOOTH",
"308 437 OFFCURVE",
"380 490 OFFCURVE",
"459 490 CURVE SMOOTH",
"557 490 OFFCURVE",
"585 437 OFFCURVE",
"567 349 CURVE SMOOTH",
"548 260 OFFCURVE",
"476 208 OFFCURVE",
"399 208 CURVE SMOOTH"
);
}
);
width = 919;
}
);
leftKerningGroup = O;
note = Ohorn;
rightKerningGroup = O;
unicode = 01A0;
},
{
glyphname = Ohornacute;
lastChange = "2015-10-29 02:55:27 +0000";
layers = (
{
layerId = "EF7A456C-05AE-460A-9046-2BAC18FBC939";
name = Bold;
paths = (
{
closed = 1;
nodes = (
"582 -15 OFFCURVE",
"762 131 OFFCURVE",
"808 349 CURVE SMOOTH",
"819 400 OFFCURVE",
"819 447 OFFCURVE",
"811 489 CURVE",
"933 508 OFFCURVE",
"1009 592 OFFCURVE",
"1032 700 CURVE SMOOTH",
"1042 747 LINE",
"863 747 LINE",
"856 715 LINE SMOOTH",
"845 666 OFFCURVE",
"813 633 OFFCURVE",
"733 633 CURVE",
"678 685 OFFCURVE",
"598 714 OFFCURVE",
"506 714 CURVE SMOOTH",
"275 714 OFFCURVE",
"96 568 OFFCURVE",
"49 349 CURVE SMOOTH",
"3 131 OFFCURVE",
"156 -15 OFFCURVE",
"351 -15 CURVE SMOOTH"
);
},
{
closed = 1;
nodes = (
"295 208 OFFCURVE",
"271 260 OFFCURVE",
"290 349 CURVE SMOOTH",
"308 437 OFFCURVE",
"380 490 OFFCURVE",
"459 490 CURVE SMOOTH",
"557 490 OFFCURVE",
"585 437 OFFCURVE",
"567 349 CURVE SMOOTH",
"548 260 OFFCURVE",
"476 208 OFFCURVE",
"399 208 CURVE SMOOTH"
);
},
{
closed = 1;
nodes = (
"592 742 LINE",
"725 923 LINE",
"508 923 LINE",
"402 742 LINE"
);
}
);
width = 919;
}
);
leftKerningGroup = O;
note = Ohornacute;
rightKerningGroup = O;
unicode = 1EDA;
},
{
glyphname = Ohorndotbelow;
lastChange = "2015-10-29 02:55:26 +0000";
layers = (
{
layerId = "EF7A456C-05AE-460A-9046-2BAC18FBC939";
name = Bold;
paths = (
{
closed = 1;
nodes = (
"582 -15 OFFCURVE",
"762 131 OFFCURVE",
"808 349 CURVE SMOOTH",
"819 400 OFFCURVE",
"819 447 OFFCURVE",
"811 489 CURVE",
"933 508 OFFCURVE",
"1009 592 OFFCURVE",
"1032 700 CURVE SMOOTH",
"1042 747 LINE",
"863 747 LINE",
"856 715 LINE SMOOTH",
"845 666 OFFCURVE",
"813 633 OFFCURVE",
"733 633 CURVE",
"678 685 OFFCURVE",
"598 714 OFFCURVE",
"506 714 CURVE SMOOTH",
"275 714 OFFCURVE",
"96 568 OFFCURVE",
"49 349 CURVE SMOOTH",
"3 131 OFFCURVE",
"156 -15 OFFCURVE",
"351 -15 CURVE SMOOTH"
);
},
{
closed = 1;
nodes = (
"295 208 OFFCURVE",
"271 260 OFFCURVE",
"290 349 CURVE SMOOTH",
"308 437 OFFCURVE",
"380 490 OFFCURVE",
"459 490 CURVE SMOOTH",
"557 490 OFFCURVE",
"585 437 OFFCURVE",
"567 349 CURVE SMOOTH",
"548 260 OFFCURVE",
"476 208 OFFCURVE",
"399 208 CURVE SMOOTH"
);
},
{
closed = 1;
nodes = (
"236 -182 OFFCURVE",
"269 -220 OFFCURVE",
"316 -220 CURVE SMOOTH",
"363 -220 OFFCURVE",
"410 -182 OFFCURVE",
"420 -133 CURVE SMOOTH",
"431 -84 OFFCURVE",
"400 -45 OFFCURVE",
"353 -45 CURVE SMOOTH",
"306 -45 OFFCURVE",
"257 -84 OFFCURVE",
"246 -133 CURVE SMOOTH"
);
}
);
width = 919;
}
);
leftKerningGroup = O;
note = Ohorndotbelow;
rightKerningGroup = O;
unicode = 1EE2;
},
{
glyphname = Ohorngrave;
lastChange = "2015-10-29 02:55:26 +0000";
layers = (
{
layerId = "EF7A456C-05AE-460A-9046-2BAC18FBC939";
name = Bold;
paths = (
{
closed = 1;
nodes = (
"582 -15 OFFCURVE",
"762 131 OFFCURVE",
"808 349 CURVE SMOOTH",
"819 400 OFFCURVE",
"819 447 OFFCURVE",
"811 489 CURVE",
"933 508 OFFCURVE",
"1009 592 OFFCURVE",
"1032 700 CURVE SMOOTH",
"1042 747 LINE",
"863 747 LINE",
"856 715 LINE SMOOTH",
"845 666 OFFCURVE",
"813 633 OFFCURVE",
"733 633 CURVE",
"678 685 OFFCURVE",
"598 714 OFFCURVE",
"506 714 CURVE SMOOTH",
"275 714 OFFCURVE",
"96 568 OFFCURVE",
"49 349 CURVE SMOOTH",
"3 131 OFFCURVE",
"156 -15 OFFCURVE",
"351 -15 CURVE SMOOTH"
);
},
{
closed = 1;
nodes = (
"295 208 OFFCURVE",
"271 260 OFFCURVE",
"290 349 CURVE SMOOTH",
"308 437 OFFCURVE",
"380 490 OFFCURVE",
"459 490 CURVE SMOOTH",
"557 490 OFFCURVE",
"585 437 OFFCURVE",
"567 349 CURVE SMOOTH",
"548 260 OFFCURVE",
"476 208 OFFCURVE",
"399 208 CURVE SMOOTH"
);
},
{
closed = 1;
nodes = (
"579 742 LINE",
"549 923 LINE",
"332 923 LINE",
"389 742 LINE"
);
}
);
width = 919;
}
);
leftKerningGroup = O;
note = Ohorngrave;
rightKerningGroup = O;
unicode = 1EDC;
},
{
glyphname = Ohornhookabove;
lastChange = "2015-10-29 02:55:26 +0000";
layers = (
{
layerId = "EF7A456C-05AE-460A-9046-2BAC18FBC939";
name = Bold;
paths = (
{
closed = 1;
nodes = (
"582 -15 OFFCURVE",
"762 131 OFFCURVE",
"808 349 CURVE SMOOTH",
"819 400 OFFCURVE",
"819 447 OFFCURVE",
"811 489 CURVE",
"933 508 OFFCURVE",
"1009 592 OFFCURVE",
"1032 700 CURVE SMOOTH",
"1042 747 LINE",
"863 747 LINE",
"856 715 LINE SMOOTH",
"845 666 OFFCURVE",
"813 633 OFFCURVE",
"733 633 CURVE",
"678 685 OFFCURVE",
"598 714 OFFCURVE",
"506 714 CURVE SMOOTH",
"275 714 OFFCURVE",
"96 568 OFFCURVE",
"49 349 CURVE SMOOTH",
"3 131 OFFCURVE",
"156 -15 OFFCURVE",
"351 -15 CURVE SMOOTH"
);
},
{
closed = 1;
nodes = (
"295 208 OFFCURVE",
"271 260 OFFCURVE",
"290 349 CURVE SMOOTH",
"308 437 OFFCURVE",
"380 490 OFFCURVE",
"459 490 CURVE SMOOTH",
"557 490 OFFCURVE",
"585 437 OFFCURVE",
"567 349 CURVE SMOOTH",
"548 260 OFFCURVE",
"476 208 OFFCURVE",
"399 208 CURVE SMOOTH"
);
},
{
closed = 1;
nodes = (
"714 940 OFFCURVE",
"665 981 OFFCURVE",
"546 981 CURVE SMOOTH",
"502 981 OFFCURVE",
"437 972 OFFCURVE",
"401 962 CURVE",
"383 877 LINE",
"396 881 OFFCURVE",
"421 886 OFFCURVE",
"441 886 CURVE SMOOTH",
"482 886 OFFCURVE",
"498 876 OFFCURVE",
"494 854 CURVE",
"488 827 OFFCURVE",
"466 816 OFFCURVE",
"410 816 CURVE",
"394 742 LINE",
"581 742 LINE",
"589 782 LINE",
"646 798 OFFCURVE",
"689 825 OFFCURVE",
"701 877 CURVE SMOOTH"
);
}
);
width = 919;
}
);
leftKerningGroup = O;
note = Ohornhookabove;
rightKerningGroup = O;
unicode = 1EDE;
},
{
glyphname = Ohorntilde;
lastChange = "2015-10-29 02:55:27 +0000";
layers = (
{
layerId = "EF7A456C-05AE-460A-9046-2BAC18FBC939";
name = Bold;
paths = (
{
closed = 1;
nodes = (
"582 -15 OFFCURVE",
"762 131 OFFCURVE",
"808 349 CURVE SMOOTH",
"819 400 OFFCURVE",
"819 447 OFFCURVE",
"811 489 CURVE",
"933 508 OFFCURVE",
"1009 592 OFFCURVE",
"1032 700 CURVE SMOOTH",
"1042 747 LINE",
"863 747 LINE",
"856 715 LINE SMOOTH",
"845 666 OFFCURVE",
"813 633 OFFCURVE",
"733 633 CURVE",
"678 685 OFFCURVE",
"598 714 OFFCURVE",
"506 714 CURVE SMOOTH",
"275 714 OFFCURVE",
"96 568 OFFCURVE",
"49 349 CURVE SMOOTH",
"3 131 OFFCURVE",
"156 -15 OFFCURVE",
"351 -15 CURVE SMOOTH"
);
},
{
closed = 1;
nodes = (
"295 208 OFFCURVE",
"271 260 OFFCURVE",
"290 349 CURVE SMOOTH",
"308 437 OFFCURVE",
"380 490 OFFCURVE",
"459 490 CURVE SMOOTH",
"557 490 OFFCURVE",
"585 437 OFFCURVE",
"567 349 CURVE SMOOTH",
"548 260 OFFCURVE",
"476 208 OFFCURVE",
"399 208 CURVE SMOOTH"
);
},
{
closed = 1;
nodes = (
"584 886 OFFCURVE",
"524 936 OFFCURVE",
"456 936 CURVE SMOOTH",
"410 936 OFFCURVE",
"369 925 OFFCURVE",
"337 896 CURVE",
"305 743 LINE",
"343 777 OFFCURVE",
"383 792 OFFCURVE",
"425 792 CURVE SMOOTH",
"489 792 OFFCURVE",
"545 742 OFFCURVE",
"618 742 CURVE SMOOTH",
"664 742 OFFCURVE",
"704 753 OFFCURVE",
"736 782 CURVE",
"768 935 LINE",
"730 901 OFFCURVE",
"691 886 OFFCURVE",
"649 886 CURVE SMOOTH"
);
}
);
width = 919;
}
);
leftKerningGroup = O;
note = Ohorntilde;
rightKerningGroup = O;
unicode = 1EE0;
},
{
glyphname = Ohungarumlaut;
lastChange = "2015-10-29 02:55:28 +0000";
layers = (
{
layerId = "EF7A456C-05AE-460A-9046-2BAC18FBC939";
name = Bold;
paths = (
{
closed = 1;
nodes = (
"295 208 OFFCURVE",
"271 260 OFFCURVE",
"290 349 CURVE SMOOTH",
"308 437 OFFCURVE",
"380 490 OFFCURVE",
"459 490 CURVE SMOOTH",
"557 490 OFFCURVE",
"585 437 OFFCURVE",
"567 349 CURVE SMOOTH",
"548 260 OFFCURVE",
"476 208 OFFCURVE",
"399 208 CURVE SMOOTH"
);
},
{
closed = 1;
nodes = (
"582 -15 OFFCURVE",
"761 131 OFFCURVE",
"808 349 CURVE SMOOTH",
"854 568 OFFCURVE",
"712 714 OFFCURVE",
"506 714 CURVE SMOOTH",
"275 714 OFFCURVE",
"95 568 OFFCURVE",
"49 349 CURVE SMOOTH",
"2 131 OFFCURVE",
"156 -15 OFFCURVE",
"351 -15 CURVE SMOOTH"
);
},
{
closed = 1;
nodes = (
"433 742 LINE",
"566 923 LINE",
"350 923 LINE",
"244 742 LINE"
);
},
{
closed = 1;
nodes = (
"713 742 LINE",
"846 923 LINE",
"629 923 LINE",
"523 742 LINE"
);
}
);
width = 789;
}
);
leftKerningGroup = O;
note = Ohungarumlaut;
rightKerningGroup = O;
unicode = 0150;
},
{
glyphname = Omacron;
lastChange = "2015-10-29 02:55:27 +0000";
layers = (
{
layerId = "EF7A456C-05AE-460A-9046-2BAC18FBC939";
name = Bold;
paths = (
{
closed = 1;
nodes = (
"295 208 OFFCURVE",
"271 260 OFFCURVE",
"290 349 CURVE SMOOTH",
"308 437 OFFCURVE",
"380 490 OFFCURVE",
"459 490 CURVE SMOOTH",
"557 490 OFFCURVE",
"585 437 OFFCURVE",
"567 349 CURVE SMOOTH",
"548 260 OFFCURVE",
"476 208 OFFCURVE",
"399 208 CURVE SMOOTH"
);
},
{
closed = 1;
nodes = (
"582 -15 OFFCURVE",
"761 131 OFFCURVE",
"808 349 CURVE SMOOTH",
"854 568 OFFCURVE",
"712 714 OFFCURVE",
"506 714 CURVE SMOOTH",
"275 714 OFFCURVE",
"95 568 OFFCURVE",
"49 349 CURVE SMOOTH",
"2 131 OFFCURVE",
"156 -15 OFFCURVE",
"351 -15 CURVE SMOOTH"
);
},
{
closed = 1;
nodes = (
"674 742 LINE",
"705 885 LINE",
"339 885 LINE",
"308 742 LINE"
);
}
);
width = 789;
}
);
leftKerningGroup = O;
note = Omacron;
rightKerningGroup = O;
unicode = 014C;
},
{
glyphname = Oslash;
lastChange = "2015-10-29 02:55:26 +0000";
layers = (
{
layerId = "EF7A456C-05AE-460A-9046-2BAC18FBC939";
name = Bold;
paths = (
{
closed = 1;
nodes = (
"582 -15 OFFCURVE",
"761 131 OFFCURVE",
"808 349 CURVE SMOOTH",
"839 499 OFFCURVE",
"783 614 OFFCURVE",
"678 672 CURVE",
"747 784 LINE",
"636 784 LINE",
"588 706 LINE",
"562 711 OFFCURVE",
"534 714 OFFCURVE",
"506 714 CURVE SMOOTH",
"275 714 OFFCURVE",
"95 568 OFFCURVE",
"49 349 CURVE SMOOTH",
"18 204 OFFCURVE",
"75 91 OFFCURVE",
"174 31 CURVE",
"102 -86 LINE",
"212 -86 LINE",
"262 -4 LINE",
"290 -11 OFFCURVE",
"320 -15 OFFCURVE",
"351 -15 CURVE SMOOTH"
);
},
{
closed = 1;
nodes = (
"392 208 LINE",
"548 462 LINE",
"572 438 OFFCURVE",
"577 399 OFFCURVE",
"567 349 CURVE SMOOTH",
"548 260 OFFCURVE",
"476 208 OFFCURVE",
"399 208 CURVE SMOOTH"
);
},
{
closed = 1;
nodes = (
"307 435 OFFCURVE",
"378 488 OFFCURVE",
"455 490 CURVE",
"302 240 LINE",
"282 264 OFFCURVE",
"280 301 OFFCURVE",
"290 349 CURVE SMOOTH"
);
}
);
width = 789;
}
);
leftKerningGroup = O;
note = Oslash;
rightKerningGroup = O;
unicode = 00D8;
},
{
glyphname = Oslashacute;
lastChange = "2015-10-29 02:55:26 +0000";
layers = (
{
layerId = "EF7A456C-05AE-460A-9046-2BAC18FBC939";
name = Bold;
paths = (
{
closed = 1;
nodes = (
"582 -15 OFFCURVE",
"762 131 OFFCURVE",
"808 349 CURVE SMOOTH",
"840 499 OFFCURVE",
"783 614 OFFCURVE",
"678 672 CURVE",
"747 784 LINE",
"636 784 LINE",
"588 706 LINE",
"562 711 OFFCURVE",
"534 714 OFFCURVE",
"506 714 CURVE SMOOTH",
"275 714 OFFCURVE",
"96 568 OFFCURVE",
"49 349 CURVE SMOOTH",
"18 204 OFFCURVE",
"75 91 OFFCURVE",
"174 32 CURVE",
"102 -86 LINE",
"212 -86 LINE",
"262 -4 LINE",
"290 -11 OFFCURVE",
"320 -15 OFFCURVE",
"351 -15 CURVE SMOOTH"
);
},
{
closed = 1;
nodes = (
"392 208 LINE",
"548 462 LINE",
"572 438 OFFCURVE",
"577 399 OFFCURVE",
"567 349 CURVE SMOOTH",
"548 260 OFFCURVE",
"476 208 OFFCURVE",
"399 208 CURVE SMOOTH"
);
},
{
closed = 1;
nodes = (
"307 435 OFFCURVE",
"378 488 OFFCURVE",
"455 490 CURVE",
"302 240 LINE",
"282 264 OFFCURVE",
"280 301 OFFCURVE",
"290 349 CURVE SMOOTH"
);
},
{
closed = 1;
nodes = (
"538 742 LINE",
"671 923 LINE",
"454 923 LINE",
"348 742 LINE"
);
}
);
width = 789;
}
);
leftKerningGroup = O;
note = Oslashacute;
rightKerningGroup = O;
unicode = 01FE;
},
{
glyphname = Otilde;
lastChange = "2015-10-29 02:55:24 +0000";
layers = (
{
layerId = "EF7A456C-05AE-460A-9046-2BAC18FBC939";
name = Bold;
paths = (
{
closed = 1;
nodes = (
"295 208 OFFCURVE",
"271 260 OFFCURVE",
"290 349 CURVE SMOOTH",
"308 437 OFFCURVE",
"380 490 OFFCURVE",
"459 490 CURVE SMOOTH",
"557 490 OFFCURVE",
"585 437 OFFCURVE",
"567 349 CURVE SMOOTH",
"548 260 OFFCURVE",
"476 208 OFFCURVE",
"399 208 CURVE SMOOTH"
);
},
{
closed = 1;
nodes = (
"582 -15 OFFCURVE",
"761 131 OFFCURVE",
"808 349 CURVE SMOOTH",
"854 568 OFFCURVE",
"712 714 OFFCURVE",
"506 714 CURVE SMOOTH",
"275 714 OFFCURVE",
"95 568 OFFCURVE",
"49 349 CURVE SMOOTH",
"2 131 OFFCURVE",
"156 -15 OFFCURVE",
"351 -15 CURVE SMOOTH"
);
},
{
closed = 1;
nodes = (
"562 898 OFFCURVE",
"502 948 OFFCURVE",
"434 948 CURVE SMOOTH",
"388 948 OFFCURVE",
"347 937 OFFCURVE",
"315 908 CURVE",
"283 755 LINE",
"321 789 OFFCURVE",
"361 804 OFFCURVE",
"403 804 CURVE SMOOTH",
"467 804 OFFCURVE",
"523 754 OFFCURVE",
"596 754 CURVE SMOOTH",
"642 754 OFFCURVE",
"682 765 OFFCURVE",
"714 794 CURVE",
"746 947 LINE",
"708 913 OFFCURVE",
"669 898 OFFCURVE",
"627 898 CURVE SMOOTH"
);
}
);
width = 789;
}
);
leftKerningGroup = O;
note = Otilde;
rightKerningGroup = O;
unicode = 00D5;
},
{
glyphname = OE;
lastChange = "2015-10-29 02:55:25 +0000";
layers = (
{
layerId = "EF7A456C-05AE-460A-9046-2BAC18FBC939";
name = Bold;
paths = (
{
closed = 1;
nodes = (
"693 500 LINE",
"944 500 LINE",
"986 699 LINE",
"521 699 LINE SMOOTH",
"277 699 OFFCURVE",
"95 568 OFFCURVE",
"49 349 CURVE SMOOTH",
"2 131 OFFCURVE",
"154 0 OFFCURVE",
"373 0 CURVE SMOOTH",
"838 0 LINE",
"880 199 LINE",
"629 199 LINE",
"642 260 LINE",
"811 260 LINE",
"849 439 LINE",
"680 439 LINE"
);
},
{
closed = 1;
nodes = (
"397 223 LINE",
"291 223 OFFCURVE",
"273 268 OFFCURVE",
"290 349 CURVE SMOOTH",
"308 437 OFFCURVE",
"366 475 OFFCURVE",
"450 475 CURVE"
);
}
);
width = 893;
}
);
leftKerningGroup = O;
note = OE;
rightKerningGroup = E;
unicode = 0152;
},
{
glyphname = P;
lastChange = "2015-10-29 02:55:26 +0000";
layers = (
{
layerId = "EF7A456C-05AE-460A-9046-2BAC18FBC939";
name = Bold;
paths = (
{
closed = 1;
nodes = (
"371 191 LINE SMOOTH",
"564 191 OFFCURVE",
"671 276 OFFCURVE",
"707 445 CURVE SMOOTH",
"743 614 OFFCURVE",
"629 699 OFFCURVE",
"479 699 CURVE SMOOTH",
"143 699 LINE",
"-5 0 LINE",
"232 0 LINE",
"272 191 LINE"
);
},
{
closed = 1;
nodes = (
"310 368 LINE",
"342 522 LINE",
"393 522 LINE SMOOTH",
"452 522 OFFCURVE",
"481 504 OFFCURVE",
"468 445 CURVE SMOOTH",
"456 386 OFFCURVE",
"427 368 OFFCURVE",
"361 368 CURVE SMOOTH"
);
}
);
width = 658;
}
);
note = P;
unicode = 0050;
},
{
glyphname = Thorn;
lastChange = "2015-10-29 02:55:24 +0000";
layers = (
{
layerId = "EF7A456C-05AE-460A-9046-2BAC18FBC939";
name = Bold;
paths = (
{
closed = 1;
nodes = (
"352 99 LINE SMOOTH",
"520 99 OFFCURVE",
"652 184 OFFCURVE",
"688 353 CURVE SMOOTH",
"723 522 OFFCURVE",
"628 607 OFFCURVE",
"460 607 CURVE SMOOTH",
"361 607 LINE",
"380 699 LINE",
"143 699 LINE",
"-5 0 LINE",
"232 0 LINE",
"253 99 LINE"
);
},
{
closed = 1;
nodes = (
"291 278 LINE",
"322 428 LINE",
"371 428 LINE SMOOTH",
"422 428 OFFCURVE",
"459 412 OFFCURVE",
"447 353 CURVE SMOOTH",
"434 294 OFFCURVE",
"391 278 OFFCURVE",
"340 278 CURVE SMOOTH"
);
}
);
width = 658;
}
);
note = Thorn;
unicode = 00DE;
},
{
glyphname = Q;
lastChange = "2015-10-29 02:55:27 +0000";
layers = (
{
layerId = "EF7A456C-05AE-460A-9046-2BAC18FBC939";
name = Bold;
paths = (
{
closed = 1;
nodes = (
"756 0 LINE",
"792 173 LINE",
"690 173 LINE",
"743 213 OFFCURVE",
"797 299 OFFCURVE",
"810 361 CURVE SMOOTH",
"857 580 OFFCURVE",
"731 714 OFFCURVE",
"506 714 CURVE SMOOTH",
"264 714 OFFCURVE",
"95 568 OFFCURVE",
"49 349 CURVE SMOOTH",
"2 131 OFFCURVE",
"139 0 OFFCURVE",
"383 0 CURVE SMOOTH"
);
},
{
closed = 1;
nodes = (
"312 208 OFFCURVE",
"271 260 OFFCURVE",
"290 349 CURVE SMOOTH",
"308 437 OFFCURVE",
"380 490 OFFCURVE",
"459 490 CURVE SMOOTH",
"553 490 OFFCURVE",
"585 437 OFFCURVE",
"567 349 CURVE SMOOTH",
"548 260 OFFCURVE",
"476 208 OFFCURVE",
"399 208 CURVE SMOOTH"
);
}
);
width = 796;
}
);
leftKerningGroup = O;
note = Q;
rightKerningGroup = O;
unicode = 0051;
},
{
glyphname = R;
lastChange = "2015-10-29 02:55:27 +0000";
layers = (
{
layerId = "EF7A456C-05AE-460A-9046-2BAC18FBC939";
name = Bold;
paths = (
{
closed = 1;
nodes = (
"313 191 LINE",
"365 0 LINE",
"604 0 LINE",
"542 227 LINE",
"624 267 OFFCURVE",
"684 339 OFFCURVE",
"707 445 CURVE SMOOTH",
"741 600 OFFCURVE",
"647 699 OFFCURVE",
"479 699 CURVE SMOOTH",
"143 699 LINE",
"-5 0 LINE",
"228 0 LINE",
"268 191 LINE"
);
},
{
closed = 1;
nodes = (
"306 368 LINE",
"338 522 LINE",
"391 522 LINE SMOOTH",
"442 522 OFFCURVE",
"479 504 OFFCURVE",
"466 445 CURVE SMOOTH",
"454 386 OFFCURVE",
"410 368 OFFCURVE",
"359 368 CURVE SMOOTH"
);
}
);
width = 668;
}
);
note = R;
rightKerningGroup = R;
unicode = 0052;
},
{
glyphname = Racute;
lastChange = "2015-10-29 02:55:24 +0000";
layers = (
{
layerId = "EF7A456C-05AE-460A-9046-2BAC18FBC939";
name = Bold;
paths = (
{
closed = 1;
nodes = (
"268 191 LINE",
"228 0 LINE",
"-5 0 LINE",
"143 699 LINE",
"479 699 LINE SMOOTH",
"647 699 OFFCURVE",
"741 600 OFFCURVE",
"707 445 CURVE SMOOTH",
"684 339 OFFCURVE",
"624 267 OFFCURVE",
"542 227 CURVE",
"604 0 LINE",
"365 0 LINE",
"313 191 LINE"
);
},
{
closed = 1;
nodes = (
"359 368 LINE SMOOTH",
"410 368 OFFCURVE",
"454 386 OFFCURVE",
"466 445 CURVE SMOOTH",
"479 504 OFFCURVE",
"442 522 OFFCURVE",
"391 522 CURVE SMOOTH",
"338 522 LINE",
"306 368 LINE"
);
},
{
closed = 1;
nodes = (
"464 742 LINE",
"597 923 LINE",
"380 923 LINE",
"274 742 LINE"
);
}
);
width = 668;
}
);
note = Racute;
rightKerningGroup = R;
unicode = 0154;
},
{
glyphname = Rcaron;
lastChange = "2015-10-29 02:55:25 +0000";
layers = (
{
layerId = "EF7A456C-05AE-460A-9046-2BAC18FBC939";
name = Bold;
paths = (
{
closed = 1;
nodes = (
"268 191 LINE",
"228 0 LINE",
"-5 0 LINE",
"143 699 LINE",
"479 699 LINE SMOOTH",
"647 699 OFFCURVE",
"741 600 OFFCURVE",
"707 445 CURVE SMOOTH",
"684 339 OFFCURVE",
"624 267 OFFCURVE",
"542 227 CURVE",
"604 0 LINE",
"365 0 LINE",
"313 191 LINE"
);
},
{
closed = 1;
nodes = (
"359 368 LINE SMOOTH",
"410 368 OFFCURVE",
"454 386 OFFCURVE",
"466 445 CURVE SMOOTH",
"479 504 OFFCURVE",
"442 522 OFFCURVE",
"391 522 CURVE SMOOTH",
"338 522 LINE",
"306 368 LINE"
);
},
{
closed = 1;
nodes = (
"541 742 LINE",
"746 933 LINE",
"535 933 LINE",
"459 853 LINE",
"417 933 LINE",
"215 933 LINE",
"339 742 LINE"
);
}
);
width = 668;
}
);
note = Rcaron;
rightKerningGroup = R;
unicode = 0158;
},
{
glyphname = Rcommaaccent;
lastChange = "2015-10-29 02:55:26 +0000";
layers = (
{
layerId = "EF7A456C-05AE-460A-9046-2BAC18FBC939";
name = Bold;
paths = (
{
closed = 1;
nodes = (
"313 191 LINE",
"365 0 LINE",
"604 0 LINE",
"542 227 LINE",
"624 267 OFFCURVE",
"684 339 OFFCURVE",
"707 445 CURVE SMOOTH",
"741 600 OFFCURVE",
"647 699 OFFCURVE",
"479 699 CURVE SMOOTH",
"143 699 LINE",
"-5 0 LINE",
"228 0 LINE",
"268 191 LINE"
);
},
{
closed = 1;
nodes = (
"306 368 LINE",
"338 522 LINE",
"391 522 LINE SMOOTH",
"442 522 OFFCURVE",
"479 504 OFFCURVE",
"466 445 CURVE SMOOTH",
"454 386 OFFCURVE",
"410 368 OFFCURVE",
"359 368 CURVE SMOOTH"
);
},
{
closed = 1;
nodes = (
"237 -259 LINE",
"395 -41 LINE",
"183 -41 LINE",
"53 -259 LINE"
);
}
);
width = 668;
}
);
note = Rcommaaccent;
rightKerningGroup = R;
unicode = 0156;
},
{
glyphname = Rdotbelow;
lastChange = "2015-10-29 02:55:25 +0000";
layers = (
{
layerId = "EF7A456C-05AE-460A-9046-2BAC18FBC939";
name = Bold;
paths = (
{
closed = 1;
nodes = (
"313 191 LINE",
"365 0 LINE",
"604 0 LINE",
"542 227 LINE",
"624 267 OFFCURVE",
"684 339 OFFCURVE",
"707 445 CURVE SMOOTH",
"741 600 OFFCURVE",
"647 699 OFFCURVE",
"479 699 CURVE SMOOTH",
"143 699 LINE",
"-5 0 LINE",
"228 0 LINE",
"268 191 LINE"
);
},
{
closed = 1;
nodes = (
"306 368 LINE",
"338 522 LINE",
"391 522 LINE SMOOTH",
"442 522 OFFCURVE",
"479 504 OFFCURVE",
"466 445 CURVE SMOOTH",
"454 386 OFFCURVE",
"410 368 OFFCURVE",
"359 368 CURVE SMOOTH"
);
},
{
closed = 1;
nodes = (
"157 -182 OFFCURVE",
"190 -220 OFFCURVE",
"237 -220 CURVE SMOOTH",
"284 -220 OFFCURVE",
"331 -182 OFFCURVE",
"341 -133 CURVE SMOOTH",
"352 -84 OFFCURVE",
"321 -45 OFFCURVE",
"274 -45 CURVE SMOOTH",
"227 -45 OFFCURVE",
"178 -84 OFFCURVE",
"167 -133 CURVE SMOOTH"
);
}
);
width = 668;
}
);
note = Rdotbelow;
rightKerningGroup = R;
unicode = 1E5A;
},
{
glyphname = Rdotbelowmacron;
lastChange = "2015-10-29 02:55:25 +0000";
layers = (
{
layerId = "EF7A456C-05AE-460A-9046-2BAC18FBC939";
name = Bold;
paths = (
{
closed = 1;
nodes = (
"268 191 LINE",
"228 0 LINE",
"-5 0 LINE",
"143 699 LINE",
"479 699 LINE SMOOTH",
"647 699 OFFCURVE",
"741 600 OFFCURVE",
"707 445 CURVE SMOOTH",
"684 339 OFFCURVE",
"624 267 OFFCURVE",
"542 227 CURVE",
"604 0 LINE",
"365 0 LINE",
"313 191 LINE"
);
},
{
closed = 1;
nodes = (
"359 368 LINE SMOOTH",
"410 368 OFFCURVE",
"454 386 OFFCURVE",
"466 445 CURVE SMOOTH",
"479 504 OFFCURVE",
"442 522 OFFCURVE",
"391 522 CURVE SMOOTH",
"338 522 LINE",
"306 368 LINE"
);
},
{
closed = 1;
nodes = (
"143 -182 OFFCURVE",
"176 -220 OFFCURVE",
"223 -220 CURVE SMOOTH",
"270 -220 OFFCURVE",
"317 -182 OFFCURVE",
"327 -133 CURVE SMOOTH",
"338 -84 OFFCURVE",
"307 -45 OFFCURVE",
"260 -45 CURVE SMOOTH",
"213 -45 OFFCURVE",
"164 -84 OFFCURVE",
"153 -133 CURVE SMOOTH"
);
},
{
closed = 1;
nodes = (
"588 742 LINE",
"619 885 LINE",
"253 885 LINE",
"222 742 LINE"
);
}
);
width = 668;
}
);
note = Rdotbelowmacron;
rightKerningGroup = R;
unicode = 1E5C;
},
{
glyphname = Rlinebelow;
lastChange = "2015-10-29 02:55:23 +0000";
layers = (
{
layerId = "EF7A456C-05AE-460A-9046-2BAC18FBC939";
name = Bold;
paths = (
{
closed = 1;
nodes = (
"313 191 LINE",
"365 0 LINE",
"604 0 LINE",
"542 227 LINE",
"624 267 OFFCURVE",
"684 339 OFFCURVE",
"707 445 CURVE SMOOTH",
"741 600 OFFCURVE",
"647 699 OFFCURVE",
"479 699 CURVE SMOOTH",
"143 699 LINE",
"-5 0 LINE",
"228 0 LINE",
"268 191 LINE"
);
},
{
closed = 1;
nodes = (
"306 368 LINE",
"338 522 LINE",
"391 522 LINE SMOOTH",
"442 522 OFFCURVE",
"479 504 OFFCURVE",
"466 445 CURVE SMOOTH",
"454 386 OFFCURVE",
"410 368 OFFCURVE",
"359 368 CURVE SMOOTH"
);
},
{
closed = 1;
nodes = (
"426 -192 LINE",
"456 -49 LINE",
"90 -49 LINE",
"60 -192 LINE"
);
}
);
width = 668;
}
);
note = Rlinebelow;
rightKerningGroup = R;
unicode = 1E5E;
},
{
glyphname = S;
lastChange = "2015-10-29 02:55:26 +0000";
layers = (
{
layerId = "EF7A456C-05AE-460A-9046-2BAC18FBC939";
name = Bold;
paths = (
{
closed = 1;
nodes = (
"591 312 OFFCURVE",
"563 363 OFFCURVE",
"435 422 CURVE SMOOTH",
"370 452 OFFCURVE",
"331 462 OFFCURVE",
"336 489 CURVE",
"342 513 OFFCURVE",
"375 520 OFFCURVE",
"414 520 CURVE SMOOTH",
"469 520 OFFCURVE",
"528 504 OFFCURVE",
"581 470 CURVE",
"624 669 LINE",
"566 700 OFFCURVE",
"503 714 OFFCURVE",
"411 714 CURVE SMOOTH",
"230 714 OFFCURVE",
"109 624 OFFCURVE",
"82 495 CURVE SMOOTH",
"61 396 OFFCURVE",
"103 332 OFFCURVE",
"218 276 CURVE SMOOTH",
"290 241 OFFCURVE",
"313 229 OFFCURVE",
"308 204 CURVE SMOOTH",
"304 187 OFFCURVE",
"288 179 OFFCURVE",
"247 179 CURVE SMOOTH",
"180 179 OFFCURVE",
"95 199 OFFCURVE",
"26 243 CURVE",
"-18 37 LINE",
"35 5 OFFCURVE",
"133 -15 OFFCURVE",
"224 -15 CURVE SMOOTH",
"449 -15 OFFCURVE",
"540 71 OFFCURVE",
"567 201 CURVE SMOOTH"
);
}
);
width = 580;
}
);
leftKerningGroup = S;
note = S;
rightKerningGroup = S;
unicode = 0053;
},
{
glyphname = Sacute;
lastChange = "2015-10-29 02:55:27 +0000";
layers = (
{
layerId = "EF7A456C-05AE-460A-9046-2BAC18FBC939";
name = Bold;
paths = (
{
closed = 1;
nodes = (
"540 71 OFFCURVE",
"449 -15 OFFCURVE",
"224 -15 CURVE SMOOTH",
"133 -15 OFFCURVE",
"35 5 OFFCURVE",
"-18 37 CURVE",
"26 243 LINE",
"95 199 OFFCURVE",
"180 179 OFFCURVE",
"247 179 CURVE SMOOTH",
"288 179 OFFCURVE",
"304 187 OFFCURVE",
"308 204 CURVE SMOOTH",
"313 229 OFFCURVE",
"290 241 OFFCURVE",
"218 276 CURVE SMOOTH",
"103 332 OFFCURVE",
"61 396 OFFCURVE",
"82 495 CURVE SMOOTH",
"109 624 OFFCURVE",
"230 714 OFFCURVE",
"411 714 CURVE SMOOTH",
"503 714 OFFCURVE",
"566 700 OFFCURVE",
"624 669 CURVE",
"581 470 LINE",
"528 504 OFFCURVE",
"469 520 OFFCURVE",
"414 520 CURVE SMOOTH",
"375 520 OFFCURVE",
"342 513 OFFCURVE",
"336 489 CURVE",
"331 462 OFFCURVE",
"370 452 OFFCURVE",
"435 422 CURVE SMOOTH",
"563 363 OFFCURVE",
"591 312 OFFCURVE",
"567 201 CURVE SMOOTH"
);
},
{
closed = 1;
nodes = (
"473 742 LINE",
"606 923 LINE",
"389 923 LINE",
"283 742 LINE"
);
}
);
width = 580;
}
);
leftKerningGroup = S;
note = Sacute;
rightKerningGroup = S;
unicode = 015A;
},
{
glyphname = Scaron;
lastChange = "2015-10-29 02:55:27 +0000";
layers = (
{
layerId = "EF7A456C-05AE-460A-9046-2BAC18FBC939";
name = Bold;
paths = (
{
closed = 1;
nodes = (
"542 71 OFFCURVE",
"451 -15 OFFCURVE",
"226 -15 CURVE SMOOTH",
"135 -15 OFFCURVE",
"37 5 OFFCURVE",
"-16 37 CURVE",
"28 243 LINE",
"97 199 OFFCURVE",
"182 179 OFFCURVE",
"249 179 CURVE SMOOTH",
"290 179 OFFCURVE",
"306 187 OFFCURVE",
"310 204 CURVE SMOOTH",
"315 229 OFFCURVE",
"292 241 OFFCURVE",
"220 276 CURVE SMOOTH",
"105 332 OFFCURVE",
"63 396 OFFCURVE",
"84 495 CURVE SMOOTH",
"111 624 OFFCURVE",
"232 714 OFFCURVE",
"413 714 CURVE SMOOTH",
"505 714 OFFCURVE",
"568 700 OFFCURVE",
"626 669 CURVE",
"583 470 LINE",
"530 504 OFFCURVE",
"471 520 OFFCURVE",
"416 520 CURVE SMOOTH",
"377 520 OFFCURVE",
"344 513 OFFCURVE",
"338 489 CURVE",
"333 462 OFFCURVE",
"372 452 OFFCURVE",
"437 422 CURVE SMOOTH",
"565 363 OFFCURVE",
"593 312 OFFCURVE",
"569 201 CURVE SMOOTH"
);
},
{
closed = 1;
nodes = (
"479 742 LINE",
"684 933 LINE",
"473 933 LINE",
"397 853 LINE",
"355 933 LINE",
"153 933 LINE",
"277 742 LINE"
);
}
);
width = 582;
}
);
leftKerningGroup = S;
note = Scaron;
rightKerningGroup = S;
unicode = 0160;
},
{
glyphname = Scedilla;
lastChange = "2015-10-29 02:55:26 +0000";
layers = (
{
layerId = "EF7A456C-05AE-460A-9046-2BAC18FBC939";
name = Bold;
paths = (
{
closed = 1;
nodes = (
"371 -88 OFFCURVE",
"341 -57 OFFCURVE",
"285 -49 CURVE",
"309 -10 LINE",
"472 10 OFFCURVE",
"543 89 OFFCURVE",
"567 201 CURVE SMOOTH",
"591 312 OFFCURVE",
"563 363 OFFCURVE",
"435 422 CURVE SMOOTH",
"370 452 OFFCURVE",
"331 462 OFFCURVE",
"336 489 CURVE",
"342 513 OFFCURVE",
"375 520 OFFCURVE",
"414 520 CURVE SMOOTH",
"469 520 OFFCURVE",
"528 504 OFFCURVE",
"581 470 CURVE",
"624 669 LINE",
"566 700 OFFCURVE",
"503 714 OFFCURVE",
"411 714 CURVE SMOOTH",
"230 714 OFFCURVE",
"109 624 OFFCURVE",
"82 495 CURVE SMOOTH",
"61 396 OFFCURVE",
"103 332 OFFCURVE",
"218 276 CURVE SMOOTH",
"290 241 OFFCURVE",
"313 229 OFFCURVE",
"308 204 CURVE SMOOTH",
"304 187 OFFCURVE",
"288 179 OFFCURVE",
"247 179 CURVE SMOOTH",
"180 179 OFFCURVE",
"95 199 OFFCURVE",
"26 243 CURVE",
"-18 37 LINE",
"21 13 OFFCURVE",
"84 -3 OFFCURVE",
"151 -11 CURVE",
"118 -76 LINE",
"185 -76 OFFCURVE",
"200 -97 OFFCURVE",
"194 -126 CURVE SMOOTH",
"189 -147 OFFCURVE",
"171 -165 OFFCURVE",
"133 -165 CURVE SMOOTH",
"110 -165 OFFCURVE",
"90 -158 OFFCURVE",
"76 -149 CURVE",
"56 -232 LINE",
"78 -241 OFFCURVE",
"117 -248 OFFCURVE",
"171 -248 CURVE SMOOTH",
"293 -248 OFFCURVE",
"348 -195 OFFCURVE",
"360 -137 CURVE SMOOTH"
);
}
);
width = 580;
}
);
leftKerningGroup = S;
note = Scedilla;
rightKerningGroup = S;
unicode = 015E;
},
{
glyphname = Scircumflex;
lastChange = "2015-10-29 02:55:26 +0000";
layers = (
{
layerId = "EF7A456C-05AE-460A-9046-2BAC18FBC939";
name = Bold;
paths = (
{
closed = 1;
nodes = (
"540 71 OFFCURVE",
"449 -15 OFFCURVE",
"224 -15 CURVE SMOOTH",
"133 -15 OFFCURVE",
"35 5 OFFCURVE",
"-18 37 CURVE",
"26 243 LINE",
"95 199 OFFCURVE",
"180 179 OFFCURVE",
"247 179 CURVE SMOOTH",
"288 179 OFFCURVE",
"304 187 OFFCURVE",
"308 204 CURVE SMOOTH",
"313 229 OFFCURVE",
"290 241 OFFCURVE",
"218 276 CURVE SMOOTH",
"103 332 OFFCURVE",
"61 396 OFFCURVE",
"82 495 CURVE SMOOTH",
"109 624 OFFCURVE",
"230 714 OFFCURVE",
"411 714 CURVE SMOOTH",
"503 714 OFFCURVE",
"566 700 OFFCURVE",
"624 669 CURVE",
"581 470 LINE",
"528 504 OFFCURVE",
"469 520 OFFCURVE",
"414 520 CURVE SMOOTH",
"375 520 OFFCURVE",
"342 513 OFFCURVE",
"336 489 CURVE",
"331 462 OFFCURVE",
"370 452 OFFCURVE",
"435 422 CURVE SMOOTH",
"563 363 OFFCURVE",
"591 312 OFFCURVE",
"567 201 CURVE SMOOTH"
);
},
{
closed = 1;
nodes = (
"321 933 LINE",
"117 742 LINE",
"327 742 LINE",
"403 822 LINE",
"445 742 LINE",
"648 742 LINE",
"523 933 LINE"
);
}
);
width = 580;
}
);
leftKerningGroup = S;
note = Scircumflex;
rightKerningGroup = S;
unicode = 015C;
},
{
glyphname = Scommaaccent;
lastChange = "2015-10-29 02:55:24 +0000";
layers = (
{
layerId = "EF7A456C-05AE-460A-9046-2BAC18FBC939";
name = Bold;
paths = (
{
closed = 1;
nodes = (
"591 312 OFFCURVE",
"563 363 OFFCURVE",
"435 422 CURVE SMOOTH",
"370 452 OFFCURVE",
"331 462 OFFCURVE",
"336 489 CURVE",
"342 513 OFFCURVE",
"375 520 OFFCURVE",
"414 520 CURVE SMOOTH",
"469 520 OFFCURVE",
"528 504 OFFCURVE",
"581 470 CURVE",
"624 669 LINE",
"566 700 OFFCURVE",
"503 714 OFFCURVE",
"411 714 CURVE SMOOTH",
"230 714 OFFCURVE",
"109 624 OFFCURVE",
"82 495 CURVE SMOOTH",
"61 396 OFFCURVE",
"103 332 OFFCURVE",
"218 276 CURVE SMOOTH",
"290 241 OFFCURVE",
"313 229 OFFCURVE",
"308 204 CURVE SMOOTH",
"304 187 OFFCURVE",
"288 179 OFFCURVE",
"247 179 CURVE SMOOTH",
"180 179 OFFCURVE",
"95 199 OFFCURVE",
"26 243 CURVE",
"-18 37 LINE",
"35 5 OFFCURVE",
"133 -15 OFFCURVE",
"224 -15 CURVE SMOOTH",
"449 -15 OFFCURVE",
"540 71 OFFCURVE",
"567 201 CURVE SMOOTH"
);
},
{
closed = 1;
nodes = (
"208 -259 LINE",
"366 -41 LINE",
"135 -41 LINE",
"4 -259 LINE"
);
}
);
width = 580;
}
);
leftKerningGroup = S;
note = Scommaaccent;
rightKerningGroup = S;
unicode = 0218;
},
{
glyphname = Sdotaccent;
lastChange = "2015-10-29 02:55:25 +0000";
layers = (
{
layerId = "EF7A456C-05AE-460A-9046-2BAC18FBC939";
name = Bold;
paths = (
{
closed = 1;
nodes = (
"540 71 OFFCURVE",
"449 -15 OFFCURVE",
"224 -15 CURVE SMOOTH",
"133 -15 OFFCURVE",
"35 5 OFFCURVE",
"-18 37 CURVE",
"26 243 LINE",
"95 199 OFFCURVE",
"180 179 OFFCURVE",
"247 179 CURVE SMOOTH",
"288 179 OFFCURVE",
"304 187 OFFCURVE",
"308 204 CURVE SMOOTH",
"313 229 OFFCURVE",
"290 241 OFFCURVE",
"218 276 CURVE SMOOTH",
"103 332 OFFCURVE",
"61 396 OFFCURVE",
"82 495 CURVE SMOOTH",
"109 624 OFFCURVE",
"230 714 OFFCURVE",
"411 714 CURVE SMOOTH",
"503 714 OFFCURVE",
"566 700 OFFCURVE",
"624 669 CURVE",
"581 470 LINE",
"528 504 OFFCURVE",
"469 520 OFFCURVE",
"414 520 CURVE SMOOTH",
"375 520 OFFCURVE",
"342 513 OFFCURVE",
"336 489 CURVE",
"331 462 OFFCURVE",
"370 452 OFFCURVE",
"435 422 CURVE SMOOTH",
"563 363 OFFCURVE",
"591 312 OFFCURVE",
"567 201 CURVE SMOOTH"
);
},
{
closed = 1;
nodes = (
"306 780 OFFCURVE",
"339 742 OFFCURVE",
"386 742 CURVE SMOOTH",
"434 742 OFFCURVE",
"481 780 OFFCURVE",
"491 829 CURVE SMOOTH",
"502 878 OFFCURVE",
"471 917 OFFCURVE",
"423 917 CURVE SMOOTH",
"376 917 OFFCURVE",
"327 878 OFFCURVE",
"316 829 CURVE SMOOTH"
);
}
);
width = 580;
}
);
leftKerningGroup = S;
note = Sdotaccent;
rightKerningGroup = S;
unicode = 1E60;
},
{
glyphname = Sdotbelow;
lastChange = "2015-10-29 02:55:24 +0000";
layers = (
{
layerId = "EF7A456C-05AE-460A-9046-2BAC18FBC939";
name = Bold;
paths = (
{
closed = 1;
nodes = (
"591 312 OFFCURVE",
"563 363 OFFCURVE",
"435 422 CURVE SMOOTH",
"370 452 OFFCURVE",
"331 462 OFFCURVE",
"336 489 CURVE",
"342 513 OFFCURVE",
"375 520 OFFCURVE",
"414 520 CURVE SMOOTH",
"469 520 OFFCURVE",
"528 504 OFFCURVE",
"581 470 CURVE",
"624 669 LINE",
"566 700 OFFCURVE",
"503 714 OFFCURVE",
"411 714 CURVE SMOOTH",
"230 714 OFFCURVE",
"109 624 OFFCURVE",
"82 495 CURVE SMOOTH",
"61 396 OFFCURVE",
"103 332 OFFCURVE",
"218 276 CURVE SMOOTH",
"290 241 OFFCURVE",
"313 229 OFFCURVE",
"308 204 CURVE SMOOTH",
"304 187 OFFCURVE",
"288 179 OFFCURVE",
"247 179 CURVE SMOOTH",
"180 179 OFFCURVE",
"95 199 OFFCURVE",
"26 243 CURVE",
"-18 37 LINE",
"35 5 OFFCURVE",
"133 -15 OFFCURVE",
"224 -15 CURVE SMOOTH",
"449 -15 OFFCURVE",
"540 71 OFFCURVE",
"567 201 CURVE SMOOTH"
);
},
{
closed = 1;
nodes = (
"117 -182 OFFCURVE",
"150 -220 OFFCURVE",
"197 -220 CURVE SMOOTH",
"244 -220 OFFCURVE",
"291 -182 OFFCURVE",
"301 -133 CURVE SMOOTH",
"312 -84 OFFCURVE",
"281 -45 OFFCURVE",
"234 -45 CURVE SMOOTH",
"187 -45 OFFCURVE",
"138 -84 OFFCURVE",
"127 -133 CURVE SMOOTH"
);
}
);
width = 580;
}
);
leftKerningGroup = S;
note = Sdotbelow;
rightKerningGroup = S;
unicode = 1E62;
},
{
glyphname = Germandbls;
lastChange = "2015-10-29 02:55:24 +0000";
layers = (
{
layerId = "EF7A456C-05AE-460A-9046-2BAC18FBC939";
name = Bold;
paths = (
{
closed = 1;
nodes = (
"535 -15 OFFCURVE",
"635 50 OFFCURVE",
"661 194 CURVE SMOOTH",
"677 282 OFFCURVE",
"651 345 OFFCURVE",
"572 378 CURVE",
"685 485 LINE",
"695 597 OFFCURVE",
"639 714 OFFCURVE",
"434 714 CURVE SMOOTH",
"209 714 OFFCURVE",
"122 623 OFFCURVE",
"85 450 CURVE SMOOTH",
"-10 0 LINE",
"226 0 LINE",
"328 482 LINE SMOOTH",
"338 528 OFFCURVE",
"360 552 OFFCURVE",
"403 552 CURVE SMOOTH",
"443 552 OFFCURVE",
"452 523 OFFCURVE",
"445 490 CURVE",
"333 384 LINE",
"310 277 LINE",
"363 277 LINE SMOOTH",
"414 277 OFFCURVE",
"433 256 OFFCURVE",
"425 219 CURVE SMOOTH",
"416 178 OFFCURVE",
"391 163 OFFCURVE",
"349 163 CURVE SMOOTH",
"327 163 OFFCURVE",
"303 169 OFFCURVE",
"290 182 CURVE",
"252 3 LINE",
"279 -10 OFFCURVE",
"329 -15 OFFCURVE",
"370 -15 CURVE SMOOTH"
);
}
);
width = 675;
}
);
note = uni1E9E;
unicode = 1E9E;
},
{
glyphname = Schwa;
lastChange = "2015-10-29 02:55:24 +0000";
layers = (
{
layerId = "EF7A456C-05AE-460A-9046-2BAC18FBC939";
name = Bold;
paths = (
{
closed = 1;
nodes = (
"325 180 OFFCURVE",
"299 210 OFFCURVE",
"303 269 CURVE",
"531 269 LINE",
"511 221 OFFCURVE",
"474 180 OFFCURVE",
"400 180 CURVE SMOOTH"
);
},
{
closed = 1;
nodes = (
"66 432 LINE",
"47 343 LINE SMOOTH",
"9 164 OFFCURVE",
"120 -15 OFFCURVE",
"363 -15 CURVE SMOOTH",
"617 -15 OFFCURVE",
"802 152 OFFCURVE",
"845 353 CURVE SMOOTH",
"892 574 OFFCURVE",
"772 714 OFFCURVE",
"484 714 CURVE SMOOTH",
"363 714 OFFCURVE",
"252 693 OFFCURVE",
"171 663 CURVE",
"133 489 LINE",
"210 516 OFFCURVE",
"312 530 OFFCURVE",
"397 530 CURVE SMOOTH",
"526 530 OFFCURVE",
"560 489 OFFCURVE",
"565 432 CURVE"
);
}
);
width = 825;
}
);
note = uni018F;
unicode = 018F;
},
{
glyphname = T;
lastChange = "2015-10-29 02:55:26 +0000";
layers = (
{
layerId = "EF7A456C-05AE-460A-9046-2BAC18FBC939";
name = Bold;
paths = (
{
closed = 1;
nodes = (
"108 699 LINE",
"66 500 LINE",
"245 500 LINE",
"139 0 LINE",
"376 0 LINE",
"482 500 LINE",
"661 500 LINE",
"703 699 LINE"
);
}
);
width = 595;
}
);
leftKerningGroup = T;
note = T;
rightKerningGroup = T;
unicode = 0054;
},
{
glyphname = Tbar;
lastChange = "2015-10-29 02:55:24 +0000";
layers = (
{
layerId = "EF7A456C-05AE-460A-9046-2BAC18FBC939";
name = Bold;
paths = (
{
closed = 1;
nodes = (
"108 699 LINE",
"66 500 LINE",
"245 500 LINE",
"227 417 LINE",
"134 417 LINE",
"94 228 LINE",
"187 228 LINE",
"139 0 LINE",
"376 0 LINE",
"424 228 LINE",
"521 228 LINE",
"561 417 LINE",
"464 417 LINE",
"482 500 LINE",
"661 500 LINE",
"703 699 LINE"
);
}
);
width = 595;
}
);
leftKerningGroup = T;
note = Tbar;
rightKerningGroup = T;
unicode = 0166;
},
{
glyphname = Tcaron;
lastChange = "2015-10-29 02:55:25 +0000";
layers = (
{
layerId = "EF7A456C-05AE-460A-9046-2BAC18FBC939";
name = Bold;
paths = (
{
closed = 1;
nodes = (
"108 699 LINE",
"66 500 LINE",
"245 500 LINE",
"139 0 LINE",
"376 0 LINE",
"482 500 LINE",
"661 500 LINE",
"703 699 LINE"
);
},
{
closed = 1;
nodes = (
"495 742 LINE",
"700 933 LINE",
"489 933 LINE",
"413 853 LINE",
"371 933 LINE",
"169 933 LINE",
"293 742 LINE"
);
}
);
width = 595;
}
);
leftKerningGroup = T;
note = Tcaron;
rightKerningGroup = T;
unicode = 0164;
},
{
glyphname = Tcedilla;
lastChange = "2015-10-29 02:55:23 +0000";
layers = (
{
layerId = "EF7A456C-05AE-460A-9046-2BAC18FBC939";
name = Bold;
paths = (
{
closed = 1;
nodes = (
"396 -88 OFFCURVE",
"366 -57 OFFCURVE",
"310 -49 CURVE",
"341 0 LINE",
"376 0 LINE",
"482 500 LINE",
"661 500 LINE",
"703 699 LINE",
"108 699 LINE",
"66 500 LINE",
"245 500 LINE",
"139 0 LINE",
"182 0 LINE",
"143 -76 LINE",
"210 -76 OFFCURVE",
"225 -97 OFFCURVE",
"219 -126 CURVE SMOOTH",
"214 -147 OFFCURVE",
"196 -165 OFFCURVE",
"158 -165 CURVE SMOOTH",
"135 -165 OFFCURVE",
"115 -158 OFFCURVE",
"101 -149 CURVE",
"81 -232 LINE",
"103 -241 OFFCURVE",
"142 -248 OFFCURVE",
"196 -248 CURVE SMOOTH",
"318 -248 OFFCURVE",
"373 -195 OFFCURVE",
"385 -137 CURVE SMOOTH"
);
}
);
width = 595;
}
);
leftKerningGroup = T;
note = Tcedilla;
rightKerningGroup = T;
unicode = 0162;
},
{
glyphname = Tcommaaccent;
lastChange = "2015-10-29 02:55:27 +0000";
layers = (
{
layerId = "EF7A456C-05AE-460A-9046-2BAC18FBC939";
name = Bold;
paths = (
{
closed = 1;
nodes = (
"108 699 LINE",
"66 500 LINE",
"245 500 LINE",
"139 0 LINE",
"376 0 LINE",
"482 500 LINE",
"661 500 LINE",
"703 699 LINE"
);
},
{
closed = 1;
nodes = (
"197 -259 LINE",
"355 -41 LINE",
"143 -41 LINE",
"13 -259 LINE"
);
}
);
width = 595;
}
);
leftKerningGroup = T;
note = Tcommaaccent;
rightKerningGroup = T;
unicode = 021A;
},
{
glyphname = Tdotbelow;
lastChange = "2015-10-29 02:55:25 +0000";
layers = (
{
layerId = "EF7A456C-05AE-460A-9046-2BAC18FBC939";
name = Bold;
paths = (
{
closed = 1;
nodes = (
"108 699 LINE",
"66 500 LINE",
"245 500 LINE",
"139 0 LINE",
"376 0 LINE",
"482 500 LINE",
"661 500 LINE",
"703 699 LINE"
);
},
{
closed = 1;
nodes = (
"132 -182 OFFCURVE",
"165 -220 OFFCURVE",
"212 -220 CURVE SMOOTH",
"259 -220 OFFCURVE",
"306 -182 OFFCURVE",
"316 -133 CURVE SMOOTH",
"327 -84 OFFCURVE",
"296 -45 OFFCURVE",
"249 -45 CURVE SMOOTH",
"202 -45 OFFCURVE",
"153 -84 OFFCURVE",
"142 -133 CURVE SMOOTH"
);
}
);
width = 595;
}
);
leftKerningGroup = T;
note = Tdotbelow;
rightKerningGroup = T;
unicode = 1E6C;
},
{
glyphname = Tlinebelow;
lastChange = "2015-10-29 02:55:25 +0000";
layers = (
{
layerId = "EF7A456C-05AE-460A-9046-2BAC18FBC939";
name = Bold;
paths = (
{
closed = 1;
nodes = (
"108 699 LINE",
"66 500 LINE",
"245 500 LINE",
"139 0 LINE",
"376 0 LINE",
"482 500 LINE",
"661 500 LINE",
"703 699 LINE"
);
},
{
closed = 1;
nodes = (
"382 -192 LINE",
"412 -49 LINE",
"46 -49 LINE",
"16 -192 LINE"
);
}
);
width = 595;
}
);
leftKerningGroup = T;
note = Tlinebelow;
rightKerningGroup = T;
unicode = 1E6E;
},
{
glyphname = U;
lastChange = "2015-10-29 02:55:27 +0000";
layers = (
{
layerId = "EF7A456C-05AE-460A-9046-2BAC18FBC939";
name = Bold;
paths = (
{
closed = 1;
nodes = (
"291 203 OFFCURVE",
"279 245 OFFCURVE",
"295 322 CURVE SMOOTH",
"375 699 LINE",
"138 699 LINE",
"56 315 LINE SMOOTH",
"17 130 OFFCURVE",
"109 -15 OFFCURVE",
"323 -15 CURVE SMOOTH",
"580 -15 OFFCURVE",
"691 130 OFFCURVE",
"730 315 CURVE SMOOTH",
"812 699 LINE",
"574 699 LINE",
"494 322 LINE SMOOTH",
"478 245 OFFCURVE",
"441 203 OFFCURVE",
"370 203 CURVE SMOOTH"
);
}
);
width = 734;
}
);
leftKerningGroup = U;
note = U;
rightKerningGroup = U;
unicode = 0055;
},
{
glyphname = Uacute;
lastChange = "2015-10-29 02:55:24 +0000";
layers = (
{
layerId = "EF7A456C-05AE-460A-9046-2BAC18FBC939";
name = Bold;
paths = (
{
closed = 1;
nodes = (
"441 203 OFFCURVE",
"478 245 OFFCURVE",
"494 322 CURVE SMOOTH",
"574 699 LINE",
"812 699 LINE",
"730 315 LINE SMOOTH",
"691 130 OFFCURVE",
"580 -15 OFFCURVE",
"323 -15 CURVE SMOOTH",
"109 -15 OFFCURVE",
"17 130 OFFCURVE",
"56 315 CURVE SMOOTH",
"138 699 LINE",
"375 699 LINE",
"295 322 LINE SMOOTH",
"279 245 OFFCURVE",
"291 203 OFFCURVE",
"370 203 CURVE SMOOTH"
);
},
{
closed = 1;
nodes = (
"560 742 LINE",
"693 923 LINE",
"476 923 LINE",
"370 742 LINE"
);
}
);
width = 734;
}
);
leftKerningGroup = U;
note = Uacute;
rightKerningGroup = U;
unicode = 00DA;
},
{
glyphname = Ubreve;
lastChange = "2015-10-29 02:55:24 +0000";
layers = (
{
layerId = "EF7A456C-05AE-460A-9046-2BAC18FBC939";
name = Bold;
paths = (
{
closed = 1;
nodes = (
"291 203 OFFCURVE",
"279 245 OFFCURVE",
"295 322 CURVE SMOOTH",
"375 699 LINE",
"138 699 LINE",
"56 315 LINE SMOOTH",
"17 130 OFFCURVE",
"109 -15 OFFCURVE",
"323 -15 CURVE SMOOTH",
"580 -15 OFFCURVE",
"691 130 OFFCURVE",
"730 315 CURVE SMOOTH",
"812 699 LINE",
"574 699 LINE",
"494 322 LINE SMOOTH",
"478 245 OFFCURVE",
"441 203 OFFCURVE",
"370 203 CURVE SMOOTH"
);
},
{
closed = 1;
nodes = (
"597 742 OFFCURVE",
"685 816 OFFCURVE",
"710 937 CURVE",
"539 937 LINE",
"531 898 OFFCURVE",
"514 879 OFFCURVE",
"489 879 CURVE SMOOTH",
"464 879 OFFCURVE",
"455 898 OFFCURVE",
"463 937 CURVE",
"301 937 LINE",
"276 816 OFFCURVE",
"332 742 OFFCURVE",
"464 742 CURVE SMOOTH"
);
}
);
width = 734;
}
);
leftKerningGroup = U;
note = Ubreve;
rightKerningGroup = U;
unicode = 016C;
},
{
glyphname = Ucaron;
lastChange = "2015-10-29 02:55:27 +0000";
layers = (
{
layerId = "EF7A456C-05AE-460A-9046-2BAC18FBC939";
name = Bold;
paths = (
{
closed = 1;
nodes = (
"441 203 OFFCURVE",
"478 245 OFFCURVE",
"494 322 CURVE SMOOTH",
"574 699 LINE",
"812 699 LINE",
"730 315 LINE SMOOTH",
"691 130 OFFCURVE",
"580 -15 OFFCURVE",
"323 -15 CURVE SMOOTH",
"109 -15 OFFCURVE",
"17 130 OFFCURVE",
"56 315 CURVE SMOOTH",
"138 699 LINE",
"375 699 LINE",
"295 322 LINE SMOOTH",
"279 245 OFFCURVE",
"291 203 OFFCURVE",
"370 203 CURVE SMOOTH"
);
},
{
closed = 1;
nodes = (
"565 742 LINE",
"770 933 LINE",
"559 933 LINE",
"483 853 LINE",
"441 933 LINE",
"239 933 LINE",
"363 742 LINE"
);
}
);
width = 734;
}
);
leftKerningGroup = U;
note = Ucaron;
rightKerningGroup = U;
unicode = 01D3;
},
{
glyphname = Ucircumflex;
lastChange = "2015-10-29 02:55:25 +0000";
layers = (
{
layerId = "EF7A456C-05AE-460A-9046-2BAC18FBC939";
name = Bold;
paths = (
{
closed = 1;
nodes = (
"441 203 OFFCURVE",
"478 245 OFFCURVE",
"494 322 CURVE SMOOTH",
"574 699 LINE",
"812 699 LINE",
"730 315 LINE SMOOTH",
"691 130 OFFCURVE",
"580 -15 OFFCURVE",
"323 -15 CURVE SMOOTH",
"109 -15 OFFCURVE",
"17 130 OFFCURVE",
"56 315 CURVE SMOOTH",
"138 699 LINE",
"375 699 LINE",
"295 322 LINE SMOOTH",
"279 245 OFFCURVE",
"291 203 OFFCURVE",
"370 203 CURVE SMOOTH"
);
},
{
closed = 1;
nodes = (
"403 933 LINE",
"199 742 LINE",
"409 742 LINE",
"485 822 LINE",
"527 742 LINE",
"730 742 LINE",
"605 933 LINE"
);
}
);
width = 734;
}
);
leftKerningGroup = U;
note = Ucircumflex;
rightKerningGroup = U;
unicode = 00DB;
},
{
glyphname = Udieresis;
lastChange = "2015-10-29 02:55:25 +0000";
layers = (
{
layerId = "EF7A456C-05AE-460A-9046-2BAC18FBC939";
name = Bold;
paths = (
{
closed = 1;
nodes = (
"441 203 OFFCURVE",
"478 245 OFFCURVE",
"494 322 CURVE SMOOTH",
"574 699 LINE",
"812 699 LINE",
"730 315 LINE SMOOTH",
"691 130 OFFCURVE",
"580 -15 OFFCURVE",
"323 -15 CURVE SMOOTH",
"109 -15 OFFCURVE",
"17 130 OFFCURVE",
"56 315 CURVE SMOOTH",
"138 699 LINE",
"375 699 LINE",
"295 322 LINE SMOOTH",
"279 245 OFFCURVE",
"291 203 OFFCURVE",
"370 203 CURVE SMOOTH"
);
},
{
closed = 1;
nodes = (
"271 790 OFFCURVE",
"304 752 OFFCURVE",
"350 752 CURVE SMOOTH",
"398 752 OFFCURVE",
"445 790 OFFCURVE",
"455 839 CURVE SMOOTH",
"466 888 OFFCURVE",
"435 927 OFFCURVE",
"387 927 CURVE SMOOTH",
"341 927 OFFCURVE",
"292 888 OFFCURVE",
"281 839 CURVE SMOOTH"
);
},
{
closed = 1;
nodes = (
"505 790 OFFCURVE",
"537 752 OFFCURVE",
"585 752 CURVE SMOOTH",
"632 752 OFFCURVE",
"679 790 OFFCURVE",
"689 839 CURVE SMOOTH",
"700 888 OFFCURVE",
"669 927 OFFCURVE",
"622 927 CURVE SMOOTH",
"574 927 OFFCURVE",
"526 888 OFFCURVE",
"515 839 CURVE SMOOTH"
);
}
);
width = 734;
}
);
leftKerningGroup = U;
note = Udieresis;
rightKerningGroup = U;
unicode = 00DC;
},
{
glyphname = Udieresisacute;
lastChange = "2015-10-29 02:55:27 +0000";
layers = (
{
layerId = "EF7A456C-05AE-460A-9046-2BAC18FBC939";
name = Bold;
paths = (
{
closed = 1;
nodes = (
"441 203 OFFCURVE",
"478 245 OFFCURVE",
"494 322 CURVE SMOOTH",
"574 699 LINE",
"812 699 LINE",
"730 315 LINE SMOOTH",
"691 130 OFFCURVE",
"580 -15 OFFCURVE",
"323 -15 CURVE SMOOTH",
"109 -15 OFFCURVE",
"17 130 OFFCURVE",
"56 315 CURVE SMOOTH",
"138 699 LINE",
"375 699 LINE",
"295 322 LINE SMOOTH",
"279 245 OFFCURVE",
"291 203 OFFCURVE",
"370 203 CURVE SMOOTH"
);
},
{
closed = 1;
nodes = (
"289 780 OFFCURVE",
"322 742 OFFCURVE",
"369 742 CURVE SMOOTH",
"417 742 OFFCURVE",
"464 780 OFFCURVE",
"474 829 CURVE SMOOTH",
"485 878 OFFCURVE",
"454 917 OFFCURVE",
"406 917 CURVE SMOOTH",
"359 917 OFFCURVE",
"310 878 OFFCURVE",
"299 829 CURVE SMOOTH"
);
},
{
closed = 1;
nodes = (
"523 780 OFFCURVE",
"555 742 OFFCURVE",
"603 742 CURVE SMOOTH",
"650 742 OFFCURVE",
"697 780 OFFCURVE",
"707 829 CURVE SMOOTH",
"718 878 OFFCURVE",
"687 917 OFFCURVE",
"640 917 CURVE SMOOTH",
"592 917 OFFCURVE",
"544 878 OFFCURVE",
"533 829 CURVE SMOOTH"
);
},
{
closed = 1;
nodes = (
"621 944 LINE",
"737 1093 LINE",
"530 1093 LINE",
"442 944 LINE"
);
}
);
width = 734;
}
);
leftKerningGroup = U;
note = Udieresisacute;
rightKerningGroup = U;
unicode = 01D7;
},
{
glyphname = Udieresiscaron;
lastChange = "2015-10-29 02:55:26 +0000";
layers = (
{
layerId = "EF7A456C-05AE-460A-9046-2BAC18FBC939";
name = Bold;
paths = (
{
closed = 1;
nodes = (
"441 203 OFFCURVE",
"478 245 OFFCURVE",
"494 322 CURVE SMOOTH",
"574 699 LINE",
"812 699 LINE",
"730 315 LINE SMOOTH",
"691 130 OFFCURVE",
"580 -15 OFFCURVE",
"323 -15 CURVE SMOOTH",
"109 -15 OFFCURVE",
"17 130 OFFCURVE",
"56 315 CURVE SMOOTH",
"138 699 LINE",
"375 699 LINE",
"295 322 LINE SMOOTH",
"279 245 OFFCURVE",
"291 203 OFFCURVE",
"370 203 CURVE SMOOTH"
);
},
{
closed = 1;
nodes = (
"716 878 OFFCURVE",
"683 917 OFFCURVE",
"636 917 CURVE SMOOTH",
"588 917 OFFCURVE",
"541 878 OFFCURVE",
"530 829 CURVE SMOOTH",
"520 780 OFFCURVE",
"551 742 OFFCURVE",
"599 742 CURVE SMOOTH",
"646 742 OFFCURVE",
"695 780 OFFCURVE",
"705 829 CURVE SMOOTH"
);
},
{
closed = 1;
nodes = (
"482 878 OFFCURVE",
"450 917 OFFCURVE",
"402 917 CURVE SMOOTH",
"355 917 OFFCURVE",
"308 878 OFFCURVE",
"297 829 CURVE SMOOTH",
"287 780 OFFCURVE",
"318 742 OFFCURVE",
"365 742 CURVE SMOOTH",
"413 742 OFFCURVE",
"461 780 OFFCURVE",
"471 829 CURVE SMOOTH"
);
},
{
closed = 1;
nodes = (
"596 935 LINE",
"795 1096 LINE",
"603 1096 LINE",
"549 1046 LINE",
"516 1096 LINE",
"324 1096 LINE",
"455 935 LINE"
);
}
);
width = 734;
}
);
leftKerningGroup = U;
note = Udieresiscaron;
rightKerningGroup = U;
unicode = 01D9;
},
{
glyphname = Udieresisgrave;
lastChange = "2015-10-29 02:55:26 +0000";
layers = (
{
layerId = "EF7A456C-05AE-460A-9046-2BAC18FBC939";
name = Bold;
paths = (
{
closed = 1;
nodes = (
"441 203 OFFCURVE",
"478 245 OFFCURVE",
"494 322 CURVE SMOOTH",
"574 699 LINE",
"812 699 LINE",
"730 315 LINE SMOOTH",
"691 130 OFFCURVE",
"580 -15 OFFCURVE",
"323 -15 CURVE SMOOTH",
"109 -15 OFFCURVE",
"17 130 OFFCURVE",
"56 315 CURVE SMOOTH",
"138 699 LINE",
"375 699 LINE",
"295 322 LINE SMOOTH",
"279 245 OFFCURVE",
"291 203 OFFCURVE",
"370 203 CURVE SMOOTH"
);
},
{
closed = 1;
nodes = (
"720 878 OFFCURVE",
"687 917 OFFCURVE",
"640 917 CURVE SMOOTH",
"592 917 OFFCURVE",
"545 878 OFFCURVE",
"534 829 CURVE SMOOTH",
"524 780 OFFCURVE",
"555 742 OFFCURVE",
"603 742 CURVE SMOOTH",
"650 742 OFFCURVE",
"699 780 OFFCURVE",
"709 829 CURVE SMOOTH"
);
},
{
closed = 1;
nodes = (
"486 878 OFFCURVE",
"454 917 OFFCURVE",
"406 917 CURVE SMOOTH",
"359 917 OFFCURVE",
"312 878 OFFCURVE",
"301 829 CURVE SMOOTH",
"291 780 OFFCURVE",
"322 742 OFFCURVE",
"369 742 CURVE SMOOTH",
"417 742 OFFCURVE",
"465 780 OFFCURVE",
"475 829 CURVE SMOOTH"
);
},
{
closed = 1;
nodes = (
"616 944 LINE",
"591 1093 LINE",
"385 1093 LINE",
"437 944 LINE"
);
}
);
width = 734;
}
);
leftKerningGroup = U;
note = Udieresisgrave;
rightKerningGroup = U;
unicode = 01DB;
},
{
glyphname = Udieresismacron;
lastChange = "2015-10-29 02:55:24 +0000";
layers = (
{
layerId = "EF7A456C-05AE-460A-9046-2BAC18FBC939";
name = Bold;
paths = (
{
closed = 1;
nodes = (
"441 203 OFFCURVE",
"478 245 OFFCURVE",
"494 322 CURVE SMOOTH",
"574 699 LINE",
"812 699 LINE",
"730 315 LINE SMOOTH",
"691 130 OFFCURVE",
"580 -15 OFFCURVE",
"323 -15 CURVE SMOOTH",
"109 -15 OFFCURVE",
"17 130 OFFCURVE",
"56 315 CURVE SMOOTH",
"138 699 LINE",
"375 699 LINE",
"295 322 LINE SMOOTH",
"279 245 OFFCURVE",
"291 203 OFFCURVE",
"370 203 CURVE SMOOTH"
);
},
{
closed = 1;
nodes = (
"269 780 OFFCURVE",
"302 742 OFFCURVE",
"348 742 CURVE SMOOTH",
"396 742 OFFCURVE",
"443 780 OFFCURVE",
"453 829 CURVE SMOOTH",
"464 878 OFFCURVE",
"433 917 OFFCURVE",
"385 917 CURVE SMOOTH",
"339 917 OFFCURVE",
"290 878 OFFCURVE",
"279 829 CURVE SMOOTH"
);
},
{
closed = 1;
nodes = (
"503 780 OFFCURVE",
"535 742 OFFCURVE",
"583 742 CURVE SMOOTH",
"630 742 OFFCURVE",
"677 780 OFFCURVE",
"687 829 CURVE SMOOTH",
"698 878 OFFCURVE",
"667 917 OFFCURVE",
"620 917 CURVE SMOOTH",
"572 917 OFFCURVE",
"524 878 OFFCURVE",
"513 829 CURVE SMOOTH"
);
},
{
closed = 1;
nodes = (
"692 950 LINE",
"723 1093 LINE",
"357 1093 LINE",
"326 950 LINE"
);
}
);
width = 734;
}
);
leftKerningGroup = U;
note = Udieresismacron;
rightKerningGroup = U;
unicode = 01D5;
},
{
glyphname = Udotbelow;
lastChange = "2015-10-29 02:55:26 +0000";
layers = (
{
layerId = "EF7A456C-05AE-460A-9046-2BAC18FBC939";
name = Bold;
paths = (
{
closed = 1;
nodes = (
"291 203 OFFCURVE",
"279 245 OFFCURVE",
"295 322 CURVE SMOOTH",
"375 699 LINE",
"138 699 LINE",
"56 315 LINE SMOOTH",
"17 130 OFFCURVE",
"109 -15 OFFCURVE",
"323 -15 CURVE SMOOTH",
"580 -15 OFFCURVE",
"691 130 OFFCURVE",
"730 315 CURVE SMOOTH",
"812 699 LINE",
"574 699 LINE",
"494 322 LINE SMOOTH",
"478 245 OFFCURVE",
"441 203 OFFCURVE",
"370 203 CURVE SMOOTH"
);
},
{
closed = 1;
nodes = (
"202 -182 OFFCURVE",
"235 -220 OFFCURVE",
"282 -220 CURVE SMOOTH",
"329 -220 OFFCURVE",
"376 -182 OFFCURVE",
"386 -133 CURVE SMOOTH",
"397 -84 OFFCURVE",
"366 -45 OFFCURVE",
"319 -45 CURVE SMOOTH",
"272 -45 OFFCURVE",
"223 -84 OFFCURVE",
"212 -133 CURVE SMOOTH"
);
}
);
width = 734;
}
);
leftKerningGroup = U;
note = Udotbelow;
rightKerningGroup = U;
unicode = 1EE4;
},
{
glyphname = Ugrave;
lastChange = "2015-10-29 02:55:24 +0000";
layers = (
{
layerId = "EF7A456C-05AE-460A-9046-2BAC18FBC939";
name = Bold;
paths = (
{
closed = 1;
nodes = (
"441 203 OFFCURVE",
"478 245 OFFCURVE",
"494 322 CURVE SMOOTH",
"574 699 LINE",
"812 699 LINE",
"730 315 LINE SMOOTH",
"691 130 OFFCURVE",
"580 -15 OFFCURVE",
"323 -15 CURVE SMOOTH",
"109 -15 OFFCURVE",
"17 130 OFFCURVE",
"56 315 CURVE SMOOTH",
"138 699 LINE",
"375 699 LINE",
"295 322 LINE SMOOTH",
"279 245 OFFCURVE",
"291 203 OFFCURVE",
"370 203 CURVE SMOOTH"
);
},
{
closed = 1;
nodes = (
"564 742 LINE",
"534 923 LINE",
"317 923 LINE",
"374 742 LINE"
);
}
);
width = 734;
}
);
leftKerningGroup = U;
note = Ugrave;
rightKerningGroup = U;
unicode = 00D9;
},
{
glyphname = Uhookabove;
lastChange = "2015-10-29 02:55:26 +0000";
layers = (
{
layerId = "EF7A456C-05AE-460A-9046-2BAC18FBC939";
name = Bold;
paths = (
{
closed = 1;
nodes = (
"441 203 OFFCURVE",
"478 245 OFFCURVE",
"494 322 CURVE SMOOTH",
"574 699 LINE",
"812 699 LINE",
"730 315 LINE SMOOTH",
"691 130 OFFCURVE",
"580 -15 OFFCURVE",
"323 -15 CURVE SMOOTH",
"109 -15 OFFCURVE",
"17 130 OFFCURVE",
"56 315 CURVE SMOOTH",
"138 699 LINE",
"375 699 LINE",
"295 322 LINE SMOOTH",
"279 245 OFFCURVE",
"291 203 OFFCURVE",
"370 203 CURVE SMOOTH"
);
},
{
closed = 1;
nodes = (
"685 940 OFFCURVE",
"636 981 OFFCURVE",
"517 981 CURVE SMOOTH",
"473 981 OFFCURVE",
"408 972 OFFCURVE",
"372 962 CURVE",
"354 877 LINE",
"367 881 OFFCURVE",
"392 886 OFFCURVE",
"412 886 CURVE SMOOTH",
"453 886 OFFCURVE",
"469 876 OFFCURVE",
"465 854 CURVE",
"459 827 OFFCURVE",
"437 816 OFFCURVE",
"381 816 CURVE",
"365 742 LINE",
"552 742 LINE",
"560 782 LINE",
"617 798 OFFCURVE",
"660 825 OFFCURVE",
"672 877 CURVE SMOOTH"
);
}
);
width = 734;
}
);
leftKerningGroup = U;
note = Uhookabove;
rightKerningGroup = U;
unicode = 1EE6;
},
{
glyphname = Uhorn;
lastChange = "2015-10-29 02:55:27 +0000";
layers = (
{
layerId = "EF7A456C-05AE-460A-9046-2BAC18FBC939";
name = Bold;
paths = (
{
closed = 1;
nodes = (
"767 486 LINE",
"948 486 OFFCURVE",
"1039 577 OFFCURVE",
"1065 700 CURVE SMOOTH",
"1075 747 LINE",
"896 747 LINE",
"889 715 LINE SMOOTH",
"879 666 OFFCURVE",
"859 639 OFFCURVE",
"799 639 CURVE",
"812 699 LINE",
"574 699 LINE",
"494 322 LINE SMOOTH",
"478 245 OFFCURVE",
"441 203 OFFCURVE",
"370 203 CURVE SMOOTH",
"291 203 OFFCURVE",
"279 245 OFFCURVE",
"295 322 CURVE SMOOTH",
"375 699 LINE",
"138 699 LINE",
"56 315 LINE SMOOTH",
"17 130 OFFCURVE",
"109 -15 OFFCURVE",
"323 -15 CURVE SMOOTH",
"580 -15 OFFCURVE",
"691 130 OFFCURVE",
"730 315 CURVE SMOOTH"
);
}
);
width = 952;
}
);
leftKerningGroup = U;
note = Uhorn;
rightKerningGroup = U;
unicode = 01AF;
},
{
glyphname = Uhornacute;
lastChange = "2015-10-29 02:55:24 +0000";
layers = (
{
layerId = "EF7A456C-05AE-460A-9046-2BAC18FBC939";
name = Bold;
paths = (
{
closed = 1;
nodes = (
"730 315 LINE SMOOTH",
"691 130 OFFCURVE",
"580 -15 OFFCURVE",
"323 -15 CURVE SMOOTH",
"109 -15 OFFCURVE",
"17 130 OFFCURVE",
"56 315 CURVE SMOOTH",
"138 699 LINE",
"375 699 LINE",
"295 322 LINE SMOOTH",
"279 245 OFFCURVE",
"291 203 OFFCURVE",
"370 203 CURVE SMOOTH",
"441 203 OFFCURVE",
"478 245 OFFCURVE",
"494 322 CURVE SMOOTH",
"574 699 LINE",
"812 699 LINE",
"799 639 LINE",
"859 639 OFFCURVE",
"879 666 OFFCURVE",
"889 715 CURVE SMOOTH",
"896 747 LINE",
"1075 747 LINE",
"1065 700 LINE SMOOTH",
"1039 577 OFFCURVE",
"948 486 OFFCURVE",
"767 486 CURVE"
);
},
{
closed = 1;
nodes = (
"557 742 LINE",
"690 923 LINE",
"473 923 LINE",
"367 742 LINE"
);
}
);
width = 952;
}
);
leftKerningGroup = U;
note = Uhornacute;
rightKerningGroup = U;
unicode = 1EE8;
},
{
glyphname = Uhorndotbelow;
lastChange = "2015-10-29 02:55:24 +0000";
layers = (
{
layerId = "EF7A456C-05AE-460A-9046-2BAC18FBC939";
name = Bold;
paths = (
{
closed = 1;
nodes = (
"767 486 LINE",
"948 486 OFFCURVE",
"1039 577 OFFCURVE",
"1065 700 CURVE SMOOTH",
"1075 747 LINE",
"896 747 LINE",
"889 715 LINE SMOOTH",
"879 666 OFFCURVE",
"859 639 OFFCURVE",
"799 639 CURVE",
"812 699 LINE",
"574 699 LINE",
"494 322 LINE SMOOTH",
"478 245 OFFCURVE",
"441 203 OFFCURVE",
"370 203 CURVE SMOOTH",
"291 203 OFFCURVE",
"279 245 OFFCURVE",
"295 322 CURVE SMOOTH",
"375 699 LINE",
"138 699 LINE",
"56 315 LINE SMOOTH",
"17 130 OFFCURVE",
"109 -15 OFFCURVE",
"323 -15 CURVE SMOOTH",
"580 -15 OFFCURVE",
"691 130 OFFCURVE",
"730 315 CURVE SMOOTH"
);
},
{
closed = 1;
nodes = (
"204 -182 OFFCURVE",
"237 -220 OFFCURVE",
"284 -220 CURVE SMOOTH",
"331 -220 OFFCURVE",
"378 -182 OFFCURVE",
"388 -133 CURVE SMOOTH",
"399 -84 OFFCURVE",
"368 -45 OFFCURVE",
"321 -45 CURVE SMOOTH",
"274 -45 OFFCURVE",
"225 -84 OFFCURVE",
"214 -133 CURVE SMOOTH"
);
}
);
width = 952;
}
);
leftKerningGroup = U;
note = Uhorndotbelow;
rightKerningGroup = U;
unicode = 1EF0;
},
{
glyphname = Uhorngrave;
lastChange = "2015-10-29 02:55:25 +0000";
layers = (
{
layerId = "EF7A456C-05AE-460A-9046-2BAC18FBC939";
name = Bold;
paths = (
{
closed = 1;
nodes = (
"730 315 LINE SMOOTH",
"691 130 OFFCURVE",
"580 -15 OFFCURVE",
"323 -15 CURVE SMOOTH",
"109 -15 OFFCURVE",
"17 130 OFFCURVE",
"56 315 CURVE SMOOTH",
"138 699 LINE",
"375 699 LINE",
"295 322 LINE SMOOTH",
"279 245 OFFCURVE",
"291 203 OFFCURVE",
"370 203 CURVE SMOOTH",
"441 203 OFFCURVE",
"478 245 OFFCURVE",
"494 322 CURVE SMOOTH",
"574 699 LINE",
"812 699 LINE",
"799 639 LINE",
"859 639 OFFCURVE",
"879 666 OFFCURVE",
"889 715 CURVE SMOOTH",
"896 747 LINE",
"1075 747 LINE",
"1065 700 LINE SMOOTH",
"1039 577 OFFCURVE",
"948 486 OFFCURVE",
"767 486 CURVE"
);
},
{
closed = 1;
nodes = (
"561 742 LINE",
"531 923 LINE",
"314 923 LINE",
"371 742 LINE"
);
}
);
width = 952;
}
);
leftKerningGroup = U;
note = Uhorngrave;
rightKerningGroup = U;
unicode = 1EEA;
},
{
glyphname = Uhornhookabove;
lastChange = "2015-10-29 02:55:24 +0000";
layers = (
{
layerId = "EF7A456C-05AE-460A-9046-2BAC18FBC939";
name = Bold;
paths = (
{
closed = 1;
nodes = (
"730 315 LINE SMOOTH",
"691 130 OFFCURVE",
"580 -15 OFFCURVE",
"323 -15 CURVE SMOOTH",
"109 -15 OFFCURVE",
"17 130 OFFCURVE",
"56 315 CURVE SMOOTH",
"138 699 LINE",
"375 699 LINE",
"295 322 LINE SMOOTH",
"279 245 OFFCURVE",
"291 203 OFFCURVE",
"370 203 CURVE SMOOTH",
"441 203 OFFCURVE",
"478 245 OFFCURVE",
"494 322 CURVE SMOOTH",
"574 699 LINE",
"812 699 LINE",
"799 639 LINE",
"859 639 OFFCURVE",
"879 666 OFFCURVE",
"889 715 CURVE SMOOTH",
"896 747 LINE",
"1075 747 LINE",
"1065 700 LINE SMOOTH",
"1039 577 OFFCURVE",
"948 486 OFFCURVE",
"767 486 CURVE"
);
},
{
closed = 1;
nodes = (
"698 940 OFFCURVE",
"649 981 OFFCURVE",
"530 981 CURVE SMOOTH",
"486 981 OFFCURVE",
"421 972 OFFCURVE",
"385 962 CURVE",
"367 877 LINE",
"380 881 OFFCURVE",
"405 886 OFFCURVE",
"425 886 CURVE SMOOTH",
"466 886 OFFCURVE",
"482 876 OFFCURVE",
"478 854 CURVE",
"472 827 OFFCURVE",
"450 816 OFFCURVE",
"394 816 CURVE",
"378 742 LINE",
"565 742 LINE",
"573 782 LINE",
"630 798 OFFCURVE",
"673 825 OFFCURVE",
"685 877 CURVE SMOOTH"
);
}
);
width = 952;
}
);
leftKerningGroup = U;
note = Uhornhookabove;
rightKerningGroup = U;
unicode = 1EEC;
},
{
glyphname = Uhorntilde;
lastChange = "2015-10-29 02:55:23 +0000";
layers = (
{
layerId = "EF7A456C-05AE-460A-9046-2BAC18FBC939";
name = Bold;
paths = (
{
closed = 1;
nodes = (
"767 486 LINE",
"948 486 OFFCURVE",
"1039 577 OFFCURVE",
"1065 700 CURVE SMOOTH",
"1075 747 LINE",
"896 747 LINE",
"889 715 LINE SMOOTH",
"879 666 OFFCURVE",
"859 639 OFFCURVE",
"799 639 CURVE",
"812 699 LINE",
"574 699 LINE",
"494 322 LINE SMOOTH",
"478 245 OFFCURVE",
"441 203 OFFCURVE",
"370 203 CURVE SMOOTH",
"291 203 OFFCURVE",
"279 245 OFFCURVE",
"295 322 CURVE SMOOTH",
"375 699 LINE",
"138 699 LINE",
"56 315 LINE SMOOTH",
"17 130 OFFCURVE",
"109 -15 OFFCURVE",
"323 -15 CURVE SMOOTH",
"580 -15 OFFCURVE",
"691 130 OFFCURVE",
"730 315 CURVE SMOOTH"
);
},
{
closed = 1;
nodes = (
"554 886 OFFCURVE",
"494 936 OFFCURVE",
"426 936 CURVE SMOOTH",
"380 936 OFFCURVE",
"339 925 OFFCURVE",
"307 896 CURVE",
"275 743 LINE",
"313 777 OFFCURVE",
"353 792 OFFCURVE",
"395 792 CURVE SMOOTH",
"459 792 OFFCURVE",
"515 742 OFFCURVE",
"588 742 CURVE SMOOTH",
"634 742 OFFCURVE",
"674 753 OFFCURVE",
"706 782 CURVE",
"738 935 LINE",
"700 901 OFFCURVE",
"661 886 OFFCURVE",
"619 886 CURVE SMOOTH"
);
}
);
width = 952;
}
);
leftKerningGroup = U;
note = Uhorntilde;
rightKerningGroup = U;
unicode = 1EEE;
},
{
glyphname = Uhungarumlaut;
lastChange = "2015-10-29 02:55:24 +0000";
layers = (
{
layerId = "EF7A456C-05AE-460A-9046-2BAC18FBC939";
name = Bold;
paths = (
{
closed = 1;
nodes = (
"441 203 OFFCURVE",
"478 245 OFFCURVE",
"494 322 CURVE SMOOTH",
"574 699 LINE",
"812 699 LINE",
"730 315 LINE SMOOTH",
"691 130 OFFCURVE",
"580 -15 OFFCURVE",
"323 -15 CURVE SMOOTH",
"109 -15 OFFCURVE",
"17 130 OFFCURVE",
"56 315 CURVE SMOOTH",
"138 699 LINE",
"375 699 LINE",
"295 322 LINE SMOOTH",
"279 245 OFFCURVE",
"291 203 OFFCURVE",
"370 203 CURVE SMOOTH"
);
},
{
closed = 1;
nodes = (
"414 742 LINE",
"547 923 LINE",
"331 923 LINE",
"225 742 LINE"
);
},
{
closed = 1;
nodes = (
"694 742 LINE",
"827 923 LINE",
"610 923 LINE",
"504 742 LINE"
);
}
);
width = 734;
}
);
leftKerningGroup = U;
note = Uhungarumlaut;
rightKerningGroup = U;
unicode = 0170;
},
{
glyphname = Umacron;
lastChange = "2015-10-29 02:55:23 +0000";
layers = (
{
layerId = "EF7A456C-05AE-460A-9046-2BAC18FBC939";
name = Bold;
paths = (
{
closed = 1;
nodes = (
"441 203 OFFCURVE",
"478 245 OFFCURVE",
"494 322 CURVE SMOOTH",
"574 699 LINE",
"812 699 LINE",
"730 315 LINE SMOOTH",
"691 130 OFFCURVE",
"580 -15 OFFCURVE",
"323 -15 CURVE SMOOTH",
"109 -15 OFFCURVE",
"17 130 OFFCURVE",
"56 315 CURVE SMOOTH",
"138 699 LINE",
"375 699 LINE",
"295 322 LINE SMOOTH",
"279 245 OFFCURVE",
"291 203 OFFCURVE",
"370 203 CURVE SMOOTH"
);
},
{
closed = 1;
nodes = (
"647 742 LINE",
"678 885 LINE",
"312 885 LINE",
"281 742 LINE"
);
}
);
width = 734;
}
);
leftKerningGroup = U;
note = Umacron;
rightKerningGroup = U;
unicode = 016A;
},
{
glyphname = Uogonek;
lastChange = "2015-10-29 02:55:27 +0000";
layers = (
{
layerId = "EF7A456C-05AE-460A-9046-2BAC18FBC939";
name = Bold;
paths = (
{
closed = 1;
nodes = (
"320 -219 OFFCURVE",
"372 -212 OFFCURVE",
"406 -202 CURVE",
"431 -82 LINE",
"413 -90 OFFCURVE",
"395 -95 OFFCURVE",
"379 -95 CURVE SMOOTH",
"362 -95 OFFCURVE",
"355 -86 OFFCURVE",
"358 -72 CURVE SMOOTH",
"364 -45 OFFCURVE",
"390 -26 OFFCURVE",
"452 0 CURVE",
"619 40 OFFCURVE",
"698 164 OFFCURVE",
"730 315 CURVE SMOOTH",
"812 699 LINE",
"574 699 LINE",
"494 322 LINE SMOOTH",
"478 245 OFFCURVE",
"441 203 OFFCURVE",
"370 203 CURVE SMOOTH",
"291 203 OFFCURVE",
"279 245 OFFCURVE",
"295 322 CURVE SMOOTH",
"375 699 LINE",
"138 699 LINE",
"56 315 LINE SMOOTH",
"22 157 OFFCURVE",
"85 28 OFFCURVE",
"237 -6 CURVE",
"195 -30 OFFCURVE",
"165 -67 OFFCURVE",
"155 -116 CURVE SMOOTH",
"139 -189 OFFCURVE",
"193 -219 OFFCURVE",
"275 -219 CURVE SMOOTH"
);
}
);
width = 734;
}
);
leftKerningGroup = U;
note = Uogonek;
rightKerningGroup = U;
unicode = 0172;
},
{
glyphname = Uring;
lastChange = "2015-10-29 02:55:24 +0000";
layers = (
{
layerId = "EF7A456C-05AE-460A-9046-2BAC18FBC939";
name = Bold;
paths = (
{
closed = 1;
nodes = (
"291 203 OFFCURVE",
"279 245 OFFCURVE",
"295 322 CURVE SMOOTH",
"375 699 LINE",
"138 699 LINE",
"56 315 LINE SMOOTH",
"17 130 OFFCURVE",
"109 -15 OFFCURVE",
"323 -15 CURVE SMOOTH",
"580 -15 OFFCURVE",
"691 130 OFFCURVE",
"730 315 CURVE SMOOTH",
"812 699 LINE",
"574 699 LINE",
"494 322 LINE SMOOTH",
"478 245 OFFCURVE",
"441 203 OFFCURVE",
"370 203 CURVE SMOOTH"
);
},
{
closed = 1;
nodes = (
"321 809 OFFCURVE",
"377 742 OFFCURVE",
"464 742 CURVE SMOOTH",
"558 742 OFFCURVE",
"636 809 OFFCURVE",
"655 896 CURVE SMOOTH",
"673 983 OFFCURVE",
"617 1050 OFFCURVE",
"530 1050 CURVE SMOOTH",
"438 1050 OFFCURVE",
"357 983 OFFCURVE",
"340 896 CURVE SMOOTH"
);
},
{
closed = 1;
nodes = (
"461 919 OFFCURVE",
"483 937 OFFCURVE",
"506 937 CURVE SMOOTH",
"534 937 OFFCURVE",
"543 919 OFFCURVE",
"538 896 CURVE SMOOTH",
"533 873 OFFCURVE",
"511 855 OFFCURVE",
"488 855 CURVE SMOOTH",
"461 855 OFFCURVE",
"451 873 OFFCURVE",
"456 896 CURVE SMOOTH"
);
}
);
width = 734;
}
);
leftKerningGroup = U;
note = Uring;
rightKerningGroup = U;
unicode = 016E;
},
{
glyphname = Utilde;
lastChange = "2015-10-29 02:55:26 +0000";
layers = (
{
layerId = "EF7A456C-05AE-460A-9046-2BAC18FBC939";
name = Bold;
paths = (
{
closed = 1;
nodes = (
"291 203 OFFCURVE",
"279 245 OFFCURVE",
"295 322 CURVE SMOOTH",
"375 699 LINE",
"138 699 LINE",
"56 315 LINE SMOOTH",
"17 130 OFFCURVE",
"109 -15 OFFCURVE",
"323 -15 CURVE SMOOTH",
"580 -15 OFFCURVE",
"691 130 OFFCURVE",
"730 315 CURVE SMOOTH",
"812 699 LINE",
"574 699 LINE",
"494 322 LINE SMOOTH",
"478 245 OFFCURVE",
"441 203 OFFCURVE",
"370 203 CURVE SMOOTH"
);
},
{
closed = 1;
nodes = (
"532 886 OFFCURVE",
"472 936 OFFCURVE",
"404 936 CURVE SMOOTH",
"358 936 OFFCURVE",
"317 925 OFFCURVE",
"285 896 CURVE",
"253 743 LINE",
"291 777 OFFCURVE",
"331 792 OFFCURVE",
"373 792 CURVE SMOOTH",
"437 792 OFFCURVE",
"493 742 OFFCURVE",
"566 742 CURVE SMOOTH",
"612 742 OFFCURVE",
"652 753 OFFCURVE",
"684 782 CURVE",
"716 935 LINE",
"678 901 OFFCURVE",
"639 886 OFFCURVE",
"597 886 CURVE SMOOTH"
);
}
);
width = 734;
}
);
leftKerningGroup = U;
note = Utilde;
rightKerningGroup = U;
unicode = 0168;
},
{
glyphname = V;
lastChange = "2015-10-29 02:55:26 +0000";
layers = (
{
layerId = "EF7A456C-05AE-460A-9046-2BAC18FBC939";
name = Bold;
paths = (
{
closed = 1;
nodes = (
"427 307 LINE",
"366 699 LINE",
"123 699 LINE",
"255 0 LINE",
"479 0 LINE",
"907 699 LINE",
"654 699 LINE"
);
}
);
width = 814;
}
);
note = V;
unicode = 0056;
},
{
glyphname = W;
lastChange = "2015-10-29 02:55:24 +0000";
layers = (
{
layerId = "EF7A456C-05AE-460A-9046-2BAC18FBC939";
name = Bold;
paths = (
{
closed = 1;
nodes = (
"692 382 LINE",
"691 699 LINE",
"523 699 LINE",
"378 383 LINE",
"369 699 LINE",
"123 699 LINE",
"154 0 LINE",
"374 0 LINE",
"526 318 LINE",
"544 0 LINE",
"754 0 LINE",
"1081 699 LINE",
"835 699 LINE"
);
}
);
width = 988;
}
);
leftKerningGroup = W;
note = W;
rightKerningGroup = W;
unicode = 0057;
},
{
glyphname = Wacute;
lastChange = "2015-10-29 02:55:25 +0000";
layers = (
{
layerId = "EF7A456C-05AE-460A-9046-2BAC18FBC939";
name = Bold;
paths = (
{
closed = 1;
nodes = (
"835 699 LINE",
"1081 699 LINE",
"754 0 LINE",
"544 0 LINE",
"526 318 LINE",
"374 0 LINE",
"154 0 LINE",
"123 699 LINE",
"369 699 LINE",
"378 383 LINE",
"523 699 LINE",
"691 699 LINE",
"692 382 LINE"
);
},
{
closed = 1;
nodes = (
"688 742 LINE",
"821 923 LINE",
"604 923 LINE",
"498 742 LINE"
);
}
);
width = 988;
}
);
leftKerningGroup = W;
note = Wacute;
rightKerningGroup = W;
unicode = 1E82;
},
{
glyphname = Wcircumflex;
lastChange = "2015-10-29 02:55:25 +0000";
layers = (
{
layerId = "EF7A456C-05AE-460A-9046-2BAC18FBC939";
name = Bold;
paths = (
{
closed = 1;
nodes = (
"835 699 LINE",
"1081 699 LINE",
"754 0 LINE",
"544 0 LINE",
"526 318 LINE",
"374 0 LINE",
"154 0 LINE",
"123 699 LINE",
"369 699 LINE",
"378 383 LINE",
"523 699 LINE",
"691 699 LINE",
"692 382 LINE"
);
},
{
closed = 1;
nodes = (
"530 933 LINE",
"326 742 LINE",
"536 742 LINE",
"612 822 LINE",
"654 742 LINE",
"857 742 LINE",
"732 933 LINE"
);
}
);
width = 988;
}
);
leftKerningGroup = W;
note = Wcircumflex;
rightKerningGroup = W;
unicode = 0174;
},
{
glyphname = Wdieresis;
lastChange = "2015-10-29 02:55:25 +0000";
layers = (
{
layerId = "EF7A456C-05AE-460A-9046-2BAC18FBC939";
name = Bold;
paths = (
{
closed = 1;
nodes = (
"835 699 LINE",
"1081 699 LINE",
"754 0 LINE",
"544 0 LINE",
"526 318 LINE",
"374 0 LINE",
"154 0 LINE",
"123 699 LINE",
"369 699 LINE",
"378 383 LINE",
"523 699 LINE",
"691 699 LINE",
"692 382 LINE"
);
},
{
closed = 1;
nodes = (
"396 780 OFFCURVE",
"429 742 OFFCURVE",
"475 742 CURVE SMOOTH",
"523 742 OFFCURVE",
"570 780 OFFCURVE",
"580 829 CURVE SMOOTH",
"591 878 OFFCURVE",
"560 917 OFFCURVE",
"512 917 CURVE SMOOTH",
"466 917 OFFCURVE",
"417 878 OFFCURVE",
"406 829 CURVE SMOOTH"
);
},
{
closed = 1;
nodes = (
"630 780 OFFCURVE",
"662 742 OFFCURVE",
"710 742 CURVE SMOOTH",
"757 742 OFFCURVE",
"804 780 OFFCURVE",
"814 829 CURVE SMOOTH",
"825 878 OFFCURVE",
"794 917 OFFCURVE",
"747 917 CURVE SMOOTH",
"699 917 OFFCURVE",
"651 878 OFFCURVE",
"640 829 CURVE SMOOTH"
);
}
);
width = 988;
}
);
leftKerningGroup = W;
note = Wdieresis;
rightKerningGroup = W;
unicode = 1E84;
},
{
glyphname = Wgrave;
lastChange = "2015-10-29 02:55:25 +0000";
layers = (
{
layerId = "EF7A456C-05AE-460A-9046-2BAC18FBC939";
name = Bold;
paths = (
{
closed = 1;
nodes = (
"835 699 LINE",
"1081 699 LINE",
"754 0 LINE",
"544 0 LINE",
"526 318 LINE",
"374 0 LINE",
"154 0 LINE",
"123 699 LINE",
"369 699 LINE",
"378 383 LINE",
"523 699 LINE",
"691 699 LINE",
"692 382 LINE"
);
},
{
closed = 1;
nodes = (
"688 742 LINE",
"658 923 LINE",
"441 923 LINE",
"498 742 LINE"
);
}
);
width = 988;
}
);
leftKerningGroup = W;
note = Wgrave;
rightKerningGroup = W;
unicode = 1E80;
},
{
glyphname = X;
lastChange = "2015-10-29 02:55:26 +0000";
layers = (
{
layerId = "EF7A456C-05AE-460A-9046-2BAC18FBC939";
name = Bold;
paths = (
{
closed = 1;
nodes = (
"478 542 LINE",
"399 699 LINE",
"129 699 LINE",
"302 353 LINE",
"-25 0 LINE",
"246 0 LINE",
"398 163 LINE",
"480 0 LINE",
"751 0 LINE",
"573 353 LINE",
"894 699 LINE",
"623 699 LINE"
);
}
);
width = 806;
}
);
note = X;
unicode = 0058;
},
{
glyphname = Y;
lastChange = "2015-10-29 02:55:28 +0000";
layers = (
{
layerId = "EF7A456C-05AE-460A-9046-2BAC18FBC939";
name = Bold;
paths = (
{
closed = 1;
nodes = (
"367 699 LINE",
"123 699 LINE",
"284 267 LINE",
"228 0 LINE",
"465 0 LINE",
"521 267 LINE",
"876 699 LINE",
"615 699 LINE",
"439 478 LINE"
);
}
);
width = 783;
}
);
leftKerningGroup = Y;
note = Y;
rightKerningGroup = Y;
unicode = 0059;
},
{
glyphname = Yacute;
lastChange = "2015-10-29 02:55:24 +0000";
layers = (
{
layerId = "EF7A456C-05AE-460A-9046-2BAC18FBC939";
name = Bold;
paths = (
{
closed = 1;
nodes = (
"439 478 LINE",
"615 699 LINE",
"876 699 LINE",
"521 267 LINE",
"465 0 LINE",
"228 0 LINE",
"284 267 LINE",
"123 699 LINE",
"367 699 LINE"
);
},
{
closed = 1;
nodes = (
"585 742 LINE",
"718 923 LINE",
"501 923 LINE",
"395 742 LINE"
);
}
);
width = 783;
}
);
leftKerningGroup = Y;
note = Yacute;
rightKerningGroup = Y;
unicode = 00DD;
},
{
glyphname = Ycircumflex;
lastChange = "2015-10-29 02:55:25 +0000";
layers = (
{
layerId = "EF7A456C-05AE-460A-9046-2BAC18FBC939";
name = Bold;
paths = (
{
closed = 1;
nodes = (
"439 478 LINE",
"615 699 LINE",
"876 699 LINE",
"521 267 LINE",
"465 0 LINE",
"228 0 LINE",
"284 267 LINE",
"123 699 LINE",
"367 699 LINE"
);
},
{
closed = 1;
nodes = (
"423 933 LINE",
"219 742 LINE",
"429 742 LINE",
"505 822 LINE",
"547 742 LINE",
"750 742 LINE",
"625 933 LINE"
);
}
);
width = 783;
}
);
leftKerningGroup = Y;
note = Ycircumflex;
rightKerningGroup = Y;
unicode = 0176;
},
{
glyphname = Ydieresis;
lastChange = "2015-10-29 02:55:26 +0000";
layers = (
{
layerId = "EF7A456C-05AE-460A-9046-2BAC18FBC939";
name = Bold;
paths = (
{
closed = 1;
nodes = (
"439 478 LINE",
"615 699 LINE",
"876 699 LINE",
"521 267 LINE",
"465 0 LINE",
"228 0 LINE",
"284 267 LINE",
"123 699 LINE",
"367 699 LINE"
);
},
{
closed = 1;
nodes = (
"289 780 OFFCURVE",
"322 742 OFFCURVE",
"368 742 CURVE SMOOTH",
"416 742 OFFCURVE",
"463 780 OFFCURVE",
"473 829 CURVE SMOOTH",
"484 878 OFFCURVE",
"453 917 OFFCURVE",
"405 917 CURVE SMOOTH",
"359 917 OFFCURVE",
"310 878 OFFCURVE",
"299 829 CURVE SMOOTH"
);
},
{
closed = 1;
nodes = (
"523 780 OFFCURVE",
"555 742 OFFCURVE",
"603 742 CURVE SMOOTH",
"650 742 OFFCURVE",
"697 780 OFFCURVE",
"707 829 CURVE SMOOTH",
"718 878 OFFCURVE",
"687 917 OFFCURVE",
"640 917 CURVE SMOOTH",
"592 917 OFFCURVE",
"544 878 OFFCURVE",
"533 829 CURVE SMOOTH"
);
}
);
width = 783;
}
);
leftKerningGroup = Y;
note = Ydieresis;
rightKerningGroup = Y;
unicode = 0178;
},
{
glyphname = Ydotaccent;
lastChange = "2015-10-29 02:55:27 +0000";
layers = (
{
layerId = "EF7A456C-05AE-460A-9046-2BAC18FBC939";
name = Bold;
paths = (
{
closed = 1;
nodes = (
"439 478 LINE",
"615 699 LINE",
"876 699 LINE",
"521 267 LINE",
"465 0 LINE",
"228 0 LINE",
"284 267 LINE",
"123 699 LINE",
"367 699 LINE"
);
},
{
closed = 1;
nodes = (
"350 780 OFFCURVE",
"383 742 OFFCURVE",
"430 742 CURVE SMOOTH",
"478 742 OFFCURVE",
"525 780 OFFCURVE",
"535 829 CURVE SMOOTH",
"546 878 OFFCURVE",
"515 917 OFFCURVE",
"467 917 CURVE SMOOTH",
"420 917 OFFCURVE",
"371 878 OFFCURVE",
"360 829 CURVE SMOOTH"
);
}
);
width = 783;
}
);
leftKerningGroup = Y;
note = Ydotaccent;
rightKerningGroup = Y;
unicode = 1E8E;
},
{
glyphname = Ydotbelow;
lastChange = "2015-10-29 02:55:26 +0000";
layers = (
{
layerId = "EF7A456C-05AE-460A-9046-2BAC18FBC939";
name = Bold;
paths = (
{
closed = 1;
nodes = (
"367 699 LINE",
"123 699 LINE",
"284 267 LINE",
"228 0 LINE",
"465 0 LINE",
"521 267 LINE",
"876 699 LINE",
"615 699 LINE",
"439 478 LINE"
);
},
{
closed = 1;
nodes = (
"222 -182 OFFCURVE",
"255 -220 OFFCURVE",
"302 -220 CURVE SMOOTH",
"349 -220 OFFCURVE",
"396 -182 OFFCURVE",
"406 -133 CURVE SMOOTH",
"417 -84 OFFCURVE",
"386 -45 OFFCURVE",
"339 -45 CURVE SMOOTH",
"292 -45 OFFCURVE",
"243 -84 OFFCURVE",
"232 -133 CURVE SMOOTH"
);
}
);
width = 783;
}
);
leftKerningGroup = Y;
note = Ydotbelow;
rightKerningGroup = Y;
unicode = 1EF4;
},
{
glyphname = Ygrave;
lastChange = "2015-10-29 02:55:27 +0000";
layers = (
{
layerId = "EF7A456C-05AE-460A-9046-2BAC18FBC939";
name = Bold;
paths = (
{
closed = 1;
nodes = (
"439 478 LINE",
"615 699 LINE",
"876 699 LINE",
"521 267 LINE",
"465 0 LINE",
"228 0 LINE",
"284 267 LINE",
"123 699 LINE",
"367 699 LINE"
);
},
{
closed = 1;
nodes = (
"576 742 LINE",
"546 923 LINE",
"329 923 LINE",
"386 742 LINE"
);
}
);
width = 783;
}
);
leftKerningGroup = Y;
note = Ygrave;
rightKerningGroup = Y;
unicode = 1EF2;
},
{
glyphname = Yhookabove;
lastChange = "2015-10-29 02:55:27 +0000";
layers = (
{
layerId = "EF7A456C-05AE-460A-9046-2BAC18FBC939";
name = Bold;
paths = (
{
closed = 1;
nodes = (
"439 478 LINE",
"615 699 LINE",
"876 699 LINE",
"521 267 LINE",
"465 0 LINE",
"228 0 LINE",
"284 267 LINE",
"123 699 LINE",
"367 699 LINE"
);
},
{
closed = 1;
nodes = (
"711 940 OFFCURVE",
"662 981 OFFCURVE",
"543 981 CURVE SMOOTH",
"499 981 OFFCURVE",
"434 972 OFFCURVE",
"398 962 CURVE",
"380 877 LINE",
"393 881 OFFCURVE",
"418 886 OFFCURVE",
"438 886 CURVE SMOOTH",
"479 886 OFFCURVE",
"495 876 OFFCURVE",
"491 854 CURVE",
"485 827 OFFCURVE",
"463 816 OFFCURVE",
"407 816 CURVE",
"391 742 LINE",
"578 742 LINE",
"586 782 LINE",
"643 798 OFFCURVE",
"686 825 OFFCURVE",
"698 877 CURVE SMOOTH"
);
}
);
width = 783;
}
);
leftKerningGroup = Y;
note = Yhookabove;
rightKerningGroup = Y;
unicode = 1EF6;
},
{
glyphname = Ytilde;
lastChange = "2015-10-29 02:55:27 +0000";
layers = (
{
layerId = "EF7A456C-05AE-460A-9046-2BAC18FBC939";
name = Bold;
paths = (
{
closed = 1;
nodes = (
"367 699 LINE",
"123 699 LINE",
"284 267 LINE",
"228 0 LINE",
"465 0 LINE",
"521 267 LINE",
"876 699 LINE",
"615 699 LINE",
"439 478 LINE"
);
},
{
closed = 1;
nodes = (
"552 886 OFFCURVE",
"492 936 OFFCURVE",
"424 936 CURVE SMOOTH",
"378 936 OFFCURVE",
"337 925 OFFCURVE",
"305 896 CURVE",
"273 743 LINE",
"311 777 OFFCURVE",
"351 792 OFFCURVE",
"393 792 CURVE SMOOTH",
"457 792 OFFCURVE",
"513 742 OFFCURVE",
"586 742 CURVE SMOOTH",
"632 742 OFFCURVE",
"672 753 OFFCURVE",
"704 782 CURVE",
"736 935 LINE",
"698 901 OFFCURVE",
"659 886 OFFCURVE",
"617 886 CURVE SMOOTH"
);
}
);
width = 783;
}
);
leftKerningGroup = Y;
note = Ytilde;
rightKerningGroup = Y;
unicode = 1EF8;
},
{
glyphname = Z;
lastChange = "2015-10-29 02:55:24 +0000";
layers = (
{
layerId = "EF7A456C-05AE-460A-9046-2BAC18FBC939";
name = Bold;
paths = (
{
closed = 1;
nodes = (
"599 199 LINE",
"308 199 LINE",
"648 546 LINE",
"680 699 LINE",
"129 699 LINE",
"87 500 LINE",
"348 500 LINE",
"7 152 LINE",
"-25 0 LINE",
"557 0 LINE"
);
}
);
width = 612;
}
);
leftKerningGroup = Z;
note = Z;
rightKerningGroup = Z;
unicode = 005A;
},
{
glyphname = Zacute;
lastChange = "2015-10-29 02:55:25 +0000";
layers = (
{
layerId = "EF7A456C-05AE-460A-9046-2BAC18FBC939";
name = Bold;
paths = (
{
closed = 1;
nodes = (
"557 0 LINE",
"-25 0 LINE",
"7 152 LINE",
"348 500 LINE",
"87 500 LINE",
"129 699 LINE",
"680 699 LINE",
"648 546 LINE",
"308 199 LINE",
"599 199 LINE"
);
},
{
closed = 1;
nodes = (
"470 742 LINE",
"603 923 LINE",
"386 923 LINE",
"280 742 LINE"
);
}
);
width = 612;
}
);
leftKerningGroup = Z;
note = Zacute;
rightKerningGroup = Z;
unicode = 0179;
},
{
glyphname = Zcaron;
lastChange = "2015-10-29 02:55:24 +0000";
layers = (
{
layerId = "EF7A456C-05AE-460A-9046-2BAC18FBC939";
name = Bold;
paths = (
{
closed = 1;
nodes = (
"557 0 LINE",
"-25 0 LINE",
"7 152 LINE",
"348 500 LINE",
"87 500 LINE",
"129 699 LINE",
"680 699 LINE",
"648 546 LINE",
"308 199 LINE",
"599 199 LINE"
);
},
{
closed = 1;
nodes = (
"496 742 LINE",
"701 933 LINE",
"490 933 LINE",
"414 853 LINE",
"372 933 LINE",
"170 933 LINE",
"294 742 LINE"
);
}
);
width = 612;
}
);
leftKerningGroup = Z;
note = Zcaron;
rightKerningGroup = Z;
unicode = 017D;
},
{
glyphname = Zdotaccent;
lastChange = "2015-10-29 02:55:24 +0000";
layers = (
{
layerId = "EF7A456C-05AE-460A-9046-2BAC18FBC939";
name = Bold;
paths = (
{
closed = 1;
nodes = (
"557 0 LINE",
"-25 0 LINE",
"7 152 LINE",
"348 500 LINE",
"87 500 LINE",
"129 699 LINE",
"680 699 LINE",
"648 546 LINE",
"308 199 LINE",
"599 199 LINE"
);
},
{
closed = 1;
nodes = (
"315 780 OFFCURVE",
"348 742 OFFCURVE",
"395 742 CURVE SMOOTH",
"443 742 OFFCURVE",
"490 780 OFFCURVE",
"500 829 CURVE SMOOTH",
"511 878 OFFCURVE",
"480 917 OFFCURVE",
"432 917 CURVE SMOOTH",
"385 917 OFFCURVE",
"336 878 OFFCURVE",
"325 829 CURVE SMOOTH"
);
}
);
width = 612;
}
);
leftKerningGroup = Z;
note = Zdotaccent;
rightKerningGroup = Z;
unicode = 017B;
},
{
glyphname = Zdotbelow;
lastChange = "2015-10-29 02:55:26 +0000";
layers = (
{
layerId = "EF7A456C-05AE-460A-9046-2BAC18FBC939";
name = Bold;
paths = (
{
closed = 1;
nodes = (
"599 199 LINE",
"308 199 LINE",
"648 546 LINE",
"680 699 LINE",
"129 699 LINE",
"87 500 LINE",
"348 500 LINE",
"7 152 LINE",
"-25 0 LINE",
"557 0 LINE"
);
},
{
closed = 1;
nodes = (
"117 -182 OFFCURVE",
"150 -220 OFFCURVE",
"197 -220 CURVE SMOOTH",
"244 -220 OFFCURVE",
"291 -182 OFFCURVE",
"301 -133 CURVE SMOOTH",
"312 -84 OFFCURVE",
"281 -45 OFFCURVE",
"234 -45 CURVE SMOOTH",
"187 -45 OFFCURVE",
"138 -84 OFFCURVE",
"127 -133 CURVE SMOOTH"
);
}
);
width = 612;
}
);
leftKerningGroup = Z;
note = Zdotbelow;
rightKerningGroup = Z;
unicode = 1E92;
},
{
glyphname = a;
lastChange = "2015-10-29 02:55:24 +0000";
layers = (
{
layerId = "EF7A456C-05AE-460A-9046-2BAC18FBC939";
name = Bold;
paths = (
{
closed = 1;
nodes = (
"469 450 LINE",
"443 475 OFFCURVE",
"394 495 OFFCURVE",
"336 495 CURVE SMOOTH",
"170 495 OFFCURVE",
"58 391 OFFCURVE",
"26 240 CURVE SMOOTH",
"-7 86 OFFCURVE",
"80 -15 OFFCURVE",
"227 -15 CURVE SMOOTH",
"285 -15 OFFCURVE",
"348 7 OFFCURVE",
"390 40 CURVE",
"382 0 LINE",
"599 0 LINE",
"701 480 LINE",
"476 480 LINE"
);
},
{
closed = 1;
nodes = (
"417 204 LINE",
"396 176 OFFCURVE",
"361 159 OFFCURVE",
"326 159 CURVE SMOOTH",
"265 159 OFFCURVE",
"247 185 OFFCURVE",
"258 239 CURVE SMOOTH",
"270 294 OFFCURVE",
"309 321 OFFCURVE",
"361 321 CURVE SMOOTH",
"396 321 OFFCURVE",
"423 304 OFFCURVE",
"432 276 CURVE"
);
}
);
width = 669;
}
);
leftKerningGroup = a;
note = a;
rightKerningGroup = a;
unicode = 0061;
},
{
glyphname = aacute;
lastChange = "2015-10-29 02:55:26 +0000";
layers = (
{
layerId = "EF7A456C-05AE-460A-9046-2BAC18FBC939";
name = Bold;
paths = (
{
closed = 1;
nodes = (
"469 450 LINE",
"443 475 OFFCURVE",
"394 495 OFFCURVE",
"336 495 CURVE SMOOTH",
"170 495 OFFCURVE",
"58 391 OFFCURVE",
"26 240 CURVE SMOOTH",
"-7 86 OFFCURVE",
"80 -15 OFFCURVE",
"227 -15 CURVE SMOOTH",
"285 -15 OFFCURVE",
"348 7 OFFCURVE",
"390 40 CURVE",
"382 0 LINE",
"599 0 LINE",
"701 480 LINE",
"476 480 LINE"
);
},
{
closed = 1;
nodes = (
"417 204 LINE",
"396 176 OFFCURVE",
"361 159 OFFCURVE",
"326 159 CURVE SMOOTH",
"265 159 OFFCURVE",
"247 185 OFFCURVE",
"258 239 CURVE SMOOTH",
"270 294 OFFCURVE",
"309 321 OFFCURVE",
"361 321 CURVE SMOOTH",
"396 321 OFFCURVE",
"423 304 OFFCURVE",
"432 276 CURVE"
);
},
{
closed = 1;
nodes = (
"506 517 LINE",
"639 698 LINE",
"422 698 LINE",
"316 517 LINE"
);
}
);
width = 669;
}
);
leftKerningGroup = a;
note = aacute;
rightKerningGroup = a;
unicode = 00E1;
},
{
glyphname = abreve;
lastChange = "2015-10-29 02:55:24 +0000";
layers = (
{
layerId = "EF7A456C-05AE-460A-9046-2BAC18FBC939";
name = Bold;
paths = (
{
closed = 1;
nodes = (
"469 450 LINE",
"443 475 OFFCURVE",
"394 495 OFFCURVE",
"336 495 CURVE SMOOTH",
"170 495 OFFCURVE",
"58 391 OFFCURVE",
"26 240 CURVE SMOOTH",
"-7 86 OFFCURVE",
"80 -15 OFFCURVE",
"227 -15 CURVE SMOOTH",
"285 -15 OFFCURVE",
"348 7 OFFCURVE",
"390 40 CURVE",
"382 0 LINE",
"599 0 LINE",
"701 480 LINE",
"476 480 LINE"
);
},
{
closed = 1;
nodes = (
"417 204 LINE",
"396 176 OFFCURVE",
"361 159 OFFCURVE",
"326 159 CURVE SMOOTH",
"265 159 OFFCURVE",
"247 185 OFFCURVE",
"258 239 CURVE SMOOTH",
"270 294 OFFCURVE",
"309 321 OFFCURVE",
"361 321 CURVE SMOOTH",
"396 321 OFFCURVE",
"423 304 OFFCURVE",
"432 276 CURVE"
);
},
{
closed = 1;
nodes = (
"566 517 OFFCURVE",
"654 591 OFFCURVE",
"679 712 CURVE",
"508 712 LINE",
"500 673 OFFCURVE",
"483 654 OFFCURVE",
"458 654 CURVE SMOOTH",
"433 654 OFFCURVE",
"424 673 OFFCURVE",
"432 712 CURVE",
"270 712 LINE",
"245 591 OFFCURVE",
"301 517 OFFCURVE",
"433 517 CURVE SMOOTH"
);
}
);
width = 669;
}
);
leftKerningGroup = a;
note = abreve;
rightKerningGroup = a;
unicode = 0103;
},
{
glyphname = abreveacute;
lastChange = "2015-10-29 02:55:25 +0000";
layers = (
{
layerId = "EF7A456C-05AE-460A-9046-2BAC18FBC939";
name = Bold;
paths = (
{
closed = 1;
nodes = (
"469 450 LINE",
"443 475 OFFCURVE",
"394 495 OFFCURVE",
"336 495 CURVE SMOOTH",
"170 495 OFFCURVE",
"58 391 OFFCURVE",
"26 240 CURVE SMOOTH",
"-7 86 OFFCURVE",
"80 -15 OFFCURVE",
"227 -15 CURVE SMOOTH",
"285 -15 OFFCURVE",
"348 7 OFFCURVE",
"390 40 CURVE",
"382 0 LINE",
"599 0 LINE",
"701 480 LINE",
"476 480 LINE"
);
},
{
closed = 1;
nodes = (
"417 204 LINE",
"396 176 OFFCURVE",
"361 159 OFFCURVE",
"326 159 CURVE SMOOTH",
"265 159 OFFCURVE",
"247 185 OFFCURVE",
"258 239 CURVE SMOOTH",
"270 294 OFFCURVE",
"309 321 OFFCURVE",
"361 321 CURVE SMOOTH",
"396 321 OFFCURVE",
"423 304 OFFCURVE",
"432 276 CURVE"
);
},
{
closed = 1;
nodes = (
"329 517 OFFCURVE",
"262 579 OFFCURVE",
"283 679 CURVE",
"417 679 LINE",
"410 647 OFFCURVE",
"422 626 OFFCURVE",
"457 626 CURVE SMOOTH",
"492 626 OFFCURVE",
"512 647 OFFCURVE",
"519 679 CURVE",
"662 679 LINE",
"641 579 OFFCURVE",
"549 517 OFFCURVE",
"439 517 CURVE SMOOTH"
);
},
{
closed = 1;
nodes = (
"555 696 LINE",
"663 838 LINE",
"478 838 LINE",
"394 696 LINE"
);
}
);
width = 669;
}
);
leftKerningGroup = a;
note = abreveacute;
rightKerningGroup = a;
unicode = 1EAF;
},
{
glyphname = abrevedotbelow;
lastChange = "2015-10-29 02:55:25 +0000";
layers = (
{
layerId = "EF7A456C-05AE-460A-9046-2BAC18FBC939";
name = Bold;
paths = (
{
closed = 1;
nodes = (
"469 450 LINE",
"443 475 OFFCURVE",
"394 495 OFFCURVE",
"336 495 CURVE SMOOTH",
"170 495 OFFCURVE",
"58 391 OFFCURVE",
"26 240 CURVE SMOOTH",
"-7 86 OFFCURVE",
"80 -15 OFFCURVE",
"227 -15 CURVE SMOOTH",
"285 -15 OFFCURVE",
"348 7 OFFCURVE",
"390 40 CURVE",
"382 0 LINE",
"599 0 LINE",
"701 480 LINE",
"476 480 LINE"
);
},
{
closed = 1;
nodes = (
"417 204 LINE",
"396 176 OFFCURVE",
"361 159 OFFCURVE",
"326 159 CURVE SMOOTH",
"265 159 OFFCURVE",
"247 185 OFFCURVE",
"258 239 CURVE SMOOTH",
"270 294 OFFCURVE",
"309 321 OFFCURVE",
"361 321 CURVE SMOOTH",
"396 321 OFFCURVE",
"423 304 OFFCURVE",
"432 276 CURVE"
);
},
{
closed = 1;
nodes = (
"557 517 OFFCURVE",
"645 591 OFFCURVE",
"670 712 CURVE",
"499 712 LINE",
"491 673 OFFCURVE",
"474 654 OFFCURVE",
"449 654 CURVE SMOOTH",
"424 654 OFFCURVE",
"415 673 OFFCURVE",
"423 712 CURVE",
"261 712 LINE",
"236 591 OFFCURVE",
"292 517 OFFCURVE",
"424 517 CURVE SMOOTH"
);
},
{
closed = 1;
nodes = (
"209 -182 OFFCURVE",
"242 -220 OFFCURVE",
"289 -220 CURVE SMOOTH",
"336 -220 OFFCURVE",
"383 -182 OFFCURVE",
"393 -133 CURVE SMOOTH",
"404 -84 OFFCURVE",
"373 -45 OFFCURVE",
"326 -45 CURVE SMOOTH",
"279 -45 OFFCURVE",
"230 -84 OFFCURVE",
"219 -133 CURVE SMOOTH"
);
}
);
width = 669;
}
);
leftKerningGroup = a;
note = abrevedotbelow;
rightKerningGroup = a;
unicode = 1EB7;
},
{
glyphname = abrevegrave;
lastChange = "2015-10-29 02:55:27 +0000";
layers = (
{
layerId = "EF7A456C-05AE-460A-9046-2BAC18FBC939";
name = Bold;
paths = (
{
closed = 1;
nodes = (
"469 450 LINE",
"443 475 OFFCURVE",
"394 495 OFFCURVE",
"336 495 CURVE SMOOTH",
"170 495 OFFCURVE",
"58 391 OFFCURVE",
"26 240 CURVE SMOOTH",
"-7 86 OFFCURVE",
"80 -15 OFFCURVE",
"227 -15 CURVE SMOOTH",
"285 -15 OFFCURVE",
"348 7 OFFCURVE",
"390 40 CURVE",
"382 0 LINE",
"599 0 LINE",
"701 480 LINE",
"476 480 LINE"
);
},
{
closed = 1;
nodes = (
"417 204 LINE",
"396 176 OFFCURVE",
"361 159 OFFCURVE",
"326 159 CURVE SMOOTH",
"265 159 OFFCURVE",
"247 185 OFFCURVE",
"258 239 CURVE SMOOTH",
"270 294 OFFCURVE",
"309 321 OFFCURVE",
"361 321 CURVE SMOOTH",
"396 321 OFFCURVE",
"423 304 OFFCURVE",
"432 276 CURVE"
);
},
{
closed = 1;
nodes = (
"339 517 OFFCURVE",
"272 579 OFFCURVE",
"293 679 CURVE",
"427 679 LINE",
"420 647 OFFCURVE",
"432 626 OFFCURVE",
"467 626 CURVE SMOOTH",
"502 626 OFFCURVE",
"522 647 OFFCURVE",
"529 679 CURVE",
"672 679 LINE",
"651 579 OFFCURVE",
"559 517 OFFCURVE",
"449 517 CURVE SMOOTH"
);
},
{
closed = 1;
nodes = (
"570 696 LINE",
"546 838 LINE",
"360 838 LINE",
"409 696 LINE"
);
}
);
width = 669;
}
);
leftKerningGroup = a;
note = abrevegrave;
rightKerningGroup = a;
unicode = 1EB1;
},
{
glyphname = abrevehookabove;
lastChange = "2015-10-29 02:55:23 +0000";
layers = (
{
layerId = "EF7A456C-05AE-460A-9046-2BAC18FBC939";
name = Bold;
paths = (
{
closed = 1;
nodes = (
"469 450 LINE",
"443 475 OFFCURVE",
"394 495 OFFCURVE",
"336 495 CURVE SMOOTH",
"170 495 OFFCURVE",
"58 391 OFFCURVE",
"26 240 CURVE SMOOTH",
"-7 86 OFFCURVE",
"80 -15 OFFCURVE",
"227 -15 CURVE SMOOTH",
"285 -15 OFFCURVE",
"348 7 OFFCURVE",
"390 40 CURVE",
"382 0 LINE",
"599 0 LINE",
"701 480 LINE",
"476 480 LINE"
);
},
{
closed = 1;
nodes = (
"417 204 LINE",
"396 176 OFFCURVE",
"361 159 OFFCURVE",
"326 159 CURVE SMOOTH",
"265 159 OFFCURVE",
"247 185 OFFCURVE",
"258 239 CURVE SMOOTH",
"270 294 OFFCURVE",
"309 321 OFFCURVE",
"361 321 CURVE SMOOTH",
"396 321 OFFCURVE",
"423 304 OFFCURVE",
"432 276 CURVE"
);
},
{
closed = 1;
nodes = (
"335 517 OFFCURVE",
"268 579 OFFCURVE",
"289 679 CURVE",
"423 679 LINE",
"416 647 OFFCURVE",
"428 626 OFFCURVE",
"463 626 CURVE SMOOTH",
"498 626 OFFCURVE",
"518 647 OFFCURVE",
"525 679 CURVE",
"668 679 LINE",
"647 579 OFFCURVE",
"555 517 OFFCURVE",
"445 517 CURVE SMOOTH"
);
},
{
closed = 1;
nodes = (
"640 829 OFFCURVE",
"608 860 OFFCURVE",
"528 860 CURVE SMOOTH",
"498 860 OFFCURVE",
"451 854 OFFCURVE",
"426 847 CURVE",
"411 778 LINE",
"420 782 OFFCURVE",
"434 784 OFFCURVE",
"444 784 CURVE SMOOTH",
"470 784 OFFCURVE",
"481 776 OFFCURVE",
"478 764 CURVE",
"475 748 OFFCURVE",
"455 743 OFFCURVE",
"428 743 CURVE",
"418 696 LINE",
"555 696 LINE",
"559 717 LINE",
"596 729 OFFCURVE",
"623 750 OFFCURVE",
"630 783 CURVE SMOOTH"
);
}
);
width = 669;
}
);
leftKerningGroup = a;
note = abrevehookabove;
rightKerningGroup = a;
unicode = 1EB3;
},
{
glyphname = abrevetilde;
lastChange = "2015-10-29 02:55:24 +0000";
layers = (
{
layerId = "EF7A456C-05AE-460A-9046-2BAC18FBC939";
name = Bold;
paths = (
{
closed = 1;
nodes = (
"469 450 LINE",
"443 475 OFFCURVE",
"394 495 OFFCURVE",
"336 495 CURVE SMOOTH",
"170 495 OFFCURVE",
"58 391 OFFCURVE",
"26 240 CURVE SMOOTH",
"-7 86 OFFCURVE",
"80 -15 OFFCURVE",
"227 -15 CURVE SMOOTH",
"285 -15 OFFCURVE",
"348 7 OFFCURVE",
"390 40 CURVE",
"382 0 LINE",
"599 0 LINE",
"701 480 LINE",
"476 480 LINE"
);
},
{
closed = 1;
nodes = (
"417 204 LINE",
"396 176 OFFCURVE",
"361 159 OFFCURVE",
"326 159 CURVE SMOOTH",
"265 159 OFFCURVE",
"247 185 OFFCURVE",
"258 239 CURVE SMOOTH",
"270 294 OFFCURVE",
"309 321 OFFCURVE",
"361 321 CURVE SMOOTH",
"396 321 OFFCURVE",
"423 304 OFFCURVE",
"432 276 CURVE"
);
},
{
closed = 1;
nodes = (
"552 517 OFFCURVE",
"644 579 OFFCURVE",
"665 679 CURVE",
"522 679 LINE",
"515 647 OFFCURVE",
"495 626 OFFCURVE",
"460 626 CURVE SMOOTH",
"425 626 OFFCURVE",
"413 647 OFFCURVE",
"420 679 CURVE",
"286 679 LINE",
"265 579 OFFCURVE",
"332 517 OFFCURVE",
"442 517 CURVE SMOOTH"
);
},
{
closed = 1;
nodes = (
"531 800 OFFCURVE",
"482 840 OFFCURVE",
"427 840 CURVE SMOOTH",
"390 840 OFFCURVE",
"358 831 OFFCURVE",
"333 808 CURVE",
"309 695 LINE",
"339 722 OFFCURVE",
"372 734 OFFCURVE",
"405 734 CURVE SMOOTH",
"457 734 OFFCURVE",
"502 694 OFFCURVE",
"561 694 CURVE SMOOTH",
"597 694 OFFCURVE",
"629 703 OFFCURVE",
"655 726 CURVE",
"679 839 LINE",
"648 812 OFFCURVE",
"616 800 OFFCURVE",
"584 800 CURVE SMOOTH"
);
}
);
width = 669;
}
);
leftKerningGroup = a;
note = abrevetilde;
rightKerningGroup = a;
unicode = 1EB5;
},
{
glyphname = acaron;
lastChange = "2015-10-29 02:55:26 +0000";
layers = (
{
layerId = "EF7A456C-05AE-460A-9046-2BAC18FBC939";
name = Bold;
paths = (
{
closed = 1;
nodes = (
"469 450 LINE",
"443 475 OFFCURVE",
"394 495 OFFCURVE",
"336 495 CURVE SMOOTH",
"170 495 OFFCURVE",
"58 391 OFFCURVE",
"26 240 CURVE SMOOTH",
"-7 86 OFFCURVE",
"80 -15 OFFCURVE",
"227 -15 CURVE SMOOTH",
"285 -15 OFFCURVE",
"348 7 OFFCURVE",
"390 40 CURVE",
"382 0 LINE",
"599 0 LINE",
"701 480 LINE",
"476 480 LINE"
);
},
{
closed = 1;
nodes = (
"417 204 LINE",
"396 176 OFFCURVE",
"361 159 OFFCURVE",
"326 159 CURVE SMOOTH",
"265 159 OFFCURVE",
"247 185 OFFCURVE",
"258 239 CURVE SMOOTH",
"270 294 OFFCURVE",
"309 321 OFFCURVE",
"361 321 CURVE SMOOTH",
"396 321 OFFCURVE",
"423 304 OFFCURVE",
"432 276 CURVE"
);
},
{
closed = 1;
nodes = (
"537 517 LINE",
"742 708 LINE",
"531 708 LINE",
"455 628 LINE",
"413 708 LINE",
"211 708 LINE",
"335 517 LINE"
);
}
);
width = 683;
}
);
leftKerningGroup = a;
note = acaron;
rightKerningGroup = a;
unicode = 01CE;
},
{
glyphname = acircumflex;
lastChange = "2015-10-29 02:55:26 +0000";
layers = (
{
layerId = "EF7A456C-05AE-460A-9046-2BAC18FBC939";
name = Bold;
paths = (
{
closed = 1;
nodes = (
"469 450 LINE",
"443 475 OFFCURVE",
"394 495 OFFCURVE",
"336 495 CURVE SMOOTH",
"170 495 OFFCURVE",
"58 391 OFFCURVE",
"26 240 CURVE SMOOTH",
"-7 86 OFFCURVE",
"80 -15 OFFCURVE",
"227 -15 CURVE SMOOTH",
"285 -15 OFFCURVE",
"348 7 OFFCURVE",
"390 40 CURVE",
"382 0 LINE",
"599 0 LINE",
"701 480 LINE",
"476 480 LINE"
);
},
{
closed = 1;
nodes = (
"417 204 LINE",
"396 176 OFFCURVE",
"361 159 OFFCURVE",
"326 159 CURVE SMOOTH",
"265 159 OFFCURVE",
"247 185 OFFCURVE",
"258 239 CURVE SMOOTH",
"270 294 OFFCURVE",
"309 321 OFFCURVE",
"361 321 CURVE SMOOTH",
"396 321 OFFCURVE",
"423 304 OFFCURVE",
"432 276 CURVE"
);
},
{
closed = 1;
nodes = (
"361 708 LINE",
"157 517 LINE",
"367 517 LINE",
"443 597 LINE",
"485 517 LINE",
"688 517 LINE",
"563 708 LINE"
);
}
);
width = 669;
}
);
leftKerningGroup = a;
note = acircumflex;
rightKerningGroup = a;
unicode = 00E2;
},
{
glyphname = acircumflexacute;
lastChange = "2015-10-29 02:55:25 +0000";
layers = (
{
layerId = "EF7A456C-05AE-460A-9046-2BAC18FBC939";
name = Bold;
paths = (
{
closed = 1;
nodes = (
"469 450 LINE",
"443 475 OFFCURVE",
"394 495 OFFCURVE",
"336 495 CURVE SMOOTH",
"170 495 OFFCURVE",
"58 391 OFFCURVE",
"26 240 CURVE SMOOTH",
"-7 86 OFFCURVE",
"80 -15 OFFCURVE",
"227 -15 CURVE SMOOTH",
"285 -15 OFFCURVE",
"348 7 OFFCURVE",
"390 40 CURVE",
"382 0 LINE",
"599 0 LINE",
"701 480 LINE",
"476 480 LINE"
);
},
{
closed = 1;
nodes = (
"417 204 LINE",
"396 176 OFFCURVE",
"361 159 OFFCURVE",
"326 159 CURVE SMOOTH",
"265 159 OFFCURVE",
"247 185 OFFCURVE",
"258 239 CURVE SMOOTH",
"270 294 OFFCURVE",
"309 321 OFFCURVE",
"361 321 CURVE SMOOTH",
"396 321 OFFCURVE",
"423 304 OFFCURVE",
"432 276 CURVE"
);
},
{
closed = 1;
nodes = (
"398 678 LINE",
"199 517 LINE",
"391 517 LINE",
"445 567 LINE",
"479 517 LINE",
"670 517 LINE",
"540 678 LINE"
);
},
{
closed = 1;
nodes = (
"783 650 LINE",
"899 799 LINE",
"692 799 LINE",
"603 650 LINE"
);
}
);
width = 669;
}
);
leftKerningGroup = a;
note = acircumflexacute;
rightKerningGroup = a;
unicode = 1EA5;
},
{
glyphname = acircumflexdotbelow;
lastChange = "2015-10-29 02:55:25 +0000";
layers = (
{
layerId = "EF7A456C-05AE-460A-9046-2BAC18FBC939";
name = Bold;
paths = (
{
closed = 1;
nodes = (
"469 450 LINE",
"443 475 OFFCURVE",
"394 495 OFFCURVE",
"336 495 CURVE SMOOTH",
"170 495 OFFCURVE",
"58 391 OFFCURVE",
"26 240 CURVE SMOOTH",
"-7 86 OFFCURVE",
"80 -15 OFFCURVE",
"227 -15 CURVE SMOOTH",
"285 -15 OFFCURVE",
"348 7 OFFCURVE",
"390 40 CURVE",
"382 0 LINE",
"599 0 LINE",
"701 480 LINE",
"476 480 LINE"
);
},
{
closed = 1;
nodes = (
"417 204 LINE",
"396 176 OFFCURVE",
"361 159 OFFCURVE",
"326 159 CURVE SMOOTH",
"265 159 OFFCURVE",
"247 185 OFFCURVE",
"258 239 CURVE SMOOTH",
"270 294 OFFCURVE",
"309 321 OFFCURVE",
"361 321 CURVE SMOOTH",
"396 321 OFFCURVE",
"423 304 OFFCURVE",
"432 276 CURVE"
);
},
{
closed = 1;
nodes = (
"351 708 LINE",
"147 517 LINE",
"357 517 LINE",
"433 597 LINE",
"475 517 LINE",
"678 517 LINE",
"553 708 LINE"
);
},
{
closed = 1;
nodes = (
"209 -182 OFFCURVE",
"242 -220 OFFCURVE",
"289 -220 CURVE SMOOTH",
"336 -220 OFFCURVE",
"383 -182 OFFCURVE",
"393 -133 CURVE SMOOTH",
"404 -84 OFFCURVE",
"373 -45 OFFCURVE",
"326 -45 CURVE SMOOTH",
"279 -45 OFFCURVE",
"230 -84 OFFCURVE",
"219 -133 CURVE SMOOTH"
);
}
);
width = 669;
}
);
leftKerningGroup = a;
note = acircumflexdotbelow;
rightKerningGroup = a;
unicode = 1EAD;
},
{
glyphname = acircumflexgrave;
lastChange = "2015-10-29 02:55:24 +0000";
layers = (
{
layerId = "EF7A456C-05AE-460A-9046-2BAC18FBC939";
name = Bold;
paths = (
{
closed = 1;
nodes = (
"469 450 LINE",
"443 475 OFFCURVE",
"394 495 OFFCURVE",
"336 495 CURVE SMOOTH",
"170 495 OFFCURVE",
"58 391 OFFCURVE",
"26 240 CURVE SMOOTH",
"-7 86 OFFCURVE",
"80 -15 OFFCURVE",
"227 -15 CURVE SMOOTH",
"285 -15 OFFCURVE",
"348 7 OFFCURVE",
"390 40 CURVE",
"382 0 LINE",
"599 0 LINE",
"701 480 LINE",
"476 480 LINE"
);
},
{
closed = 1;
nodes = (
"417 204 LINE",
"396 176 OFFCURVE",
"361 159 OFFCURVE",
"326 159 CURVE SMOOTH",
"265 159 OFFCURVE",
"247 185 OFFCURVE",
"258 239 CURVE SMOOTH",
"270 294 OFFCURVE",
"309 321 OFFCURVE",
"361 321 CURVE SMOOTH",
"396 321 OFFCURVE",
"423 304 OFFCURVE",
"432 276 CURVE"
);
},
{
closed = 1;
nodes = (
"403 678 LINE",
"204 517 LINE",
"396 517 LINE",
"450 567 LINE",
"484 517 LINE",
"675 517 LINE",
"544 678 LINE"
);
},
{
closed = 1;
nodes = (
"327 650 LINE",
"302 799 LINE",
"95 799 LINE",
"147 650 LINE"
);
}
);
width = 669;
}
);
leftKerningGroup = a;
note = acircumflexgrave;
rightKerningGroup = a;
unicode = 1EA7;
},
{
glyphname = acircumflexhookabove;
lastChange = "2015-10-29 02:55:23 +0000";
layers = (
{
layerId = "EF7A456C-05AE-460A-9046-2BAC18FBC939";
name = Bold;
paths = (
{
closed = 1;
nodes = (
"469 450 LINE",
"443 475 OFFCURVE",
"394 495 OFFCURVE",
"336 495 CURVE SMOOTH",
"170 495 OFFCURVE",
"58 391 OFFCURVE",
"26 240 CURVE SMOOTH",
"-7 86 OFFCURVE",
"80 -15 OFFCURVE",
"227 -15 CURVE SMOOTH",
"285 -15 OFFCURVE",
"348 7 OFFCURVE",
"390 40 CURVE",
"382 0 LINE",
"599 0 LINE",
"701 480 LINE",
"476 480 LINE"
);
},
{
closed = 1;
nodes = (
"417 204 LINE",
"396 176 OFFCURVE",
"361 159 OFFCURVE",
"326 159 CURVE SMOOTH",
"265 159 OFFCURVE",
"247 185 OFFCURVE",
"258 239 CURVE SMOOTH",
"270 294 OFFCURVE",
"309 321 OFFCURVE",
"361 321 CURVE SMOOTH",
"396 321 OFFCURVE",
"423 304 OFFCURVE",
"432 276 CURVE"
);
},
{
closed = 1;
nodes = (
"394 678 LINE",
"195 517 LINE",
"387 517 LINE",
"441 567 LINE",
"475 517 LINE",
"666 517 LINE",
"536 678 LINE"
);
},
{
closed = 1;
nodes = (
"808 776 OFFCURVE",
"775 807 OFFCURVE",
"694 807 CURVE SMOOTH",
"664 807 OFFCURVE",
"618 801 OFFCURVE",
"593 794 CURVE",
"578 725 LINE",
"587 729 OFFCURVE",
"601 731 OFFCURVE",
"611 731 CURVE SMOOTH",
"637 731 OFFCURVE",
"648 723 OFFCURVE",
"645 711 CURVE",
"642 695 OFFCURVE",
"622 690 OFFCURVE",
"595 690 CURVE",
"584 638 LINE",
"721 638 LINE",
"726 664 LINE",
"764 676 OFFCURVE",
"791 697 OFFCURVE",
"798 730 CURVE SMOOTH"
);
}
);
width = 669;
}
);
leftKerningGroup = a;
note = acircumflexhookabove;
rightKerningGroup = a;
unicode = 1EA9;
},
{
glyphname = acircumflextilde;
lastChange = "2015-10-29 02:55:26 +0000";
layers = (
{
layerId = "EF7A456C-05AE-460A-9046-2BAC18FBC939";
name = Bold;
paths = (
{
closed = 1;
nodes = (
"469 450 LINE",
"443 475 OFFCURVE",
"394 495 OFFCURVE",
"336 495 CURVE SMOOTH",
"170 495 OFFCURVE",
"58 391 OFFCURVE",
"26 240 CURVE SMOOTH",
"-7 86 OFFCURVE",
"80 -15 OFFCURVE",
"227 -15 CURVE SMOOTH",
"285 -15 OFFCURVE",
"348 7 OFFCURVE",
"390 40 CURVE",
"382 0 LINE",
"599 0 LINE",
"701 480 LINE",
"476 480 LINE"
);
},
{
closed = 1;
nodes = (
"417 204 LINE",
"396 176 OFFCURVE",
"361 159 OFFCURVE",
"326 159 CURVE SMOOTH",
"265 159 OFFCURVE",
"247 185 OFFCURVE",
"258 239 CURVE SMOOTH",
"270 294 OFFCURVE",
"309 321 OFFCURVE",
"361 321 CURVE SMOOTH",
"396 321 OFFCURVE",
"423 304 OFFCURVE",
"432 276 CURVE"
);
},
{
closed = 1;
nodes = (
"399 678 LINE",
"200 517 LINE",
"392 517 LINE",
"446 567 LINE",
"480 517 LINE",
"671 517 LINE",
"541 678 LINE"
);
},
{
closed = 1;
nodes = (
"536 795 OFFCURVE",
"487 835 OFFCURVE",
"432 835 CURVE SMOOTH",
"395 835 OFFCURVE",
"363 826 OFFCURVE",
"338 803 CURVE",
"314 690 LINE",
"344 717 OFFCURVE",
"377 729 OFFCURVE",
"410 729 CURVE SMOOTH",
"462 729 OFFCURVE",
"507 689 OFFCURVE",
"565 689 CURVE SMOOTH",
"602 689 OFFCURVE",
"634 698 OFFCURVE",
"660 721 CURVE",
"684 834 LINE",
"653 807 OFFCURVE",
"621 795 OFFCURVE",
"588 795 CURVE SMOOTH"
);
}
);
width = 669;
}
);
leftKerningGroup = a;
note = acircumflextilde;
rightKerningGroup = a;
unicode = 1EAB;
},
{
glyphname = adieresis;
lastChange = "2015-10-29 02:55:26 +0000";
layers = (
{
layerId = "EF7A456C-05AE-460A-9046-2BAC18FBC939";
name = Bold;
paths = (
{
closed = 1;
nodes = (
"469 450 LINE",
"443 475 OFFCURVE",
"394 495 OFFCURVE",
"336 495 CURVE SMOOTH",
"170 495 OFFCURVE",
"58 391 OFFCURVE",
"26 240 CURVE SMOOTH",
"-7 86 OFFCURVE",
"80 -15 OFFCURVE",
"227 -15 CURVE SMOOTH",
"285 -15 OFFCURVE",
"348 7 OFFCURVE",
"390 40 CURVE",
"382 0 LINE",
"599 0 LINE",
"701 480 LINE",
"476 480 LINE"
);
},
{
closed = 1;
nodes = (
"417 204 LINE",
"396 176 OFFCURVE",
"361 159 OFFCURVE",
"326 159 CURVE SMOOTH",
"265 159 OFFCURVE",
"247 185 OFFCURVE",
"258 239 CURVE SMOOTH",
"270 294 OFFCURVE",
"309 321 OFFCURVE",
"361 321 CURVE SMOOTH",
"396 321 OFFCURVE",
"423 304 OFFCURVE",
"432 276 CURVE"
);
},
{
closed = 1;
nodes = (
"226 555 OFFCURVE",
"259 517 OFFCURVE",
"305 517 CURVE SMOOTH",
"353 517 OFFCURVE",
"400 555 OFFCURVE",
"410 604 CURVE SMOOTH",
"421 653 OFFCURVE",
"390 692 OFFCURVE",
"342 692 CURVE SMOOTH",
"296 692 OFFCURVE",
"247 653 OFFCURVE",
"236 604 CURVE SMOOTH"
);
},
{
closed = 1;
nodes = (
"460 555 OFFCURVE",
"492 517 OFFCURVE",
"540 517 CURVE SMOOTH",
"587 517 OFFCURVE",
"634 555 OFFCURVE",
"644 604 CURVE SMOOTH",
"655 653 OFFCURVE",
"624 692 OFFCURVE",
"577 692 CURVE SMOOTH",
"529 692 OFFCURVE",
"481 653 OFFCURVE",
"470 604 CURVE SMOOTH"
);
}
);
width = 669;
}
);
leftKerningGroup = a;
note = adieresis;
rightKerningGroup = a;
unicode = 00E4;
},
{
glyphname = adotbelow;
lastChange = "2015-10-29 02:55:27 +0000";
layers = (
{
layerId = "EF7A456C-05AE-460A-9046-2BAC18FBC939";
name = Bold;
paths = (
{
closed = 1;
nodes = (
"469 450 LINE",
"443 475 OFFCURVE",
"394 495 OFFCURVE",
"336 495 CURVE SMOOTH",
"170 495 OFFCURVE",
"58 391 OFFCURVE",
"26 240 CURVE SMOOTH",
"-7 86 OFFCURVE",
"80 -15 OFFCURVE",
"227 -15 CURVE SMOOTH",
"285 -15 OFFCURVE",
"348 7 OFFCURVE",
"390 40 CURVE",
"382 0 LINE",
"599 0 LINE",
"701 480 LINE",
"476 480 LINE"
);
},
{
closed = 1;
nodes = (
"417 204 LINE",
"396 176 OFFCURVE",
"361 159 OFFCURVE",
"326 159 CURVE SMOOTH",
"265 159 OFFCURVE",
"247 185 OFFCURVE",
"258 239 CURVE SMOOTH",
"270 294 OFFCURVE",
"309 321 OFFCURVE",
"361 321 CURVE SMOOTH",
"396 321 OFFCURVE",
"423 304 OFFCURVE",
"432 276 CURVE"
);
},
{
closed = 1;
nodes = (
"209 -182 OFFCURVE",
"242 -220 OFFCURVE",
"289 -220 CURVE SMOOTH",
"336 -220 OFFCURVE",
"383 -182 OFFCURVE",
"393 -133 CURVE SMOOTH",
"404 -84 OFFCURVE",
"373 -45 OFFCURVE",
"326 -45 CURVE SMOOTH",
"279 -45 OFFCURVE",
"230 -84 OFFCURVE",
"219 -133 CURVE SMOOTH"
);
}
);
width = 669;
}
);
leftKerningGroup = a;
note = adotbelow;
rightKerningGroup = a;
unicode = 1EA1;
},
{
glyphname = agrave;
lastChange = "2015-10-29 02:55:27 +0000";
layers = (
{
layerId = "EF7A456C-05AE-460A-9046-2BAC18FBC939";
name = Bold;
paths = (
{
closed = 1;
nodes = (
"469 450 LINE",
"443 475 OFFCURVE",
"394 495 OFFCURVE",
"336 495 CURVE SMOOTH",
"170 495 OFFCURVE",
"58 391 OFFCURVE",
"26 240 CURVE SMOOTH",
"-7 86 OFFCURVE",
"80 -15 OFFCURVE",
"227 -15 CURVE SMOOTH",
"285 -15 OFFCURVE",
"348 7 OFFCURVE",
"390 40 CURVE",
"382 0 LINE",
"599 0 LINE",
"701 480 LINE",
"476 480 LINE"
);
},
{
closed = 1;
nodes = (
"417 204 LINE",
"396 176 OFFCURVE",
"361 159 OFFCURVE",
"326 159 CURVE SMOOTH",
"265 159 OFFCURVE",
"247 185 OFFCURVE",
"258 239 CURVE SMOOTH",
"270 294 OFFCURVE",
"309 321 OFFCURVE",
"361 321 CURVE SMOOTH",
"396 321 OFFCURVE",
"423 304 OFFCURVE",
"432 276 CURVE"
);
},
{
closed = 1;
nodes = (
"555 517 LINE",
"525 698 LINE",
"308 698 LINE",
"365 517 LINE"
);
}
);
width = 669;
}
);
leftKerningGroup = a;
note = agrave;
rightKerningGroup = a;
unicode = 00E0;
},
{
glyphname = ahookabove;
lastChange = "2015-10-29 02:55:24 +0000";
layers = (
{
layerId = "EF7A456C-05AE-460A-9046-2BAC18FBC939";
name = Bold;
paths = (
{
closed = 1;
nodes = (
"469 450 LINE",
"443 475 OFFCURVE",
"394 495 OFFCURVE",
"336 495 CURVE SMOOTH",
"170 495 OFFCURVE",
"58 391 OFFCURVE",
"26 240 CURVE SMOOTH",
"-7 86 OFFCURVE",
"80 -15 OFFCURVE",
"227 -15 CURVE SMOOTH",
"285 -15 OFFCURVE",
"348 7 OFFCURVE",
"390 40 CURVE",
"382 0 LINE",
"599 0 LINE",
"701 480 LINE",
"476 480 LINE"
);
},
{
closed = 1;
nodes = (
"417 204 LINE",
"396 176 OFFCURVE",
"361 159 OFFCURVE",
"326 159 CURVE SMOOTH",
"265 159 OFFCURVE",
"247 185 OFFCURVE",
"258 239 CURVE SMOOTH",
"270 294 OFFCURVE",
"309 321 OFFCURVE",
"361 321 CURVE SMOOTH",
"396 321 OFFCURVE",
"423 304 OFFCURVE",
"432 276 CURVE"
);
},
{
closed = 1;
nodes = (
"646 715 OFFCURVE",
"597 756 OFFCURVE",
"478 756 CURVE SMOOTH",
"434 756 OFFCURVE",
"369 747 OFFCURVE",
"333 737 CURVE",
"315 652 LINE",
"328 656 OFFCURVE",
"353 661 OFFCURVE",
"373 661 CURVE SMOOTH",
"414 661 OFFCURVE",
"430 651 OFFCURVE",
"426 629 CURVE",
"420 602 OFFCURVE",
"398 591 OFFCURVE",
"342 591 CURVE",
"326 517 LINE",
"513 517 LINE",
"521 557 LINE",
"578 573 OFFCURVE",
"621 600 OFFCURVE",
"633 652 CURVE SMOOTH"
);
}
);
width = 669;
}
);
leftKerningGroup = a;
note = ahookabove;
rightKerningGroup = a;
unicode = 1EA3;
},
{
glyphname = "alpha-latin";
lastChange = "2015-10-29 02:55:24 +0000";
layers = (
{
layerId = "EF7A456C-05AE-460A-9046-2BAC18FBC939";
name = Bold;
paths = (
{
closed = 1;
nodes = (
"469 450 LINE",
"443 475 OFFCURVE",
"394 495 OFFCURVE",
"336 495 CURVE SMOOTH",
"170 495 OFFCURVE",
"58 391 OFFCURVE",
"26 240 CURVE SMOOTH",
"-7 86 OFFCURVE",
"80 -15 OFFCURVE",
"227 -15 CURVE SMOOTH",
"285 -15 OFFCURVE",
"348 7 OFFCURVE",
"390 40 CURVE",
"382 0 LINE",
"599 0 LINE",
"701 480 LINE",
"476 480 LINE"
);
},
{
closed = 1;
nodes = (
"417 204 LINE",
"396 176 OFFCURVE",
"361 159 OFFCURVE",
"326 159 CURVE SMOOTH",
"265 159 OFFCURVE",
"247 185 OFFCURVE",
"258 239 CURVE SMOOTH",
"270 294 OFFCURVE",
"309 321 OFFCURVE",
"361 321 CURVE SMOOTH",
"396 321 OFFCURVE",
"423 304 OFFCURVE",
"432 276 CURVE"
);
}
);
width = 674;
}
);
leftKerningGroup = a;
note = ascript;
rightKerningGroup = a;
unicode = 0251;
},
{
glyphname = amacron;
lastChange = "2015-10-29 02:55:25 +0000";
layers = (
{
layerId = "EF7A456C-05AE-460A-9046-2BAC18FBC939";
name = Bold;
paths = (
{
closed = 1;
nodes = (
"469 450 LINE",
"443 475 OFFCURVE",
"394 495 OFFCURVE",
"336 495 CURVE SMOOTH",
"170 495 OFFCURVE",
"58 391 OFFCURVE",
"26 240 CURVE SMOOTH",
"-7 86 OFFCURVE",
"80 -15 OFFCURVE",
"227 -15 CURVE SMOOTH",
"285 -15 OFFCURVE",
"348 7 OFFCURVE",
"390 40 CURVE",
"382 0 LINE",
"599 0 LINE",
"701 480 LINE",
"476 480 LINE"
);
},
{
closed = 1;
nodes = (
"417 204 LINE",
"396 176 OFFCURVE",
"361 159 OFFCURVE",
"326 159 CURVE SMOOTH",
"265 159 OFFCURVE",
"247 185 OFFCURVE",
"258 239 CURVE SMOOTH",
"270 294 OFFCURVE",
"309 321 OFFCURVE",
"361 321 CURVE SMOOTH",
"396 321 OFFCURVE",
"423 304 OFFCURVE",
"432 276 CURVE"
);
},
{
closed = 1;
nodes = (
"593 517 LINE",
"624 660 LINE",
"258 660 LINE",
"227 517 LINE"
);
}
);
width = 669;
}
);
leftKerningGroup = a;
note = amacron;
rightKerningGroup = a;
unicode = 0101;
},
{
glyphname = aogonek;
lastChange = "2015-10-29 02:55:25 +0000";
layers = (
{
layerId = "EF7A456C-05AE-460A-9046-2BAC18FBC939";
name = Bold;
paths = (
{
closed = 1;
nodes = (
"466 -219 OFFCURVE",
"518 -212 OFFCURVE",
"552 -202 CURVE",
"577 -82 LINE",
"559 -90 OFFCURVE",
"541 -95 OFFCURVE",
"525 -95 CURVE SMOOTH",
"508 -95 OFFCURVE",
"501 -86 OFFCURVE",
"504 -72 CURVE SMOOTH",
"510 -45 OFFCURVE",
"536 -26 OFFCURVE",
"599 0 CURVE",
"701 480 LINE",
"476 480 LINE",
"469 450 LINE",
"443 475 OFFCURVE",
"394 495 OFFCURVE",
"336 495 CURVE SMOOTH",
"170 495 OFFCURVE",
"58 391 OFFCURVE",
"26 240 CURVE SMOOTH",
"-7 86 OFFCURVE",
"80 -15 OFFCURVE",
"227 -15 CURVE SMOOTH",
"285 -15 OFFCURVE",
"348 7 OFFCURVE",
"390 40 CURVE",
"382 0 LINE",
"350 -25 OFFCURVE",
"312 -63 OFFCURVE",
"301 -116 CURVE SMOOTH",
"285 -189 OFFCURVE",
"339 -219 OFFCURVE",
"421 -219 CURVE SMOOTH"
);
},
{
closed = 1;
nodes = (
"417 204 LINE",
"396 176 OFFCURVE",
"361 159 OFFCURVE",
"326 159 CURVE SMOOTH",
"265 159 OFFCURVE",
"247 185 OFFCURVE",
"258 239 CURVE SMOOTH",
"270 294 OFFCURVE",
"309 321 OFFCURVE",
"361 321 CURVE SMOOTH",
"396 321 OFFCURVE",
"423 304 OFFCURVE",
"432 276 CURVE"
);
}
);
width = 669;
}
);
leftKerningGroup = a;
note = aogonek;
rightKerningGroup = a;
unicode = 0105;
},
{
glyphname = aring;
lastChange = "2015-10-29 02:55:26 +0000";
layers = (
{
layerId = "EF7A456C-05AE-460A-9046-2BAC18FBC939";
name = Bold;
paths = (
{
closed = 1;
nodes = (
"469 450 LINE",
"443 475 OFFCURVE",
"394 495 OFFCURVE",
"336 495 CURVE SMOOTH",
"170 495 OFFCURVE",
"58 391 OFFCURVE",
"26 240 CURVE SMOOTH",
"-7 86 OFFCURVE",
"80 -15 OFFCURVE",
"227 -15 CURVE SMOOTH",
"285 -15 OFFCURVE",
"348 7 OFFCURVE",
"390 40 CURVE",
"382 0 LINE",
"599 0 LINE",
"701 480 LINE",
"476 480 LINE"
);
},
{
closed = 1;
nodes = (
"417 204 LINE",
"396 176 OFFCURVE",
"361 159 OFFCURVE",
"326 159 CURVE SMOOTH",
"265 159 OFFCURVE",
"247 185 OFFCURVE",
"258 239 CURVE SMOOTH",
"270 294 OFFCURVE",
"309 321 OFFCURVE",
"361 321 CURVE SMOOTH",
"396 321 OFFCURVE",
"423 304 OFFCURVE",
"432 276 CURVE"
);
},
{
closed = 1;
nodes = (
"277 584 OFFCURVE",
"333 517 OFFCURVE",
"420 517 CURVE SMOOTH",
"514 517 OFFCURVE",
"592 584 OFFCURVE",
"611 671 CURVE SMOOTH",
"629 758 OFFCURVE",
"573 825 OFFCURVE",
"486 825 CURVE SMOOTH",
"394 825 OFFCURVE",
"313 758 OFFCURVE",
"296 671 CURVE SMOOTH"
);
},
{
closed = 1;
nodes = (
"417 694 OFFCURVE",
"439 712 OFFCURVE",
"462 712 CURVE SMOOTH",
"490 712 OFFCURVE",
"499 694 OFFCURVE",
"494 671 CURVE SMOOTH",
"489 648 OFFCURVE",
"467 630 OFFCURVE",
"444 630 CURVE SMOOTH",
"417 630 OFFCURVE",
"407 648 OFFCURVE",
"412 671 CURVE SMOOTH"
);
}
);
width = 669;
}
);
leftKerningGroup = a;
note = aring;
rightKerningGroup = a;
unicode = 00E5;
},
